{
.appVersion = "1286";
copyright = "Open Sour©e + ®estricted Used Only ©Jules Durand — Some rights reserved";
date = "2020-04-04 06:52:53 +0000";
designer = "Jules Durand";
designerURL = "jules-durand.fr";
familyName = Sinistre;
featurePrefixes = (
{
automatic = 1;
code = "languagesystem DFLT dflt;\012languagesystem latn dflt;\012languagesystem latn ROM;\012languagesystem latn MOL;\012languagesystem latn KAZ;\012languagesystem latn TAT;\012languagesystem latn TRK;\012languagesystem latn CRT;\012languagesystem latn AZE;\012";
name = Languagesystems;
}
);
features = (
{
automatic = 1;
code = "feature locl;\012feature frac;\012feature case;\012feature salt;\012feature ss01;\012feature ss02;\012";
name = aalt;
},
{
automatic = 1;
code = "script latn;\012language ROM;\012sub Scedilla by Scommaaccent;\012sub scedilla by scommaaccent;\012sub Tcedilla by Tcommaaccent;\012sub tcedilla by tcommaaccent;\012language MOL;\012sub Scedilla by Scommaaccent;\012sub scedilla by scommaaccent;\012sub Tcedilla by Tcommaaccent;\012sub tcedilla by tcommaaccent;\012language KAZ;\012sub i by idotaccent;\012language TAT;\012sub i by idotaccent;\012language TRK;\012sub i by idotaccent;\012language CRT;\012sub i by idotaccent;\012language AZE;\012sub i by idotaccent;\012";
name = locl;
},
{
automatic = 1;
code = "sub one slash four by onequarter;\012sub one slash two by onehalf;\012sub three slash four by threequarters;\012";
name = frac;
},
{
automatic = 1;

glyphs = (
{
glyphname = A;
lastChange = "2020-05-19 10:49:45 +0000";
layers = (
{
anchors = (
{
name = bottom;
position = "{358, 0}";
},
{
name = ogonek;
position = "{644, 10}";
},
{
name = top;
position = "{358, 722}";
}
);
guideLines = (
{
angle = -65.1519;
position = "{339, 562}";
}
);
layerId = "452AD06C-4D92-427C-8B35-838986F56274";
paths = (
{
closed = 1;
nodes = (
"672 0 LINE",
"360 673 LINE SMOOTH",
"353 688 OFFCURVE",
"345 706 OFFCURVE",
"342 722 CURVE",
"134 722 LINE",
"134 717 LINE",
"278 717 OFFCURVE",
"283 688 OFFCURVE",
"339 562 CURVE",
"177 472 OFFCURVE",
"53 288 OFFCURVE",
"53 97 CURVE SMOOTH",
"53 60 OFFCURVE",
"58 24 OFFCURVE",
"67 -12 CURVE",
"402 427 LINE",
"562 80 LINE SMOOTH",
"574 54 OFFCURVE",
"583 22 OFFCURVE",
"573 0 CURVE"
);
},
{
closed = 1;
nodes = (
"394 443 LINE",
"144 118 LINE",
"138 143 OFFCURVE",
"136 167 OFFCURVE",
"136 192 CURVE SMOOTH",
"136 330 OFFCURVE",
"220 464 OFFCURVE",
"347 544 CURVE"
);
}
);
width = 706;
}
);
leftKerningGroup = A;
rightKerningGroup = A;
unicode = 0041;
},
{
glyphname = A.ss01;
lastChange = "2020-05-19 10:49:45 +0000";
layers = (
{
layerId = "452AD06C-4D92-427C-8B35-838986F56274";
paths = (
{
closed = 1;
nodes = (
"710 -36 LINE",
"629 -90 OFFCURVE",
"542 -119 OFFCURVE",
"461 -119 CURVE SMOOTH",
"275 -119 OFFCURVE",
"143 35 OFFCURVE",
"124 225 CURVE",
"82 182 LINE",
"402 386 LINE",
"506 164 LINE SMOOTH",
"552 66 OFFCURVE",
"580 21 OFFCURVE",
"520 0 CURVE",
"652 0 LINE",
"458 420 LINE",
"594 507 LINE",
"591 514 LINE",
"450 432 LINE",
"315 722 LINE",
"113 722 LINE",
"113 716 LINE",
"242 709 OFFCURVE",
"265 676 OFFCURVE",
"321 557 CURVE",
"135 490 OFFCURVE",
"58 350 OFFCURVE",
"58 204 CURVE SMOOTH",
"58 11 OFFCURVE",
"206 -159 OFFCURVE",
"405 -159 CURVE SMOOTH",
"509 -159 OFFCURVE",
"618 -118 OFFCURVE",
"716 -42 CURVE"
);
},
{
closed = 1;
nodes = (
"111 388 OFFCURVE",
"187 488 OFFCURVE",
"326 547 CURVE",
"394 402 LINE",
"122 245 LINE"
);
}
);
width = 696;
}
);
leftKerningGroup = A;
rightKerningGroup = A;
},
{
glyphname = A.ss02;
lastChange = "2020-05-19 10:49:45 +0000";
layers = (
{
anchors = (
{
name = bottom;
position = "{263, 0}";
},
{
name = ogonek;
position = "{541, 10}";
},
{
name = top;
position = "{263, 722}";
}
);
layerId = "452AD06C-4D92-427C-8B35-838986F56274";
paths = (
{
closed = 1;
nodes = (
"271 722 LINE",
"71 722 LINE",
"71 717 LINE",
"147 714 OFFCURVE",
"185 713 OFFCURVE",
"207 688 CURVE SMOOTH",
"227 666 OFFCURVE",
"238 636 OFFCURVE",
"278 544 CURVE",
"27 0 LINE",
"196 0 LINE",
"196 7 LINE",
"128 12 OFFCURVE",
"100 21 OFFCURVE",
"100 53 CURVE SMOOTH",
"100 84 OFFCURVE",
"150 201 OFFCURVE",
"185 277 CURVE SMOOTH",
"192 292 LINE",
"393 292 LINE",
"477 98 LINE SMOOTH",
"490 66 OFFCURVE",
"502 33 OFFCURVE",
"498 0 CURVE",
"604 0 LINE",
"574 38 OFFCURVE",
"557 73 OFFCURVE",
"541 110 CURVE SMOOTH"
);
},
{
closed = 1;
nodes = (
"293 508 LINE",
"384 312 LINE",
"201 312 LINE"
);
}
);
width = 610;
}
);
leftKerningGroup = A;
rightKerningGroup = A;
},
{
glyphname = Aring;
lastChange = "2020-05-19 10:49:45 +0000";
layers = (
{
anchors = (
{
name = bottom;
position = "{358, 0}";
},
{
name = ogonek;
position = "{644, 10}";
},
{
name = top;
position = "{252, 873}";
}
);
layerId = "452AD06C-4D92-427C-8B35-838986F56274";
paths = (
{
closed = 1;
nodes = (
"672 0 LINE",
"360 673 LINE SMOOTH",
"353 688 OFFCURVE",
"345 706 OFFCURVE",
"342 722 CURVE",
"134 722 LINE",
"134 717 LINE",
"278 717 OFFCURVE",
"283 688 OFFCURVE",
"339 562 CURVE",
"177 472 OFFCURVE",
"53 288 OFFCURVE",
"53 97 CURVE SMOOTH",
"53 60 OFFCURVE",
"58 24 OFFCURVE",
"67 -12 CURVE",
"402 427 LINE",
"562 80 LINE SMOOTH",
"574 54 OFFCURVE",
"583 22 OFFCURVE",
"573 0 CURVE"
);
},
{
closed = 1;
nodes = (
"394 443 LINE",
"144 118 LINE",
"138 143 OFFCURVE",
"136 167 OFFCURVE",
"136 192 CURVE SMOOTH",
"136 330 OFFCURVE",
"220 464 OFFCURVE",
"347 544 CURVE"
);
},
{
closed = 1;
nodes = (
"276 730 LINE",
"268 742 OFFCURVE",
"265 755 OFFCURVE",
"265 766 CURVE SMOOTH",
"265 797 OFFCURVE",
"288 821 OFFCURVE",
"320 821 CURVE SMOOTH",
"355 821 OFFCURVE",
"372 791 OFFCURVE",
"372 763 CURVE SMOOTH",
"372 747 OFFCURVE",
"367 732 OFFCURVE",
"354 722 CURVE",
"355 713 OFFCURVE",
"359 703 OFFCURVE",
"364 696 CURVE",
"386 714 OFFCURVE",
"395 736 OFFCURVE",
"395 758 CURVE SMOOTH",
"395 796 OFFCURVE",
"367 833 OFFCURVE",
"320 833 CURVE SMOOTH",
"277 833 OFFCURVE",
"242 804 OFFCURVE",
"242 763 CURVE SMOOTH",
"242 752 OFFCURVE",
"245 742 OFFCURVE",
"249 730 CURVE"
);
}
);
width = 706;
}
);
leftKerningGroup = A;
rightKerningGroup = A;
unicode = 00C5;
},
{
glyphname = AE;
lastChange = "2020-05-19 10:49:45 +0000";
layers = (
{
anchors = (
{
name = bottom;
position = "{572, 0}";
},
{
name = top;
position = "{572, 722}";
}
);
layerId = "452AD06C-4D92-427C-8B35-838986F56274";
paths = (
{
closed = 1;
nodes = (
"949 46 OFFCURVE",
"853 30 OFFCURVE",
"697 30 CURVE SMOOTH",
"663 30 OFFCURVE",
"655 39 OFFCURVE",
"655 72 CURVE SMOOTH",
"655 417 LINE",
"799 417 LINE SMOOTH",
"878 417 OFFCURVE",
"918 408 OFFCURVE",
"951 365 CURVE",
"951 485 LINE",
"918 453 OFFCURVE",
"878 433 OFFCURVE",
"799 433 CURVE SMOOTH",
"655 433 LINE",
"655 704 LINE",
"758 704 LINE SMOOTH",
"866 704 OFFCURVE",
"898 690 OFFCURVE",
"957 587 CURVE",
"964 590 LINE",
"925 722 LINE",
"134 722 LINE",
"134 717 LINE",
"278 717 OFFCURVE",
"283 688 OFFCURVE",
"339 562 CURVE",
"177 472 OFFCURVE",
"53 288 OFFCURVE",
"53 97 CURVE SMOOTH",
"53 60 OFFCURVE",
"58 24 OFFCURVE",
"67 -12 CURVE",
"402 427 LINE",
"562 80 LINE SMOOTH",
"574 54 OFFCURVE",
"583 22 OFFCURVE",
"573 0 CURVE",
"967 0 LINE",
"1016 159 LINE",
"1008 163 LINE"
);
},
{
closed = 1;
nodes = (
"346 704 OFFCURVE",
"349 712 OFFCURVE",
"394 712 CURVE SMOOTH",
"501 712 LINE SMOOTH",
"588 712 OFFCURVE",
"585 697 OFFCURVE",
"585 577 CURVE SMOOTH",
"585 188 LINE",
"360 673 LINE SMOOTH"
);
},
{
closed = 1;
nodes = (
"138 143 OFFCURVE",
"136 167 OFFCURVE",
"136 192 CURVE SMOOTH",
"136 330 OFFCURVE",
"220 464 OFFCURVE",
"347 544 CURVE",
"394 443 LINE",
"144 118 LINE"
);
}
);
width = 1060;
}
);
leftKerningGroup = A;
rightKerningGroup = E;
unicode = 00C6;
},
{
glyphname = B;
lastChange = "2020-05-19 10:49:45 +0000";
layers = (
{
anchors = (
{
name = bottom;
position = "{315, 0}";
},
{
name = top;
position = "{315, 722}";
}
);
layerId = "452AD06C-4D92-427C-8B35-838986F56274";
paths = (
{
closed = 1;
nodes = (
"423 13 OFFCURVE",
"582 98 OFFCURVE",
"582 253 CURVE SMOOTH",
"582 384 OFFCURVE",
"470 469 OFFCURVE",
"306 493 CURVE",
"370 513 OFFCURVE",
"453 581 OFFCURVE",
"453 652 CURVE SMOOTH",
"453 700 OFFCURVE",
"411 728 OFFCURVE",
"340 728 CURVE SMOOTH",
"283 728 OFFCURVE",
"225 710 OFFCURVE",
"177 672 CURVE",
"177 722 LINE",
"30 722 LINE",
"30 717 LINE",
"107 717 OFFCURVE",
"107 706 OFFCURVE",
"107 598 CURVE SMOOTH",
"107 0 LINE",
"151 0 OFFCURVE",
"199 0 OFFCURVE",
"216 1 CURVE SMOOTH"
);
},
{
closed = 1;
nodes = (
"208 478 LINE",
"369 478 OFFCURVE",
"501 407 OFFCURVE",
"501 253 CURVE SMOOTH",
"501 92 OFFCURVE",
"358 23 OFFCURVE",
"177 18 CURVE",
"177 658 LINE",
"211 685 OFFCURVE",
"251 698 OFFCURVE",
"287 698 CURVE SMOOTH",
"344 698 OFFCURVE",
"378 671 OFFCURVE",
"378 625 CURVE SMOOTH",
"378 568 OFFCURVE",
"325 507 OFFCURVE",
"208 484 CURVE"
);
}
);
width = 630;
}
);
leftKerningGroup = D;
rightKerningGroup = E;
unicode = 0042;
},
{
glyphname = C;
lastChange = "2020-05-19 10:49:45 +0000";
layers = (
{
anchors = (
{
name = bottom;
position = "{379, 0}";
},
{
name = top;
position = "{379, 722}";
}
);
layerId = "452AD06C-4D92-427C-8B35-838986F56274";
paths = (
{
closed = 1;
nodes = (
"705 188 LINE",
"642 58 OFFCURVE",
"547 8 OFFCURVE",
"446 2 CURVE SMOOTH",
"281 -8 OFFCURVE",
"146 124 OFFCURVE",
"136 359 CURVE SMOOTH",
"127 580 OFFCURVE",
"267 718 OFFCURVE",
"447 718 CURVE SMOOTH",
"570 718 OFFCURVE",
"647 651 OFFCURVE",
"678 550 CURVE",
"687 551 LINE",
"675 690 LINE",
"606 720 OFFCURVE",
"547 735 OFFCURVE",
"474 735 CURVE SMOOTH",
"241 735 OFFCURVE",
"49 590 OFFCURVE",
"60 333 CURVE SMOOTH",
"70 100 OFFCURVE",
"237 -29 OFFCURVE",
"447 -19 CURVE SMOOTH",
"527 -15 OFFCURVE",
"602 1 OFFCURVE",
"673 48 CURVE",
"711 184 LINE"
);
}
);
width = 764;
}
);
leftKerningGroup = O;
rightKerningGroup = C;
unicode = 0043;
},
{
glyphname = C.ss01;
lastChange = "2020-05-19 10:49:45 +0000";
layers = (
{
anchors = (
{
name = bottom;
position = "{376, 0}";
},
{
name = top;
position = "{376, 722}";
}
);
layerId = "452AD06C-4D92-427C-8B35-838986F56274";
paths = (
{
closed = 1;
nodes = (
"433 691 LINE",
"661 691 OFFCURVE",
"659 679 OFFCURVE",
"703 583 CURVE",
"710 586 LINE",
"666 698 OFFCURVE",
"654 743 OFFCURVE",
"644 787 CURVE",
"635 784 LINE",
"642 742 OFFCURVE",
"637 735 OFFCURVE",
"481 735 CURVE"
);
},
{
closed = 1;
nodes = (
"384 472 OFFCURVE",
"521 384 OFFCURVE",
"503 215 CURVE",
"512 214 LINE",
"521 262 OFFCURVE",
"534 294 OFFCURVE",
"549 304 CURVE",
"534 445 OFFCURVE",
"433 522 OFFCURVE",
"433 691 CURVE",
"384 641 LINE"
);
},
{
closed = 1;
nodes = (
"599 718 LINE",
"559 729 OFFCURVE",
"526 735 OFFCURVE",
"481 735 CURVE SMOOTH",
"248 735 OFFCURVE",
"49 590 OFFCURVE",
"60 333 CURVE SMOOTH",
"70 100 OFFCURVE",
"237 -29 OFFCURVE",
"447 -19 CURVE SMOOTH",
"527 -15 OFFCURVE",
"602 1 OFFCURVE",
"673 48 CURVE",
"711 184 LINE",
"705 188 LINE",
"642 58 OFFCURVE",
"547 8 OFFCURVE",
"446 2 CURVE SMOOTH",
"281 -8 OFFCURVE",
"146 124 OFFCURVE",
"136 359 CURVE SMOOTH",
"127 580 OFFCURVE",
"267 718 OFFCURVE",
"447 718 CURVE SMOOTH",
"487 718 OFFCURVE",
"522 711 OFFCURVE",
"552 698 CURVE"
);
}
);
width = 765;
}
);
leftKerningGroup = O;
rightKerningGroup = C;
},
{
glyphname = Ccedilla;
lastChange = "2020-05-19 10:49:45 +0000";
layers = (
{
layerId = "452AD06C-4D92-427C-8B35-838986F56274";
paths = (
{
closed = 1;
nodes = (
"363 -13 LINE",
"341 -102 LINE",
"350 -105 LINE",
"372 -83 OFFCURVE",
"390 -76 OFFCURVE",
"404 -76 CURVE SMOOTH",
"430 -76 OFFCURVE",
"443 -93 OFFCURVE",
"443 -111 CURVE SMOOTH",
"443 -135 OFFCURVE",
"423 -161 OFFCURVE",
"382 -161 CURVE SMOOTH",
"366 -161 OFFCURVE",
"349 -158 OFFCURVE",
"329 -149 CURVE",
"326 -155 LINE",
"354 -168 OFFCURVE",
"379 -174 OFFCURVE",
"400 -174 CURVE SMOOTH",
"460 -174 OFFCURVE",
"493 -131 OFFCURVE",
"493 -95 CURVE SMOOTH",
"493 -69 OFFCURVE",
"475 -46 OFFCURVE",
"437 -46 CURVE SMOOTH",
"412 -46 OFFCURVE",
"382 -58 OFFCURVE",
"353 -91 CURVE",
"353 -89 LINE",
"401 -16 LINE"
);
},
{
closed = 1;
nodes = (
"705 188 LINE",
"642 58 OFFCURVE",
"547 8 OFFCURVE",
"446 2 CURVE SMOOTH",
"281 -8 OFFCURVE",
"146 124 OFFCURVE",
"136 359 CURVE SMOOTH",
"127 580 OFFCURVE",
"267 718 OFFCURVE",
"447 718 CURVE SMOOTH",
"570 718 OFFCURVE",
"647 651 OFFCURVE",
"678 550 CURVE",
"687 551 LINE",
"675 690 LINE",
"606 720 OFFCURVE",
"547 735 OFFCURVE",
"474 735 CURVE SMOOTH",
"241 735 OFFCURVE",
"49 590 OFFCURVE",
"60 333 CURVE SMOOTH",
"70 100 OFFCURVE",
"237 -29 OFFCURVE",
"447 -19 CURVE SMOOTH",
"527 -15 OFFCURVE",
"602 1 OFFCURVE",
"673 48 CURVE",
"711 184 LINE"
);
}
);
width = 764;
}
);
leftKerningGroup = O;
rightKerningGroup = C;
unicode = 00C7;
},
{
glyphname = Ccedilla.ss01;
lastChange = "2020-05-19 10:49:45 +0000";
layers = (
{
components = (
{
name = cedillacomb;
transform = "{1, 0, 0, 1, 276, -16}";
}
);
layerId = "452AD06C-4D92-427C-8B35-838986F56274";
paths = (
{
closed = 1;
nodes = (
"433 691 LINE",
"661 691 OFFCURVE",
"659 679 OFFCURVE",
"703 583 CURVE",
"710 586 LINE",
"666 698 OFFCURVE",
"654 743 OFFCURVE",
"644 787 CURVE",
"635 784 LINE",
"642 742 OFFCURVE",
"637 735 OFFCURVE",
"481 735 CURVE"
);
},
{
closed = 1;
nodes = (
"599 718 LINE",
"559 729 OFFCURVE",
"526 735 OFFCURVE",
"481 735 CURVE SMOOTH",
"248 735 OFFCURVE",
"49 590 OFFCURVE",
"60 333 CURVE SMOOTH",
"70 100 OFFCURVE",
"237 -29 OFFCURVE",
"447 -19 CURVE SMOOTH",
"527 -15 OFFCURVE",
"602 1 OFFCURVE",
"673 48 CURVE",
"711 184 LINE",
"705 188 LINE",
"642 58 OFFCURVE",
"547 8 OFFCURVE",
"446 2 CURVE SMOOTH",
"281 -8 OFFCURVE",
"146 124 OFFCURVE",
"136 359 CURVE SMOOTH",
"127 580 OFFCURVE",
"267 718 OFFCURVE",
"447 718 CURVE SMOOTH",
"487 718 OFFCURVE",
"522 711 OFFCURVE",
"552 698 CURVE"
);
},
{
closed = 1;
nodes = (
"384 472 OFFCURVE",
"521 384 OFFCURVE",
"503 215 CURVE",
"512 214 LINE",
"521 262 OFFCURVE",
"534 294 OFFCURVE",
"549 304 CURVE",
"534 445 OFFCURVE",
"433 522 OFFCURVE",
"433 691 CURVE",
"384 641 LINE"
);
}
);
width = 765;
}
);
leftKerningGroup = O;
rightKerningGroup = C;
},
{
glyphname = D;
lastChange = "2020-05-19 10:49:45 +0000";
layers = (
{
anchors = (
{
name = bottom;
position = "{357, 0}";
},
{
name = center;
position = "{357, 361}";
},
{
name = top;
position = "{357, 722}";
}
);
layerId = "452AD06C-4D92-427C-8B35-838986F56274";
paths = (
{
closed = 1;
nodes = (
"168 0 OFFCURVE",
"205 0 OFFCURVE",
"265 2 CURVE SMOOTH",
"553 13 OFFCURVE",
"696 190 OFFCURVE",
"696 393 CURVE SMOOTH",
"696 569 OFFCURVE",
"562 731 OFFCURVE",
"295 726 CURVE SMOOTH",
"224 725 OFFCURVE",
"132 722 OFFCURVE",
"30 722 CURVE",
"30 717 LINE",
"127 717 OFFCURVE",
"127 686 OFFCURVE",
"127 567 CURVE SMOOTH",
"127 132 LINE SMOOTH",
"127 25 OFFCURVE",
"122 22 OFFCURVE",
"95 0 CURVE"
);
},
{
closed = 1;
nodes = (
"226 703 OFFCURVE",
"251 706 OFFCURVE",
"276 706 CURVE SMOOTH",
"501 706 OFFCURVE",
"612 557 OFFCURVE",
"612 395 CURVE SMOOTH",
"612 205 OFFCURVE",
"489 38 OFFCURVE",
"247 24 CURVE SMOOTH",
"213 22 OFFCURVE",
"197 31 OFFCURVE",
"197 64 CURVE SMOOTH",
"197 699 LINE"
);
}
);
width = 753;
}
);
leftKerningGroup = D;
rightKerningGroup = O;
unicode = 0044;
},
{
glyphname = D.ss01;
lastChange = "2020-05-19 10:49:45 +0000";
layers = (
{
anchors = (
{
name = bottom;
position = "{417, 0}";
},
{
name = center;
position = "{417, 361}";
},
{
name = top;
position = "{417, 722}";
}
);
layerId = "452AD06C-4D92-427C-8B35-838986F56274";
paths = (
{
closed = 1;
nodes = (
"424 695 LINE",
"224 695 OFFCURVE",
"58 554 OFFCURVE",
"58 340 CURVE SMOOTH",
"58 132 OFFCURVE",
"209 -18 OFFCURVE",
"410 -18 CURVE SMOOTH",
"613 -18 OFFCURVE",
"774 146 OFFCURVE",
"774 369 CURVE SMOOTH",
"774 604 OFFCURVE",
"607 710 OFFCURVE",
"410 739 CURVE SMOOTH",
"267 760 OFFCURVE",
"195 747 OFFCURVE",
"195 840 CURVE",
"195 869 LINE",
"188 869 LINE",
"188 720 LINE",
"195 720 LINE SMOOTH",
"289 720 OFFCURVE",
"332 720 OFFCURVE",
"400 708 CURVE SMOOTH",
"592 674 OFFCURVE",
"705 568 OFFCURVE",
"705 354 CURVE SMOOTH",
"705 145 OFFCURVE",
"576 9 OFFCURVE",
"420 9 CURVE SMOOTH",
"252 9 OFFCURVE",
"127 156 OFFCURVE",
"127 343 CURVE SMOOTH",
"127 539 OFFCURVE",
"268 690 OFFCURVE",
"449 690 CURVE"
);
}
);
width = 833;
}
);
leftKerningGroup = O;
rightKerningGroup = O;
},
{
glyphname = Eth;
lastChange = "2020-05-19 10:49:45 +0000";
layers = (
{
layerId = "452AD06C-4D92-427C-8B35-838986F56274";
paths = (
{
closed = 1;
nodes = (
"273 725 OFFCURVE",
"181 722 OFFCURVE",
"79 722 CURVE",
"79 717 LINE",
"176 717 OFFCURVE",
"176 686 OFFCURVE",
"176 567 CURVE SMOOTH",
"176 411 LINE",
"172 412 OFFCURVE",
"167 412 OFFCURVE",
"163 412 CURVE SMOOTH",
"114 412 OFFCURVE",
"66 389 OFFCURVE",
"35 336 CURVE",
"42 331 LINE",
"63 361 OFFCURVE",
"88 372 OFFCURVE",
"113 372 CURVE SMOOTH",
"134 372 OFFCURVE",
"156 365 OFFCURVE",
"176 354 CURVE",
"176 132 LINE SMOOTH",
"176 25 OFFCURVE",
"171 22 OFFCURVE",
"144 0 CURVE",
"217 0 OFFCURVE",
"254 0 OFFCURVE",
"314 2 CURVE SMOOTH",
"602 13 OFFCURVE",
"745 190 OFFCURVE",
"745 393 CURVE SMOOTH",
"745 569 OFFCURVE",
"611 731 OFFCURVE",
"344 726 CURVE SMOOTH"
);
},
{
closed = 1;
nodes = (
"262 22 OFFCURVE",
"246 31 OFFCURVE",
"246 64 CURVE SMOOTH",
"246 323 LINE",
"254 322 OFFCURVE",
"262 321 OFFCURVE",
"270 321 CURVE SMOOTH",
"332 321 OFFCURVE",
"384 366 OFFCURVE",
"403 402 CURVE",
"397 408 LINE",
"373 373 OFFCURVE",
"347 361 OFFCURVE",
"323 361 CURVE SMOOTH",
"298 361 OFFCURVE",
"274 373 OFFCURVE",
"252 386 CURVE",
"246 389 LINE",
"246 696 LINE",
"275 700 OFFCURVE",
"300 703 OFFCURVE",
"325 703 CURVE SMOOTH",
"550 703 OFFCURVE",
"661 557 OFFCURVE",
"661 395 CURVE SMOOTH",
"661 205 OFFCURVE",
"538 38 OFFCURVE",
"296 24 CURVE SMOOTH"
);
}
);
width = 802;
}
);
rightKerningGroup = O;
unicode = 00D0;
},
{
glyphname = E;
lastChange = "2020-05-19 10:49:45 +0000";
layers = (
{
anchors = (
{
name = bottom;
position = "{295, 0}";
},
{
name = ogonek;
position = "{531, 10}";
},
{
name = top;
position = "{295, 722}";
},
{
name = topleft;
position = "{20, 722}";
}
);
layerId = "452AD06C-4D92-427C-8B35-838986F56274";
paths = (
{
closed = 1;
nodes = (
"478 46 OFFCURVE",
"383 26 OFFCURVE",
"227 26 CURVE SMOOTH",
"193 25 OFFCURVE",
"184 36 OFFCURVE",
"184 72 CURVE SMOOTH",
"184 417 LINE",
"328 417 LINE SMOOTH",
"407 417 OFFCURVE",
"447 408 OFFCURVE",
"480 365 CURVE",
"480 485 LINE",
"447 453 OFFCURVE",
"407 433 OFFCURVE",
"328 433 CURVE SMOOTH",
"184 433 LINE",
"184 704 LINE",
"287 704 LINE SMOOTH",
"395 704 OFFCURVE",
"427 690 OFFCURVE",
"486 587 CURVE",
"493 590 LINE",
"454 722 LINE",
"30 722 LINE",
"30 717 LINE",
"117 717 OFFCURVE",
"114 697 OFFCURVE",
"114 577 CURVE SMOOTH",
"114 66 LINE SMOOTH",
"114 42 OFFCURVE",
"110 20 OFFCURVE",
"104 0 CURVE",
"496 0 LINE",
"545 159 LINE",
"537 163 LINE"
);
}
);
width = 590;
}
);
leftKerningGroup = D;
rightKerningGroup = E;
unicode = 0045;
},
{
glyphname = E.ss01;
lastChange = "2020-05-19 10:49:45 +0000";
layers = (
{
anchors = (
{
name = bottom;
position = "{387, 0}";
},
{
name = ogonek;
position = "{700, 10}";
},
{
name = top;
position = "{387, 722}";
},
{
name = topleft;
position = "{15, 722}";
}
);
layerId = "452AD06C-4D92-427C-8B35-838986F56274";
paths = (
{
closed = 1;
nodes = (
"704 195 LINE",
"630 68 OFFCURVE",
"517 13 OFFCURVE",
"413 13 CURVE SMOOTH",
"263 13 OFFCURVE",
"137 127 OFFCURVE",
"137 333 CURVE SMOOTH",
"137 562 OFFCURVE",
"282 718 OFFCURVE",
"443 718 CURVE SMOOTH",
"566 718 OFFCURVE",
"643 651 OFFCURVE",
"674 550 CURVE",
"683 551 LINE",
"671 690 LINE",
"602 720 OFFCURVE",
"543 735 OFFCURVE",
"470 735 CURVE SMOOTH",
"243 735 OFFCURVE",
"60 596 OFFCURVE",
"60 348 CURVE SMOOTH",
"60 131 OFFCURVE",
"209 -17 OFFCURVE",
"411 -17 CURVE SMOOTH",
"501 -17 OFFCURVE",
"599 -5 OFFCURVE",
"679 48 CURVE",
"710 190 LINE"
);
},
{
closed = 1;
nodes = (
"125 417 LINE",
"540 417 LINE SMOOTH",
"619 417 OFFCURVE",
"659 408 OFFCURVE",
"692 365 CURVE",
"692 485 LINE",
"659 453 OFFCURVE",
"619 433 OFFCURVE",
"540 433 CURVE SMOOTH",
"125 433 LINE"
);
}
);
width = 777;
}
);
leftKerningGroup = O;
rightKerningGroup = C;
},
{
glyphname = F;
lastChange = "2020-05-19 10:49:45 +0000";
layers = (
{
anchors = (
{
name = bottom;
position = "{274, 0}";
},
{
name = top;
position = "{274, 722}";
}
);
layerId = "452AD06C-4D92-427C-8B35-838986F56274";
paths = (
{
closed = 1;
nodes = (
"102 -86 OFFCURVE",
"141 0 OFFCURVE",
"184 0 CURVE",
"184 417 LINE",
"328 417 LINE SMOOTH",
"407 417 OFFCURVE",
"447 408 OFFCURVE",
"480 365 CURVE",
"480 485 LINE",
"447 453 OFFCURVE",
"407 433 OFFCURVE",
"328 433 CURVE SMOOTH",
"184 433 LINE",
"184 704 LINE",
"287 704 LINE SMOOTH",
"395 704 OFFCURVE",
"432 682 OFFCURVE",
"486 587 CURVE",
"493 590 LINE",
"454 722 LINE",
"30 722 LINE",
"30 717 LINE",
"117 717 OFFCURVE",
"114 697 OFFCURVE",
"114 577 CURVE SMOOTH",
"114 10 LINE SMOOTH",
"114 -31 OFFCURVE",
"106 -61 OFFCURVE",
"66 -130 CURVE",
"71 -132 LINE"
);
}
);
width = 548;
}
);
leftKerningGroup = D;
rightKerningGroup = E;
unicode = 0046;
},
{
glyphname = F.ss01;
lastChange = "2020-05-19 10:49:45 +0000";
layers = (
{
anchors = (
{
name = bottom;
position = "{268, 0}";
},
{
name = top;
position = "{268, 722}";
}
);
layerId = "452AD06C-4D92-427C-8B35-838986F56274";
paths = (
{
closed = 1;
nodes = (
"175 415 LINE",
"224 415 LINE SMOOTH",
"327 415 OFFCURVE",
"381 411 OFFCURVE",
"381 374 CURVE SMOOTH",
"381 351 OFFCURVE",
"364 321 OFFCURVE",
"331 276 CURVE",
"337 272 LINE",
"459 431 LINE",
"175 431 LINE"
);
},
{
closed = 1;
nodes = (
"102 -86 OFFCURVE",
"141 0 OFFCURVE",
"184 0 CURVE",
"184 704 LINE",
"287 704 LINE SMOOTH",
"395 704 OFFCURVE",
"425 690 OFFCURVE",
"486 587 CURVE",
"493 590 LINE",
"454 722 LINE",
"30 722 LINE",
"30 717 LINE",
"117 717 OFFCURVE",
"114 697 OFFCURVE",
"114 577 CURVE SMOOTH",
"114 10 LINE SMOOTH",
"114 -31 OFFCURVE",
"106 -61 OFFCURVE",
"66 -130 CURVE",
"71 -132 LINE"
);
}
);
width = 535;
}
);
leftKerningGroup = D;
rightKerningGroup = E;
},
{
glyphname = G;
lastChange = "2020-05-19 10:49:45 +0000";
layers = (
{
anchors = (
{
name = bottom;
position = "{393, 0}";
},
{
name = top;
position = "{393, 722}";
}
);
guideLines = (
{
angle = -49.5599;
position = "{695, 354}";
}
);
layerId = "452AD06C-4D92-427C-8B35-838986F56274";
paths = (
{
closed = 1;
nodes = (
"538 438 LINE",
"630 438 OFFCURVE",
"637 427 OFFCURVE",
"637 329 CURVE SMOOTH",
"637 128 LINE SMOOTH",
"637 80 OFFCURVE",
"564 13 OFFCURVE",
"429 13 CURVE SMOOTH",
"417 13 LINE SMOOTH",
"267 14 OFFCURVE",
"142 128 OFFCURVE",
"142 333 CURVE SMOOTH",
"142 538 OFFCURVE",
"248 717 OFFCURVE",
"434 717 CURVE SMOOTH",
"536 717 OFFCURVE",
"634 658 OFFCURVE",
"667 550 CURVE",
"676 551 LINE",
"664 690 LINE",
"597 719 OFFCURVE",
"523 735 OFFCURVE",
"449 735 CURVE SMOOTH",
"221 735 OFFCURVE",
"60 583 OFFCURVE",
"60 348 CURVE SMOOTH",
"60 131 OFFCURVE",
"214 -17 OFFCURVE",
"416 -17 CURVE SMOOTH",
"417 -17 LINE SMOOTH",
"555 -17 OFFCURVE",
"630 31 OFFCURVE",
"706 100 CURVE",
"706 444 LINE",
"538 444 LINE"
);
}
);
width = 785;
}
);
leftKerningGroup = O;
rightKerningGroup = I;
unicode = 0047;
},
{
glyphname = G.ss01;
lastChange = "2020-05-19 10:49:45 +0000";
layers = (
{
anchors = (
{
name = bottom;
position = "{387, 0}";
},
{
name = top;
position = "{387, 722}";
}
);
layerId = "452AD06C-4D92-427C-8B35-838986F56274";
paths = (
{
closed = 1;
nodes = (
"632 390 LINE",
"632 148 LINE SMOOTH",
"632 100 OFFCURVE",
"559 13 OFFCURVE",
"424 13 CURVE SMOOTH",
"412 13 LINE SMOOTH",
"262 14 OFFCURVE",
"137 128 OFFCURVE",
"137 333 CURVE SMOOTH",
"137 562 OFFCURVE",
"262 718 OFFCURVE",
"423 718 CURVE SMOOTH",
"546 718 OFFCURVE",
"643 651 OFFCURVE",
"674 550 CURVE",
"683 551 LINE",
"671 690 LINE",
"602 720 OFFCURVE",
"523 735 OFFCURVE",
"450 735 CURVE SMOOTH",
"223 735 OFFCURVE",
"60 596 OFFCURVE",
"60 348 CURVE SMOOTH",
"60 131 OFFCURVE",
"209 -17 OFFCURVE",
"411 -17 CURVE SMOOTH",
"412 -17 LINE SMOOTH",
"510 -17 OFFCURVE",
"597 17 OFFCURVE",
"634 66 CURVE",
"634 56 LINE SMOOTH",
"634 -49 OFFCURVE",
"596 -88 OFFCURVE",
"519 -230 CURVE",
"527 -234 LINE",
"596 -126 OFFCURVE",
"668 -47 OFFCURVE",
"711 -33 CURVE",
"703 -9 OFFCURVE",
"701 21 OFFCURVE",
"701 90 CURVE SMOOTH",
"701 336 LINE",
"632 415 LINE"
);
}
);
width = 781;
}
);
leftKerningGroup = O;
rightKerningGroup = I;
},
{
glyphname = Gcommaaccent;
lastChange = "2020-05-19 10:49:45 +0000";
layers = (
{
anchors = (
{
name = bottom;
position = "{424.5, -202}";
},
{
name = top;
position = "{393, 722}";
}
);
layerId = "452AD06C-4D92-427C-8B35-838986F56274";
paths = (
{
closed = 1;
nodes = (
"538 444 LINE",
"538 438 LINE",
"630 438 OFFCURVE",
"637 427 OFFCURVE",
"637 329 CURVE SMOOTH",
"637 128 LINE SMOOTH",
"637 80 OFFCURVE",
"564 13 OFFCURVE",
"429 13 CURVE SMOOTH",
"417 13 LINE SMOOTH",
"267 14 OFFCURVE",
"142 128 OFFCURVE",
"142 333 CURVE SMOOTH",
"142 538 OFFCURVE",
"248 717 OFFCURVE",
"434 717 CURVE SMOOTH",
"536 717 OFFCURVE",
"634 658 OFFCURVE",
"667 550 CURVE",
"676 551 LINE",
"664 690 LINE",
"597 719 OFFCURVE",
"523 735 OFFCURVE",
"449 735 CURVE SMOOTH",
"221 735 OFFCURVE",
"60 583 OFFCURVE",
"60 348 CURVE SMOOTH",
"60 148 OFFCURVE",
"190 7 OFFCURVE",
"369 -14 CURVE SMOOTH",
"397 -17 OFFCURVE",
"412 -54 OFFCURVE",
"412 -95 CURVE SMOOTH",
"412 -132 OFFCURVE",
"400 -173 OFFCURVE",
"376 -197 CURVE",
"381 -202 LINE",
"435 -173 OFFCURVE",
"473 -108 OFFCURVE",
"473 -55 CURVE SMOOTH",
"473 -41 OFFCURVE",
"470 -26 OFFCURVE",
"464 -15 CURVE",
"573 -5 OFFCURVE",
"639 39 OFFCURVE",
"706 100 CURVE",
"706 444 LINE"
);
}
);
width = 785;
}
);
leftKerningGroup = O;
rightKerningGroup = I;
unicode = 0122;
},
{
glyphname = H;
lastChange = "2020-05-19 10:49:45 +0000";
layers = (
{
anchors = (
{
name = bottom;
position = "{351, 0}";
},
{
name = center;
position = "{351, 361}";
},
{
name = top;
position = "{351, 722}";
},
{
name = topleft;
position = "{25, 722}";
}
);
layerId = "452AD06C-4D92-427C-8B35-838986F56274";
paths = (
{
closed = 1;
nodes = (
"198 0 LINE",
"185 27 OFFCURVE",
"182 46 OFFCURVE",
"182 89 CURVE",
"182 722 LINE",
"30 722 LINE",
"30 717 LINE",
"122 717 OFFCURVE",
"112 696 OFFCURVE",
"112 582 CURVE SMOOTH",
"112 89 LINE",
"112 44 OFFCURVE",
"108 27 OFFCURVE",
"93 0 CURVE"
);
},
{
closed = 1;
nodes = (
"664 0 LINE",
"651 27 OFFCURVE",
"648 46 OFFCURVE",
"648 89 CURVE",
"648 722 LINE",
"497 722 LINE",
"497 717 LINE",
"589 717 OFFCURVE",
"579 696 OFFCURVE",
"579 582 CURVE SMOOTH",
"579 89 LINE",
"579 44 OFFCURVE",
"575 27 OFFCURVE",
"560 0 CURVE"
);
},
{
closed = 1;
nodes = (
"165 416 LINE",
"592 416 LINE",
"592 440 LINE",
"165 440 LINE"
);
}
);
width = 751;
}
);
leftKerningGroup = D;
rightKerningGroup = I;
unicode = 0048;
},
{
glyphname = H.ss01;
lastChange = "2020-05-19 10:49:45 +0000";
layers = (
{
anchors = (
{
name = bottom;
position = "{319, 0}";
},
{
name = center;
position = "{319, 361}";
},
{
name = top;
position = "{319, 722}";
},
{
name = topleft;
position = "{13, 722}";
}
);
layerId = "452AD06C-4D92-427C-8B35-838986F56274";
paths = (
{
closed = 1;
nodes = (
"601 558 OFFCURVE",
"516 634 OFFCURVE",
"413 634 CURVE SMOOTH",
"331 634 OFFCURVE",
"243 585 OFFCURVE",
"174 484 CURVE",
"174 722 LINE",
"129 731 OFFCURVE",
"82 757 OFFCURVE",
"20 801 CURVE",
"14 796 LINE",
"99 717 OFFCURVE",
"104 698 OFFCURVE",
"104 585 CURVE SMOOTH",
"104 89 LINE SMOOTH",
"104 45 OFFCURVE",
"100 28 OFFCURVE",
"87 0 CURVE",
"188 0 LINE",
"176 28 OFFCURVE",
"174 45 OFFCURVE",
"174 89 CURVE SMOOTH",
"174 443 LINE",
"233 537 OFFCURVE",
"309 583 OFFCURVE",
"374 583 CURVE SMOOTH",
"461 583 OFFCURVE",
"526 513 OFFCURVE",
"526 365 CURVE SMOOTH",
"526 220 OFFCURVE",
"469 100 OFFCURVE",
"354 -46 CURVE",
"360 -52 LINE",
"518 106 OFFCURVE",
"601 238 OFFCURVE",
"601 405 CURVE SMOOTH"
);
}
);
width = 659;
}
);
leftKerningGroup = D;
rightKerningGroup = O;
},
{
glyphname = Hbar;
lastChange = "2020-05-19 10:49:45 +0000";
layers = (
{
layerId = "452AD06C-4D92-427C-8B35-838986F56274";
paths = (
{
closed = 1;
nodes = (
"660 563 LINE SMOOTH",
"692 563 OFFCURVE",
"707 560 OFFCURVE",
"728 548 CURVE",
"735 553 LINE",
"710 590 LINE",
"656 590 LINE",
"656 722 LINE",
"509 722 LINE",
"509 717 LINE",
"599 717 OFFCURVE",
"591 697 OFFCURVE",
"591 590 CURVE",
"194 590 LINE",
"194 722 LINE",
"47 722 LINE",
"47 717 LINE",
"137 717 OFFCURVE",
"129 697 OFFCURVE",
"129 590 CURVE",
"63 590 LINE",
"38 553 LINE",
"45 548 LINE",
"66 560 OFFCURVE",
"81 563 OFFCURVE",
"113 563 CURVE SMOOTH",
"129 563 LINE",
"129 89 LINE SMOOTH",
"129 44 OFFCURVE",
"125 27 OFFCURVE",
"110 0 CURVE",
"210 0 LINE",
"197 27 OFFCURVE",
"194 46 OFFCURVE",
"194 89 CURVE SMOOTH",
"194 415 LINE",
"591 415 LINE",
"591 89 LINE SMOOTH",
"591 44 OFFCURVE",
"587 27 OFFCURVE",
"572 0 CURVE",
"672 0 LINE",
"659 27 OFFCURVE",
"656 46 OFFCURVE",
"656 89 CURVE SMOOTH",
"656 563 LINE"
);
},
{
closed = 1;
nodes = (
"194 442 LINE",
"194 563 LINE",
"591 563 LINE",
"591 442 LINE"
);
}
);
width = 770;
}
);
leftKerningGroup = D;
rightKerningGroup = I;
unicode = 0126;
},
{
glyphname = I;
lastChange = "2020-05-19 10:49:45 +0000";
layers = (
{
anchors = (
{
name = bottom;
position = "{140, 0}";
},
{
name = ogonek;
position = "{252, 10}";
},
{
name = top;
position = "{140, 722}";
},
{
name = topleft;
position = "{20, 722}";
}
);
layerId = "452AD06C-4D92-427C-8B35-838986F56274";
paths = (
{
closed = 1;
nodes = (
"198 0 LINE",
"185 27 OFFCURVE",
"182 46 OFFCURVE",
"182 89 CURVE",
"182 722 LINE",
"30 722 LINE",
"30 717 LINE",
"113 714 OFFCURVE",
"112 696 OFFCURVE",
"112 582 CURVE SMOOTH",
"112 89 LINE",
"112 44 OFFCURVE",
"108 27 OFFCURVE",
"93 0 CURVE"
);
}
);
width = 285;
}
);
leftKerningGroup = D;
rightKerningGroup = I;
unicode = 0049;
},
{
glyphname = J;
lastChange = "2020-05-19 10:49:45 +0000";
layers = (
{
anchors = (
{
name = bottom;
position = "{139, 0}";
},
{
name = top;
position = "{139, 722}";
}
);
layerId = "452AD06C-4D92-427C-8B35-838986F56274";
paths = (
{
closed = 1;
nodes = (
"31 717 LINE",
"113 712 OFFCURVE",
"113 696 OFFCURVE",
"113 582 CURVE SMOOTH",
"113 146 LINE SMOOTH",
"113 -22 OFFCURVE",
"93 -98 OFFCURVE",
"-45 -161 CURVE",
"-41 -169 LINE",
"70 -119 OFFCURVE",
"183 -63 OFFCURVE",
"183 146 CURVE SMOOTH",
"183 722 LINE",
"31 722 LINE"
);
}
);
width = 282;
}
);
leftKerningGroup = D;
rightKerningGroup = I;
unicode = 004A;
},
{
glyphname = J.ss01;
lastChange = "2020-05-19 10:49:45 +0000";
layers = (
{
anchors = (
{
name = bottom;
position = "{161, 0}";
},
{
name = top;
position = "{161, 722}";
}
);
layerId = "452AD06C-4D92-427C-8B35-838986F56274";
paths = (
{
closed = 1;
nodes = (
"-198 -353 LINE",
"16 -278 OFFCURVE",
"222 -174 OFFCURVE",
"222 164 CURVE SMOOTH",
"222 646 LINE SMOOTH",
"222 676 OFFCURVE",
"224 697 OFFCURVE",
"228 722 CURVE",
"30 722 LINE",
"30 718 LINE",
"150 718 OFFCURVE",
"142 693 OFFCURVE",
"142 582 CURVE SMOOTH",
"142 335 OFFCURVE",
"142 410 OFFCURVE",
"142 164 CURVE SMOOTH",
"142 -126 OFFCURVE",
"47 -253 OFFCURVE",
"-201 -344 CURVE"
);
}
);
width = 322;
}
);
leftKerningGroup = D;
rightKerningGroup = I;
},
{
glyphname = K;
lastChange = "2020-05-19 10:49:45 +0000";
layers = (
{
anchors = (
{
name = bottom;
position = "{318, 0}";
},
{
name = top;
position = "{318, 722}";
}
);
layerId = "452AD06C-4D92-427C-8B35-838986F56274";
paths = (
{
closed = 1;
nodes = (
"198 0 LINE",
"185 27 OFFCURVE",
"182 46 OFFCURVE",
"182 89 CURVE",
"182 722 LINE",
"30 722 LINE",
"30 717 LINE",
"122 717 OFFCURVE",
"112 696 OFFCURVE",
"112 582 CURVE SMOOTH",
"112 89 LINE",
"112 44 OFFCURVE",
"108 27 OFFCURVE",
"93 0 CURVE"
);
},
{
closed = 1;
nodes = (
"440 722 LINE",
"421 687 OFFCURVE",
"303 552 OFFCURVE",
"180 407 CURVE",
"180 376 LINE",
"202 379 OFFCURVE",
"229 381 OFFCURVE",
"246 381 CURVE SMOOTH",
"367 381 OFFCURVE",
"421 283 OFFCURVE",
"473 138 CURVE SMOOTH",
"517 15 OFFCURVE",
"547 -58 OFFCURVE",
"696 -127 CURVE",
"698 -120 LINE",
"581 -77 OFFCURVE",
"567 96 OFFCURVE",
"514 229 CURVE SMOOTH",
"475 326 OFFCURVE",
"421 411 OFFCURVE",
"231 397 CURVE",
"347 536 OFFCURVE",
"377 572 OFFCURVE",
"440 646 CURVE SMOOTH",
"487 701 OFFCURVE",
"510 714 OFFCURVE",
"582 717 CURVE",
"582 722 LINE"
);
}
);
width = 630;
}
);
leftKerningGroup = D;
rightKerningGroup = K;
unicode = 004B;
},
{
glyphname = K.ss01;
lastChange = "2020-05-19 10:49:45 +0000";
layers = (
{
anchors = (
{
name = bottom;
position = "{320, 0}";
},
{
name = top;
position = "{320, 722}";
}
);
layerId = "452AD06C-4D92-427C-8B35-838986F56274";
paths = (
{
closed = 1;
nodes = (
"470 339 OFFCURVE",
"425 427 OFFCURVE",
"333 452 CURVE",
"383 468 OFFCURVE",
"425 506 OFFCURVE",
"453 555 CURVE SMOOTH",
"483 607 OFFCURVE",
"493 661 OFFCURVE",
"487 722 CURVE",
"449 719 OFFCURVE",
"395 757 OFFCURVE",
"333 801 CURVE",
"327 796 LINE",
"386 745 OFFCURVE",
"417 707 OFFCURVE",
"417 626 CURVE SMOOTH",
"417 551 OFFCURVE",
"375 460 OFFCURVE",
"275 460 CURVE SMOOTH",
"247 460 OFFCURVE",
"217 455 OFFCURVE",
"182 446 CURVE",
"182 722 LINE",
"30 722 LINE",
"30 717 LINE",
"122 717 OFFCURVE",
"112 696 OFFCURVE",
"112 582 CURVE SMOOTH",
"112 89 LINE SMOOTH",
"112 44 OFFCURVE",
"108 27 OFFCURVE",
"93 0 CURVE",
"198 0 LINE",
"185 27 OFFCURVE",
"182 46 OFFCURVE",
"182 89 CURVE SMOOTH",
"182 428 LINE",
"208 435 OFFCURVE",
"232 438 OFFCURVE",
"252 438 CURVE SMOOTH",
"383 438 OFFCURVE",
"414 301 OFFCURVE",
"473 138 CURVE SMOOTH",
"517 15 OFFCURVE",
"547 -58 OFFCURVE",
"696 -127 CURVE",
"698 -120 LINE",
"581 -77 OFFCURVE",
"567 96 OFFCURVE",
"514 229 CURVE SMOOTH"
);
}
);
width = 627;
}
);
leftKerningGroup = D;
rightKerningGroup = K;
},
{
glyphname = Kcommaaccent;
lastChange = "2020-05-19 10:49:45 +0000";
layers = (
{
anchors = (
{
name = bottom;
position = "{149.5, -178}";
},
{
name = top;
position = "{313, 722}";
}
);
layerId = "452AD06C-4D92-427C-8B35-838986F56274";
paths = (
{
closed = 1;
nodes = (
"470 318 OFFCURVE",
"419 408 OFFCURVE",
"246 415 CURVE",
"332 519 OFFCURVE",
"380 572 OFFCURVE",
"442 647 CURVE SMOOTH",
"487 702 OFFCURVE",
"512 714 OFFCURVE",
"584 717 CURVE",
"584 722 LINE",
"442 722 LINE",
"349 606 OFFCURVE",
"302 553 OFFCURVE",
"177 409 CURVE",
"177 722 LINE",
"30 722 LINE",
"30 717 LINE",
"122 717 OFFCURVE",
"112 696 OFFCURVE",
"112 582 CURVE SMOOTH",
"112 89 LINE SMOOTH",
"112 28 OFFCURVE",
"121 -56 OFFCURVE",
"121 -85 CURVE SMOOTH",
"121 -145 OFFCURVE",
"108 -152 OFFCURVE",
"87 -173 CURVE",
"92 -178 LINE",
"146 -149 OFFCURVE",
"177 -79 OFFCURVE",
"177 -26 CURVE SMOOTH",
"177 376 LINE",
"196 380 OFFCURVE",
"222 382 OFFCURVE",
"238 382 CURVE SMOOTH",
"359 382 OFFCURVE",
"416 283 OFFCURVE",
"468 138 CURVE SMOOTH",
"512 15 OFFCURVE",
"542 -58 OFFCURVE",
"691 -127 CURVE",
"693 -120 LINE",
"576 -77 OFFCURVE",
"562 88 OFFCURVE",
"509 221 CURVE SMOOTH"
);
}
);
width = 625;
}
);
leftKerningGroup = D;
rightKerningGroup = K;
unicode = 0136;
},
{
glyphname = L;
lastChange = "2020-05-19 10:49:45 +0000";
layers = (
{
anchors = (
{
name = bottom;
position = "{296, 0}";
},
{
name = center;
position = "{296, 361}";
},
{
name = top;
position = "{296, 722}";
},
{
name = topright;
position = "{572, 722}";
}
);
layerId = "452AD06C-4D92-427C-8B35-838986F56274";
paths = (
{
closed = 1;
nodes = (
"543 163 LINE",
"480 49 OFFCURVE",
"431 22 OFFCURVE",
"190 20 CURVE",
"190 722 LINE",
"30 722 LINE",
"30 717 LINE",
"117 717 OFFCURVE",
"120 697 OFFCURVE",
"120 577 CURVE SMOOTH",
"120 105 LINE SMOOTH",
"120 71 OFFCURVE",
"118 28 OFFCURVE",
"106 0 CURVE",
"190 0 LINE SMOOTH",
"387 0 OFFCURVE",
"440 0 OFFCURVE",
"506 0 CURVE",
"551 159 LINE"
);
}
);
width = 592;
}
);
leftKerningGroup = D;
rightKerningGroup = L;
unicode = 004C;
},
{
glyphname = Lcommaaccent;
lastChange = "2020-05-19 10:49:45 +0000";
layers = (
{
anchors = (
{
name = bottom;
position = "{295.5, -180}";
},
{
name = center;
position = "{296, 361}";
},
{
name = top;
position = "{296, 722}";
},
{
name = topright;
position = "{572, 722}";
}
);
layerId = "452AD06C-4D92-427C-8B35-838986F56274";
paths = (
{
closed = 1;
nodes = (
"543 163 LINE",
"480 49 OFFCURVE",
"431 32 OFFCURVE",
"190 30 CURVE",
"190 722 LINE",
"30 722 LINE",
"30 717 LINE",
"117 717 OFFCURVE",
"120 697 OFFCURVE",
"120 577 CURVE SMOOTH",
"120 105 LINE SMOOTH",
"120 71 OFFCURVE",
"118 28 OFFCURVE",
"106 0 CURVE",
"190 0 LINE",
"243 0 LINE",
"269 0 OFFCURVE",
"281 -33 OFFCURVE",
"281 -72 CURVE SMOOTH",
"281 -110 OFFCURVE",
"270 -152 OFFCURVE",
"247 -175 CURVE",
"252 -180 LINE",
"306 -151 OFFCURVE",
"344 -86 OFFCURVE",
"344 -33 CURVE SMOOTH",
"344 -21 OFFCURVE",
"346 0 OFFCURVE",
"366 0 CURVE",
"506 0 LINE",
"551 159 LINE"
);
}
);
width = 592;
}
);
leftKerningGroup = D;
rightKerningGroup = L;
unicode = 013B;
},
{
glyphname = Lslash;
lastChange = "2020-05-19 10:49:45 +0000";
layers = (
{
components = (
{
name = L;
transform = "{1, 0, 0, 1, 59, 0}";
}
);
layerId = "452AD06C-4D92-427C-8B35-838986F56274";
paths = (
{
closed = 1;
nodes = (
"373 379 OFFCURVE",
"347 367 OFFCURVE",
"323 367 CURVE SMOOTH",
"298 367 OFFCURVE",
"274 379 OFFCURVE",
"252 392 CURVE SMOOTH",
"225 408 OFFCURVE",
"193 418 OFFCURVE",
"163 418 CURVE SMOOTH",
"114 418 OFFCURVE",
"66 395 OFFCURVE",
"35 342 CURVE",
"42 337 LINE",
"63 367 OFFCURVE",
"88 378 OFFCURVE",
"113 378 CURVE SMOOTH",
"141 378 OFFCURVE",
"170 365 OFFCURVE",
"195 349 CURVE SMOOTH",
"221 333 OFFCURVE",
"246 327 OFFCURVE",
"270 327 CURVE SMOOTH",
"332 327 OFFCURVE",
"384 372 OFFCURVE",
"403 408 CURVE",
"397 414 LINE"
);
}
);
width = 651;
}
);
rightKerningGroup = L;
unicode = 0141;
},
{
glyphname = M;
lastChange = "2020-05-19 10:49:45 +0000";
layers = (
{
anchors = (
{
name = bottom;
position = "{465, 0}";
},
{
name = top;
position = "{465, 722}";
}
);
layerId = "452AD06C-4D92-427C-8B35-838986F56274";
paths = (
{
closed = 1;
nodes = (
"469 120 LINE",
"225 722 LINE",
"37 722 LINE",
"37 717 LINE",
"107 717 OFFCURVE",
"138 711 OFFCURVE",
"164 666 CURVE",
"93 110 LINE SMOOTH",
"86 54 OFFCURVE",
"72 26 OFFCURVE",
"55 0 CURVE",
"138 0 LINE",
"117 32 OFFCURVE",
"111 54 OFFCURVE",
"119 110 CURVE SMOOTH",
"188 624 LINE",
"444 -10 LINE"
);
},
{
closed = 1;
nodes = (
"685 590 LINE",
"768 108 LINE SMOOTH",
"778 54 OFFCURVE",
"772 36 OFFCURVE",
"758 0 CURVE",
"882 0 LINE",
"865 26 OFFCURVE",
"847 55 OFFCURVE",
"838 110 CURVE SMOOTH",
"749 642 LINE SMOOTH",
"737 716 OFFCURVE",
"798 717 OFFCURVE",
"868 717 CURVE",
"868 722 LINE",
"713 722 LINE",
"447 67 LINE",
"444 -10 LINE"
);
}
);
width = 923;
}
);
leftKerningGroup = D;
rightKerningGroup = A;
unicode = 004D;
},
{
glyphname = M.ss01;
lastChange = "2020-05-19 10:49:45 +0000";
layers = (
{
anchors = (
{
name = bottom;
position = "{659, 0}";
},
{
name = top;
position = "{659, 722}";
}
);
layerId = "452AD06C-4D92-427C-8B35-838986F56274";
paths = (
{
closed = 1;
nodes = (
"802 32 LINE",
"848 5 OFFCURVE",
"905 -11 OFFCURVE",
"953 -11 CURVE SMOOTH",
"1106 -11 OFFCURVE",
"1267 104 OFFCURVE",
"1267 365 CURVE SMOOTH",
"1267 572 OFFCURVE",
"1114 717 OFFCURVE",
"936 720 CURVE SMOOTH",
"822 722 OFFCURVE",
"707 665 OFFCURVE",
"661 567 CURVE",
"629 665 OFFCURVE",
"545 726 OFFCURVE",
"414 725 CURVE SMOOTH",
"209 723 OFFCURVE",
"60 542 OFFCURVE",
"60 347 CURVE SMOOTH",
"60 182 OFFCURVE",
"145 -1 OFFCURVE",
"349 -1 CURVE SMOOTH",
"390 -1 OFFCURVE",
"432 9 OFFCURVE",
"472 31 CURVE",
"469 35 LINE",
"439 24 OFFCURVE",
"409 19 OFFCURVE",
"381 19 CURVE SMOOTH",
"219 19 OFFCURVE",
"144 190 OFFCURVE",
"144 351 CURVE SMOOTH",
"144 532 OFFCURVE",
"240 704 OFFCURVE",
"417 704 CURVE SMOOTH",
"520 704 OFFCURVE",
"622 628 OFFCURVE",
"622 468 CURVE SMOOTH",
"622 93 LINE",
"622 36 OFFCURVE",
"621 25 OFFCURVE",
"612 0 CURVE",
"702 0 LINE",
"692 24 OFFCURVE",
"692 40 OFFCURVE",
"692 95 CURVE",
"692 499 LINE SMOOTH",
"692 607 OFFCURVE",
"793 692 OFFCURVE",
"910 692 CURVE SMOOTH",
"1072 692 OFFCURVE",
"1187 531 OFFCURVE",
"1187 355 CURVE SMOOTH",
"1187 158 OFFCURVE",
"1075 15 OFFCURVE",
"935 15 CURVE SMOOTH",
"886 15 OFFCURVE",
"849 21 OFFCURVE",
"806 38 CURVE"
);
}
);
width = 1328;
}
);
leftKerningGroup = O;
rightKerningGroup = O;
},
{
glyphname = N;
lastChange = "2020-05-19 10:49:45 +0000";
layers = (
{
anchors = (
{
name = bottom;
position = "{415, 0}";
},
{
name = top;
position = "{415, 722}";
}
);
layerId = "452AD06C-4D92-427C-8B35-838986F56274";
paths = (
{
closed = 1;
nodes = (
"729 722 LINE",
"605 722 LINE",
"605 717 LINE",
"685 717 OFFCURVE",
"705 701 OFFCURVE",
"705 590 CURVE SMOOTH",
"705 114 LINE",
"197 722 LINE",
"30 722 LINE",
"30 717 LINE",
"100 717 OFFCURVE",
"118 705 OFFCURVE",
"156 660 CURVE",
"156 110 LINE SMOOTH",
"156 54 OFFCURVE",
"145 26 OFFCURVE",
"128 0 CURVE",
"211 0 LINE",
"190 32 OFFCURVE",
"182 54 OFFCURVE",
"182 110 CURVE SMOOTH",
"182 629 LINE",
"729 -26 LINE"
);
}
);
width = 829;
}
);
leftKerningGroup = D;
rightKerningGroup = I;
unicode = 004E;
},
{
glyphname = N.ss01;
lastChange = "2020-05-19 10:49:45 +0000";
layers = (
{
anchors = (
{
name = bottom;
position = "{393, 0}";
},
{
name = top;
position = "{393, 722}";
}
);
layerId = "452AD06C-4D92-427C-8B35-838986F56274";
paths = (
{
closed = 1;
nodes = (
"677 633 LINE SMOOTH",
"677 676 OFFCURVE",
"680 695 OFFCURVE",
"693 722 CURVE",
"602 722 LINE",
"617 695 OFFCURVE",
"618 678 OFFCURVE",
"618 633 CURVE SMOOTH",
"618 452 LINE SMOOTH",
"618 429 OFFCURVE",
"618 414 OFFCURVE",
"624 381 CURVE",
"608 404 OFFCURVE",
"595 416 OFFCURVE",
"576 430 CURVE SMOOTH",
"190 722 LINE",
"30 722 LINE",
"30 717 LINE",
"85 713 OFFCURVE",
"113 692 OFFCURVE",
"156 657 CURVE",
"156 110 LINE SMOOTH",
"156 54 OFFCURVE",
"145 26 OFFCURVE",
"128 0 CURVE",
"211 0 LINE",
"190 32 OFFCURVE",
"182 54 OFFCURVE",
"182 110 CURVE SMOOTH",
"182 639 LINE",
"618 308 LINE",
"618 89 LINE SMOOTH",
"618 44 OFFCURVE",
"617 27 OFFCURVE",
"602 0 CURVE",
"693 0 LINE",
"680 27 OFFCURVE",
"677 46 OFFCURVE",
"677 89 CURVE SMOOTH"
);
}
);
width = 779;
}
);
leftKerningGroup = D;
rightKerningGroup = I;
},
{
glyphname = Eng;
lastChange = "2020-06-01 09:31:20 +0000";
layers = (
{
components = (
{
alignment = -1;
name = N;
transform = "{1, 0, 0, 1, 60, 0}";
}
);
layerId = "452AD06C-4D92-427C-8B35-838986F56274";
paths = (
{
closed = 1;
nodes = (
"720 57 LINE",
"733 43 OFFCURVE",
"738 27 OFFCURVE",
"738 10 CURVE SMOOTH",
"738 -62 OFFCURVE",
"647 -156 OFFCURVE",
"590 -222 CURVE",
"597 -229 LINE",
"689 -135 OFFCURVE",
"754 -52 OFFCURVE",
"789 -26 CURVE",
"789 15 LINE"
);
}
);
width = 829;
}
);
leftKerningGroup = D;
rightKerningGroup = I;
unicode = 014A;
},
{
glyphname = O;
lastChange = "2020-05-19 10:49:45 +0000";
layers = (
{
anchors = (
{
name = bottom;
position = "{436, 0}";
},
{
name = center;
position = "{436, 361}";
},
{
name = ogonek;
position = "{799, 10}";
},
{
name = top;
position = "{436, 722}";
},
{
name = topleft;
position = "{1, 722}";
},
{
name = topright;
position = "{870, 722}";
}
);
layerId = "452AD06C-4D92-427C-8B35-838986F56274";
paths = (
{
closed = 1;
nodes = (
"60 109 OFFCURVE",
"239 -17 OFFCURVE",
"437 -17 CURVE SMOOTH",
"634 -17 OFFCURVE",
"811 108 OFFCURVE",
"811 360 CURVE SMOOTH",
"811 612 OFFCURVE",
"634 738 OFFCURVE",
"436 738 CURVE SMOOTH",
"249 738 OFFCURVE",
"60 605 OFFCURVE",
"60 360 CURVE SMOOTH"
);
},
{
closed = 1;
nodes = (
"635 712 OFFCURVE",
"737 524 OFFCURVE",
"737 344 CURVE SMOOTH",
"737 173 OFFCURVE",
"646 6 OFFCURVE",
"445 6 CURVE SMOOTH",
"235 6 OFFCURVE",
"133 190 OFFCURVE",
"133 370 CURVE SMOOTH",
"133 541 OFFCURVE",
"224 712 OFFCURVE",
"430 712 CURVE SMOOTH"
);
}
);
width = 872;
}
);
leftKerningGroup = O;
rightKerningGroup = O;
unicode = 004F;
},
{
glyphname = Oslash;
lastChange = "2020-05-19 10:49:45 +0000";
layers = (
{
anchors = (
{
name = bottom;
position = "{482, 0}";
},
{
name = top;
position = "{482, 722}";
}
);
layerId = "452AD06C-4D92-427C-8B35-838986F56274";
paths = (
{
closed = 1;
nodes = (
"98 109 OFFCURVE",
"297 -17 OFFCURVE",
"495 -17 CURVE SMOOTH",
"692 -17 OFFCURVE",
"889 108 OFFCURVE",
"889 360 CURVE SMOOTH",
"889 612 OFFCURVE",
"692 738 OFFCURVE",
"494 738 CURVE SMOOTH",
"296 738 OFFCURVE",
"98 611 OFFCURVE",
"98 360 CURVE SMOOTH"
);
},
{
closed = 1;
nodes = (
"694 710 OFFCURVE",
"806 525 OFFCURVE",
"806 345 CURVE SMOOTH",
"806 174 OFFCURVE",
"704 6 OFFCURVE",
"503 6 CURVE SMOOTH",
"293 6 OFFCURVE",
"180 191 OFFCURVE",
"180 371 CURVE SMOOTH",
"180 542 OFFCURVE",
"283 710 OFFCURVE",
"489 710 CURVE SMOOTH"
);
},
{
closed = 1;
nodes = (
"33 0 LINE",
"126 0 LINE",
"928 728 LINE",
"922 735 LINE"
);
}
);
width = 963;
}
);
leftKerningGroup = O;
rightKerningGroup = O;
unicode = 00D8;
},
{
glyphname = OE;
lastChange = "2020-05-19 10:49:45 +0000";
layers = (
{
anchors = (
{
name = bottom;
position = "{684, 0}";
},
{
name = top;
position = "{684, 722}";
}
);
layerId = "452AD06C-4D92-427C-8B35-838986F56274";
paths = (
{
closed = 1;
nodes = (
"960 46 OFFCURVE",
"865 26 OFFCURVE",
"709 26 CURVE SMOOTH",
"675 26 OFFCURVE",
"666 36 OFFCURVE",
"666 72 CURVE SMOOTH",
"666 417 LINE",
"810 417 LINE SMOOTH",
"889 417 OFFCURVE",
"929 408 OFFCURVE",
"962 365 CURVE",
"962 485 LINE",
"929 453 OFFCURVE",
"889 433 OFFCURVE",
"810 433 CURVE SMOOTH",
"666 433 LINE",
"666 704 LINE",
"769 704 LINE SMOOTH",
"877 704 OFFCURVE",
"909 690 OFFCURVE",
"968 587 CURVE",
"975 590 LINE",
"936 722 LINE",
"598 722 LINE SMOOTH",
"544 722 OFFCURVE",
"505 733 OFFCURVE",
"437 733 CURVE SMOOTH",
"239 733 OFFCURVE",
"61 611 OFFCURVE",
"61 360 CURVE SMOOTH",
"61 109 OFFCURVE",
"240 -17 OFFCURVE",
"438 -17 CURVE SMOOTH",
"500 -17 OFFCURVE",
"552 0 OFFCURVE",
"610 0 CURVE SMOOTH",
"978 0 LINE",
"1027 159 LINE",
"1019 163 LINE"
);
},
{
closed = 1;
nodes = (
"133 542 OFFCURVE",
"226 710 OFFCURVE",
"432 710 CURVE SMOOTH",
"557 710 OFFCURVE",
"596 695 OFFCURVE",
"596 577 CURVE SMOOTH",
"596 85 LINE SMOOTH",
"596 20 OFFCURVE",
"522 6 OFFCURVE",
"446 6 CURVE SMOOTH",
"236 6 OFFCURVE",
"133 191 OFFCURVE",
"133 371 CURVE SMOOTH"
);
}
);
width = 1071;
}
);
leftKerningGroup = O;
rightKerningGroup = E;
unicode = 0152;
},
{
glyphname = OE.ss01;
lastChange = "2020-05-19 10:49:45 +0000";
layers = (
{
anchors = (
{
name = bottom;
position = "{663, 0}";
},
{
name = top;
position = "{663, 722}";
}
);
layerId = "452AD06C-4D92-427C-8B35-838986F56274";
paths = (
{
closed = 1;
nodes = (
"595 433 LINE",
"589 406 OFFCURVE",
"585 379 OFFCURVE",
"585 348 CURVE SMOOTH",
"585 131 OFFCURVE",
"739 -17 OFFCURVE",
"941 -17 CURVE SMOOTH",
"1031 -17 OFFCURVE",
"1129 -5 OFFCURVE",
"1209 48 CURVE",
"1240 190 LINE",
"1234 195 LINE",
"1160 68 OFFCURVE",
"1047 13 OFFCURVE",
"943 13 CURVE SMOOTH",
"793 13 OFFCURVE",
"667 127 OFFCURVE",
"667 333 CURVE SMOOTH",
"667 370 OFFCURVE",
"671 401 OFFCURVE",
"677 433 CURVE"
);
},
{
closed = 1;
nodes = (
"655 417 LINE",
"1070 417 LINE SMOOTH",
"1149 417 OFFCURVE",
"1189 408 OFFCURVE",
"1222 365 CURVE",
"1222 485 LINE",
"1189 453 OFFCURVE",
"1149 433 OFFCURVE",
"1070 433 CURVE SMOOTH",
"655 433 LINE"
);
},
{
closed = 1;
nodes = (
"719 551 LINE",
"775 655 OFFCURVE",
"871 718 OFFCURVE",
"973 718 CURVE SMOOTH",
"1096 718 OFFCURVE",
"1173 651 OFFCURVE",
"1204 550 CURVE",
"1213 551 LINE",
"1201 690 LINE",
"1132 720 OFFCURVE",
"1073 735 OFFCURVE",
"1000 735 CURVE SMOOTH",
"871 735 OFFCURVE",
"755 690 OFFCURVE",
"679 606 CURVE"
);
},
{
closed = 1;
nodes = (
"827 424 LINE",
"798 633 OFFCURVE",
"627 738 OFFCURVE",
"446 738 CURVE SMOOTH",
"248 738 OFFCURVE",
"60 611 OFFCURVE",
"60 360 CURVE SMOOTH",
"60 109 OFFCURVE",
"249 -17 OFFCURVE",
"447 -17 CURVE SMOOTH",
"562 -17 OFFCURVE",
"662 17 OFFCURVE",
"735 102 CURVE",
"704 155 LINE",
"659 68 OFFCURVE",
"577 6 OFFCURVE",
"455 6 CURVE SMOOTH",
"245 6 OFFCURVE",
"142 191 OFFCURVE",
"142 371 CURVE SMOOTH",
"142 542 OFFCURVE",
"235 710 OFFCURVE",
"441 710 CURVE SMOOTH",
"617 710 OFFCURVE",
"717 574 OFFCURVE",
"742 422 CURVE"
);
}
);
width = 1307;
}
);
leftKerningGroup = O;
rightKerningGroup = C;
},
{
glyphname = P;
lastChange = "2020-05-19 10:49:45 +0000";
layers = (
{
anchors = (
{
name = bottom;
position = "{307, 0}";
},
{
name = top;
position = "{307, 722}";
}
);
layerId = "452AD06C-4D92-427C-8B35-838986F56274";
paths = (
{
closed = 1;
nodes = (
"224 323 OFFCURVE",
"258 319 OFFCURVE",
"290 319 CURVE SMOOTH",
"438 319 OFFCURVE",
"565 399 OFFCURVE",
"565 548 CURVE SMOOTH",
"565 642 OFFCURVE",
"488 728 OFFCURVE",
"370 728 CURVE SMOOTH",
"318 728 OFFCURVE",
"258 712 OFFCURVE",
"193 671 CURVE",
"193 722 LINE",
"30 722 LINE",
"30 717 LINE",
"118 717 OFFCURVE",
"120 710 OFFCURVE",
"120 584 CURVE SMOOTH",
"120 89 LINE SMOOTH",
"120 48 OFFCURVE",
"115 24 OFFCURVE",
"98 0 CURVE",
"208 0 LINE",
"191 24 OFFCURVE",
"190 51 OFFCURVE",
"190 89 CURVE SMOOTH",
"190 331 LINE"
);
},
{
closed = 1;
nodes = (
"242 682 OFFCURVE",
"288 694 OFFCURVE",
"327 694 CURVE SMOOTH",
"428 694 OFFCURVE",
"484 612 OFFCURVE",
"484 528 CURVE SMOOTH",
"484 411 OFFCURVE",
"392 344 OFFCURVE",
"271 344 CURVE SMOOTH",
"245 344 OFFCURVE",
"218 348 OFFCURVE",
"190 354 CURVE",
"190 653 LINE"
);
}
);
width = 613;
}
);
leftKerningGroup = D;
rightKerningGroup = P;
unicode = 0050;
},
{
glyphname = P.ss01;
lastChange = "2020-05-19 10:49:45 +0000";
layers = (
{
anchors = (
{
name = bottom;
position = "{411, 0}";
},
{
name = top;
position = "{411, 722}";
}
);
layerId = "452AD06C-4D92-427C-8B35-838986F56274";
paths = (
{
closed = 1;
nodes = (
"262 17 OFFCURVE",
"327 -3 OFFCURVE",
"391 -3 CURVE SMOOTH",
"583 -3 OFFCURVE",
"759 168 OFFCURVE",
"759 392 CURVE SMOOTH",
"759 594 OFFCURVE",
"614 735 OFFCURVE",
"441 735 CURVE SMOOTH",
"362 735 OFFCURVE",
"279 707 OFFCURVE",
"205 646 CURVE",
"206 722 LINE",
"30 722 LINE",
"30 717 LINE",
"134 713 OFFCURVE",
"135 673 OFFCURVE",
"135 546 CURVE SMOOTH",
"135 112 LINE SMOOTH",
"135 -168 OFFCURVE",
"276 -381 OFFCURVE",
"612 -485 CURVE",
"619 -481 LINE",
"318 -384 OFFCURVE",
"204 -180 OFFCURVE",
"204 29 CURVE SMOOTH",
"204 62 LINE"
);
},
{
closed = 1;
nodes = (
"277 676 OFFCURVE",
"355 705 OFFCURVE",
"427 705 CURVE SMOOTH",
"566 705 OFFCURVE",
"681 577 OFFCURVE",
"681 399 CURVE SMOOTH",
"681 196 OFFCURVE",
"548 18 OFFCURVE",
"396 18 CURVE SMOOTH",
"302 18 OFFCURVE",
"205 78 OFFCURVE",
"205 186 CURVE SMOOTH",
"205 612 LINE"
);
}
);
width = 817;
}
);
leftKerningGroup = D;
rightKerningGroup = O;
},
{
glyphname = Thorn;
lastChange = "2020-05-19 10:49:45 +0000";
layers = (
{
layerId = "452AD06C-4D92-427C-8B35-838986F56274";
paths = (
{
closed = 1;
nodes = (
"308 648 OFFCURVE",
"224 618 OFFCURVE",
"164 556 CURVE",
"164 724 LINE SMOOTH",
"164 804 OFFCURVE",
"166 831 OFFCURVE",
"179 876 CURVE",
"171 879 LINE",
"82 725 LINE",
"82 717 LINE",
"101 693 OFFCURVE",
"102 572 OFFCURVE",
"102 515 CURVE SMOOTH",
"102 -85 LINE SMOOTH",
"102 -148 OFFCURVE",
"65 -230 OFFCURVE",
"36 -293 CURVE",
"44 -297 LINE",
"93 -207 OFFCURVE",
"118 -151 OFFCURVE",
"164 -97 CURVE",
"164 91 LINE",
"227 25 OFFCURVE",
"317 -8 OFFCURVE",
"406 -8 CURVE SMOOTH",
"563 -8 OFFCURVE",
"717 101 OFFCURVE",
"717 317 CURVE SMOOTH",
"717 540 OFFCURVE",
"553 648 OFFCURVE",
"392 648 CURVE SMOOTH"
);
},
{
closed = 1;
nodes = (
"308 22 OFFCURVE",
"165 148 OFFCURVE",
"165 378 CURVE SMOOTH",
"165 547 OFFCURVE",
"265 621 OFFCURVE",
"364 621 CURVE SMOOTH",
"491 621 OFFCURVE",
"626 494 OFFCURVE",
"626 266 CURVE SMOOTH",
"626 98 OFFCURVE",
"536 22 OFFCURVE",
"437 22 CURVE SMOOTH"
);
}
);
width = 775;
}
);
leftKerningGroup = D;
rightKerningGroup = O;
unicode = 00DE;
},
{
glyphname = Q;
lastChange = "2020-05-19 10:49:45 +0000";
layers = (
{
anchors = (
{
name = bottom;
position = "{446, 0}";
},
{
name = top;
position = "{446, 722}";
}
);
layerId = "452AD06C-4D92-427C-8B35-838986F56274";
paths = (
{
closed = 1;
nodes = (
"60 109 OFFCURVE",
"249 -17 OFFCURVE",
"447 -17 CURVE SMOOTH",
"644 -17 OFFCURVE",
"831 108 OFFCURVE",
"831 360 CURVE SMOOTH",
"831 612 OFFCURVE",
"644 738 OFFCURVE",
"446 738 CURVE SMOOTH",
"248 738 OFFCURVE",
"60 611 OFFCURVE",
"60 360 CURVE SMOOTH"
);
},
{
closed = 1;
nodes = (
"646 710 OFFCURVE",
"758 526 OFFCURVE",
"758 346 CURVE SMOOTH",
"758 175 OFFCURVE",
"656 6 OFFCURVE",
"455 6 CURVE SMOOTH",
"245 6 OFFCURVE",
"133 190 OFFCURVE",
"133 370 CURVE SMOOTH",
"133 541 OFFCURVE",
"235 710 OFFCURVE",
"441 710 CURVE SMOOTH"
);
},
{
closed = 1;
nodes = (
"474 -8 LINE",
"663 -210 OFFCURVE",
"853 -267 OFFCURVE",
"1036 -267 CURVE SMOOTH",
"1194 -267 OFFCURVE",
"1373 -193 OFFCURVE",
"1491 -90 CURVE",
"1487 -81 LINE",
"1345 -186 OFFCURVE",
"1177 -235 OFFCURVE",
"1053 -235 CURVE SMOOTH",
"843 -235 OFFCURVE",
"687 -139 OFFCURVE",
"568 16 CURVE"
);
}
);
width = 892;
}
);
leftKerningGroup = O;
rightKerningGroup = O;
unicode = 0051;
},
{
glyphname = Q.ss01;
lastChange = "2020-05-19 10:49:45 +0000";
layers = (
{
anchors = (
{
name = bottom;
position = "{451, 0}";
},
{
name = top;
position = "{451, 722}";
}
);
layerId = "452AD06C-4D92-427C-8B35-838986F56274";
paths = (
{
closed = 1;
nodes = (
"795 -110 OFFCURVE",
"734 -113 OFFCURVE",
"651 -90 CURVE SMOOTH",
"427 -28 OFFCURVE",
"299 -26 OFFCURVE",
"177 -163 CURVE",
"193 -92 OFFCURVE",
"223 -31 OFFCURVE",
"265 19 CURVE",
"325 -6 OFFCURVE",
"389 -17 OFFCURVE",
"449 -17 CURVE SMOOTH",
"657 -17 OFFCURVE",
"831 126 OFFCURVE",
"832 360 CURVE SMOOTH",
"832 578 OFFCURVE",
"686 737 OFFCURVE",
"447 737 CURVE SMOOTH",
"214 737 OFFCURVE",
"60 582 OFFCURVE",
"60 355 CURVE SMOOTH",
"60 223 OFFCURVE",
"125 88 OFFCURVE",
"237 34 CURVE",
"187 -36 OFFCURVE",
"155 -119 OFFCURVE",
"142 -219 CURVE",
"153 -219 LINE",
"240 -88 OFFCURVE",
"378 -65 OFFCURVE",
"538 -123 CURVE SMOOTH",
"664 -169 OFFCURVE",
"707 -191 OFFCURVE",
"795 -163 CURVE",
"853 22 LINE",
"846 24 LINE"
);
},
{
closed = 1;
nodes = (
"146 237 OFFCURVE",
"146 360 CURVE SMOOTH",
"146 535 OFFCURVE",
"231 655 OFFCURVE",
"358 697 CURVE SMOOTH",
"416 716 OFFCURVE",
"478 716 OFFCURVE",
"536 697 CURVE SMOOTH",
"664 655 OFFCURVE",
"748 535 OFFCURVE",
"748 360 CURVE SMOOTH",
"748 317 OFFCURVE",
"743 275 OFFCURVE",
"731 234 CURVE SMOOTH",
"692 95 OFFCURVE",
"579 10 OFFCURVE",
"450 10 CURVE SMOOTH",
"412 10 OFFCURVE",
"348 19 OFFCURVE",
"292 49 CURVE",
"370 126 OFFCURVE",
"476 174 OFFCURVE",
"595 190 CURVE",
"594 252 OFFCURVE",
"613 271 OFFCURVE",
"679 300 CURVE",
"676 306 LINE",
"495 251 OFFCURVE",
"356 177 OFFCURVE",
"263 68 CURVE",
"174 128 OFFCURVE"
);
}
);
width = 906;
}
);
leftKerningGroup = O;
rightKerningGroup = O;
},
{
glyphname = R;
lastChange = "2020-05-19 10:49:45 +0000";
layers = (
{
anchors = (
{
name = bottom;
position = "{322, 0}";
},
{
name = top;
position = "{322, 722}";
}
);
layerId = "452AD06C-4D92-427C-8B35-838986F56274";
paths = (
{
closed = 1;
nodes = (
"474 340 OFFCURVE",
"565 460 OFFCURVE",
"565 548 CURVE SMOOTH",
"565 642 OFFCURVE",
"488 728 OFFCURVE",
"370 728 CURVE SMOOTH",
"318 728 OFFCURVE",
"258 712 OFFCURVE",
"193 671 CURVE",
"193 722 LINE",
"30 722 LINE",
"30 717 LINE",
"118 717 OFFCURVE",
"120 710 OFFCURVE",
"120 584 CURVE SMOOTH",
"120 89 LINE SMOOTH",
"120 48 OFFCURVE",
"115 24 OFFCURVE",
"98 0 CURVE",
"208 0 LINE",
"191 24 OFFCURVE",
"190 51 OFFCURVE",
"190 89 CURVE SMOOTH",
"190 331 LINE",
"275 315 OFFCURVE",
"352 302 OFFCURVE",
"456 128 CURVE SMOOTH",
"541 -14 OFFCURVE",
"551 -90 OFFCURVE",
"740 -147 CURVE",
"742 -140 LINE",
"544 -67 OFFCURVE",
"559 287 OFFCURVE",
"307 319 CURVE",
"307 324 LINE"
);
},
{
closed = 1;
nodes = (
"242 682 OFFCURVE",
"288 694 OFFCURVE",
"327 694 CURVE SMOOTH",
"428 694 OFFCURVE",
"484 612 OFFCURVE",
"484 528 CURVE SMOOTH",
"484 411 OFFCURVE",
"387 340 OFFCURVE",
"275 340 CURVE SMOOTH",
"247 340 OFFCURVE",
"219 345 OFFCURVE",
"190 354 CURVE",
"190 653 LINE"
);
}
);
width = 640;
}
);
leftKerningGroup = D;
rightKerningGroup = K;
unicode = 0052;
},
{
glyphname = R.ss01;
lastChange = "2020-05-19 10:49:45 +0000";
layers = (
{
anchors = (
{
name = bottom;
position = "{309, 0}";
},
{
name = top;
position = "{309, 722}";
}
);
layerId = "452AD06C-4D92-427C-8B35-838986F56274";
paths = (
{
closed = 1;
nodes = (
"512 388 OFFCURVE",
"565 470 OFFCURVE",
"565 548 CURVE SMOOTH",
"565 642 OFFCURVE",
"488 728 OFFCURVE",
"370 728 CURVE SMOOTH",
"318 728 OFFCURVE",
"258 712 OFFCURVE",
"193 671 CURVE",
"193 722 LINE",
"30 722 LINE",
"30 717 LINE",
"118 717 OFFCURVE",
"120 710 OFFCURVE",
"120 584 CURVE SMOOTH",
"120 89 LINE SMOOTH",
"120 48 OFFCURVE",
"115 24 OFFCURVE",
"98 0 CURVE",
"208 0 LINE",
"191 24 OFFCURVE",
"190 51 OFFCURVE",
"190 89 CURVE SMOOTH",
"190 328 LINE",
"223 321 OFFCURVE",
"253 318 OFFCURVE",
"282 318 CURVE SMOOTH",
"304 318 OFFCURVE",
"325 320 OFFCURVE",
"344 323 CURVE",
"364 136 OFFCURVE",
"476 -40 OFFCURVE",
"663 -54 CURVE",
"665 -47 LINE",
"553 -32 OFFCURVE",
"433 122 OFFCURVE",
"419 346 CURVE"
);
},
{
closed = 1;
nodes = (
"251 344 OFFCURVE",
"222 347 OFFCURVE",
"190 354 CURVE",
"190 653 LINE",
"242 682 OFFCURVE",
"288 694 OFFCURVE",
"327 694 CURVE SMOOTH",
"428 694 OFFCURVE",
"484 612 OFFCURVE",
"484 528 CURVE SMOOTH",
"484 438 OFFCURVE",
"419 344 OFFCURVE",
"277 344 CURVE SMOOTH"
);
}
);
width = 618;
}
);
leftKerningGroup = D;
rightKerningGroup = K;
},
{
glyphname = Rcommaaccent;
lastChange = "2020-05-19 10:49:45 +0000";
layers = (
{
anchors = (
{
name = bottom;
position = "{154.5, -164}";
},
{
name = top;
position = "{322, 722}";
}
);
layerId = "452AD06C-4D92-427C-8B35-838986F56274";
paths = (
{
closed = 1;
nodes = (
"501 356 OFFCURVE",
"565 460 OFFCURVE",
"565 548 CURVE SMOOTH",
"565 642 OFFCURVE",
"488 728 OFFCURVE",
"370 728 CURVE SMOOTH",
"318 728 OFFCURVE",
"258 712 OFFCURVE",
"193 671 CURVE",
"193 722 LINE",
"30 722 LINE",
"30 717 LINE",
"118 717 OFFCURVE",
"120 710 OFFCURVE",
"120 584 CURVE SMOOTH",
"120 6 LINE SMOOTH",
"120 -31 OFFCURVE",
"140 -59 OFFCURVE",
"140 -92 CURVE SMOOTH",
"140 -116 OFFCURVE",
"127 -138 OFFCURVE",
"106 -159 CURVE",
"111 -164 LINE",
"165 -135 OFFCURVE",
"190 -70 OFFCURVE",
"190 -17 CURVE SMOOTH",
"190 -16 LINE SMOOTH",
"190 18 OFFCURVE",
"190 51 OFFCURVE",
"190 89 CURVE SMOOTH",
"190 331 LINE",
"360 287 OFFCURVE",
"352 317 OFFCURVE",
"456 128 CURVE SMOOTH",
"535 -16 OFFCURVE",
"551 -90 OFFCURVE",
"740 -147 CURVE",
"742 -140 LINE",
"540 -66 OFFCURVE",
"557 298 OFFCURVE",
"364 331 CURVE"
);
},
{
closed = 1;
nodes = (
"190 653 LINE",
"242 682 OFFCURVE",
"288 694 OFFCURVE",
"327 694 CURVE SMOOTH",
"428 694 OFFCURVE",
"484 612 OFFCURVE",
"484 528 CURVE SMOOTH",
"484 411 OFFCURVE",
"387 340 OFFCURVE",
"275 340 CURVE SMOOTH",
"247 340 OFFCURVE",
"219 345 OFFCURVE",
"190 354 CURVE"
);
}
);
width = 643;
}
);
leftKerningGroup = D;
rightKerningGroup = K;
unicode = 0156;
},
{
glyphname = S;
lastChange = "2020-05-19 10:49:45 +0000";
layers = (
{
anchors = (
{
name = bottom;
position = "{310, 0}";
},
{
name = top;
position = "{310, 722}";
}
);
layerId = "452AD06C-4D92-427C-8B35-838986F56274";
paths = (
{
closed = 1;
nodes = (
"101 49 OFFCURVE",
"199 -14 OFFCURVE",
"316 -14 CURVE SMOOTH",
"469 -14 OFFCURVE",
"559 72 OFFCURVE",
"559 190 CURVE SMOOTH",
"559 320 OFFCURVE",
"426 367 OFFCURVE",
"288 426 CURVE SMOOTH",
"202 462 OFFCURVE",
"126 505 OFFCURVE",
"126 597 CURVE SMOOTH",
"126 658 OFFCURVE",
"176 705 OFFCURVE",
"265 705 CURVE SMOOTH",
"389 705 OFFCURVE",
"462 635 OFFCURVE",
"508 467 CURVE",
"515 469 LINE",
"499 550 OFFCURVE",
"475 644 OFFCURVE",
"475 682 CURVE",
"311 768 OFFCURVE",
"86 736 OFFCURVE",
"86 570 CURVE SMOOTH",
"86 532 OFFCURVE",
"99 490 OFFCURVE",
"130 448 CURVE SMOOTH",
"241 298 OFFCURVE",
"499 322 OFFCURVE",
"499 140 CURVE SMOOTH",
"499 72 OFFCURVE",
"447 10 OFFCURVE",
"354 10 CURVE SMOOTH",
"270 10 OFFCURVE",
"196 62 OFFCURVE",
"143 134 CURVE SMOOTH",
"113 175 OFFCURVE",
"98 218 OFFCURVE",
"79 294 CURVE",
"70 291 LINE",
"95 189 OFFCURVE",
"97 157 OFFCURVE",
"57 126 CURVE"
);
}
);
width = 610;
}
);
leftKerningGroup = S;
rightKerningGroup = S;
unicode = 0053;
},
{
glyphname = S.ss01;
lastChange = "2020-05-19 10:49:45 +0000";
layers = (
{
anchors = (
{
name = bottom;
position = "{304, 0}";
},
{
name = top;
position = "{304, 722}";
}
);
layerId = "452AD06C-4D92-427C-8B35-838986F56274";
paths = (
{
closed = 1;
nodes = (
"208 452 OFFCURVE",
"131 531 OFFCURVE",
"136 613 CURVE SMOOTH",
"140 679 OFFCURVE",
"197 712 OFFCURVE",
"292 705 CURVE SMOOTH",
"416 696 OFFCURVE",
"479 625 OFFCURVE",
"517 453 CURVE",
"524 453 LINE",
"500 670 LINE",
"442 705 OFFCURVE",
"380 725 OFFCURVE",
"314 730 CURVE SMOOTH",
"175 740 OFFCURVE",
"90 683 OFFCURVE",
"82 573 CURVE SMOOTH",
"74 465 OFFCURVE",
"132 397 OFFCURVE",
"284 335 CURVE SMOOTH",
"425 278 OFFCURVE",
"489 213 OFFCURVE",
"484 133 CURVE SMOOTH",
"479 57 OFFCURVE",
"430 18 OFFCURVE",
"343 18 CURVE SMOOTH",
"207 18 OFFCURVE",
"107 111 OFFCURVE",
"72 267 CURVE",
"65 267 LINE",
"92 53 LINE",
"152 7 OFFCURVE",
"228 -18 OFFCURVE",
"307 -17 CURVE SMOOTH",
"442 -14 OFFCURVE",
"540 64 OFFCURVE",
"547 174 CURVE SMOOTH",
"554 269 OFFCURVE",
"478 353 OFFCURVE",
"339 404 CURVE SMOOTH"
);
}
);
width = 608;
}
);
leftKerningGroup = S;
rightKerningGroup = S;
},
{
glyphname = Germandbls;
lastChange = "2020-05-19 10:49:45 +0000";
layers = (
{
layerId = "452AD06C-4D92-427C-8B35-838986F56274";
paths = (
{
closed = 1;
nodes = (
"273 410 LINE",
"385 536 OFFCURVE",
"483 646 OFFCURVE",
"513 666 CURVE",
"515 674 LINE",
"443 718 OFFCURVE",
"374 739 OFFCURVE",
"312 739 CURVE SMOOTH",
"179 739 OFFCURVE",
"83 640 OFFCURVE",
"83 451 CURVE SMOOTH",
"83 -8 LINE SMOOTH",
"83 -71 OFFCURVE",
"52 -138 OFFCURVE",
"23 -201 CURVE",
"31 -205 LINE",
"80 -115 OFFCURVE",
"100 -68 OFFCURVE",
"146 -19 CURVE",
"146 561 LINE SMOOTH",
"146 653 OFFCURVE",
"200 694 OFFCURVE",
"274 694 CURVE SMOOTH",
"316 694 OFFCURVE",
"363 681 OFFCURVE",
"411 658 CURVE",
"371 619 OFFCURVE",
"299 478 OFFCURVE",
"217 369 CURVE",
"228 362 LINE",
"233 367 OFFCURVE",
"245 380 OFFCURVE",
"253 387 CURVE",
"410 378 OFFCURVE",
"484 288 OFFCURVE",
"484 152 CURVE SMOOTH",
"484 67 OFFCURVE",
"439 3 OFFCURVE",
"370 3 CURVE SMOOTH",
"306 3 OFFCURVE",
"267 49 OFFCURVE",
"253 125 CURVE",
"217 125 OFFCURVE",
"177 142 OFFCURVE",
"186 199 CURVE",
"179 199 LINE",
"175 185 OFFCURVE",
"174 170 OFFCURVE",
"174 156 CURVE SMOOTH",
"174 48 OFFCURVE",
"288 -15 OFFCURVE",
"362 -15 CURVE SMOOTH",
"450 -15 OFFCURVE",
"550 53 OFFCURVE",
"550 185 CURVE SMOOTH",
"550 315 OFFCURVE",
"455 410 OFFCURVE",
"274 407 CURVE"
);
}
);
width = 600;
}
);
leftKerningGroup = D;
rightKerningGroup = E;
unicode = 1E9E;
},
{
glyphname = T;
lastChange = "2020-05-19 10:49:45 +0000";
layers = (
{
anchors = (
{
name = bottom;
position = "{343, 0}";
},
{
name = center;
position = "{343, 361}";
},
{
name = top;
position = "{343, 722}";
}
);
layerId = "452AD06C-4D92-427C-8B35-838986F56274";
paths = (
{
closed = 1;
nodes = (
"68 722 LINE",
"67 690 OFFCURVE",
"63 634 OFFCURVE",
"42 570 CURVE",
"49 567 LINE",
"92 677 OFFCURVE",
"133 704 OFFCURVE",
"255 704 CURVE SMOOTH",
"308 704 LINE",
"308 89 LINE SMOOTH",
"308 44 OFFCURVE",
"304 27 OFFCURVE",
"289 0 CURVE",
"397 0 LINE",
"382 27 OFFCURVE",
"378 44 OFFCURVE",
"378 89 CURVE SMOOTH",
"378 704 LINE",
"431 704 LINE SMOOTH",
"550 704 OFFCURVE",
"597 677 OFFCURVE",
"636 567 CURVE",
"643 570 LINE",
"624 634 OFFCURVE",
"619 690 OFFCURVE",
"618 722 CURVE"
);
}
);
width = 685;
}
);
leftKerningGroup = T;
rightKerningGroup = T;
unicode = 0054;
},
{
glyphname = T.ss01;
lastChange = "2020-05-19 10:49:45 +0000";
layers = (
{
anchors = (
{
name = bottom;
position = "{412, 0}";
},
{
name = center;
position = "{412, 361}";
},
{
name = top;
position = "{412, 722}";
}
);
layerId = "452AD06C-4D92-427C-8B35-838986F56274";
paths = (
{
closed = 1;
nodes = (
"298 706 OFFCURVE",
"676 706 OFFCURVE",
"750 706 CURVE",
"757 734 OFFCURVE",
"775 751 OFFCURVE",
"801 788 CURVE",
"794 791 LINE",
"755 746 OFFCURVE",
"714 722 OFFCURVE",
"614 722 CURVE SMOOTH",
"96 722 LINE",
"96 693 OFFCURVE",
"78 671 OFFCURVE",
"55 634 CURVE",
"63 629 LINE",
"111 701 OFFCURVE",
"166 706 OFFCURVE",
"278 706 CURVE SMOOTH"
);
},
{
closed = 1;
nodes = (
"456 706 LINE",
"261 680 OFFCURVE",
"78 522 OFFCURVE",
"78 300 CURVE SMOOTH",
"78 93 OFFCURVE",
"237 -17 OFFCURVE",
"429 -17 CURVE SMOOTH",
"519 -17 OFFCURVE",
"587 5 OFFCURVE",
"667 58 CURVE",
"689 260 LINE",
"680 261 LINE",
"648 78 OFFCURVE",
"529 13 OFFCURVE",
"421 13 CURVE SMOOTH",
"281 13 OFFCURVE",
"155 87 OFFCURVE",
"155 283 CURVE SMOOTH",
"155 512 OFFCURVE",
"379 706 OFFCURVE",
"540 706 CURVE SMOOTH",
"596 706 OFFCURVE",
"599 706 OFFCURVE",
"601 706 CURVE"
);
}
);
width = 784;
}
);
leftKerningGroup = O;
rightKerningGroup = C;
},
{
glyphname = T.ss02;
lastChange = "2020-05-19 10:49:45 +0000";
layers = (
{
anchors = (
{
name = bottom;
position = "{399, 0}";
},
{
name = center;
position = "{399, 361}";
},
{
name = top;
position = "{399, 722}";
}
);
layerId = "452AD06C-4D92-427C-8B35-838986F56274";
paths = (
{
closed = 1;
nodes = (
"443 706 LINE",
"248 680 OFFCURVE",
"65 521 OFFCURVE",
"65 300 CURVE SMOOTH",
"65 99 OFFCURVE",
"227 -17 OFFCURVE",
"402 -17 CURVE SMOOTH",
"603 -17 OFFCURVE",
"705 97 OFFCURVE",
"705 221 CURVE SMOOTH",
"705 304 OFFCURVE",
"656 378 OFFCURVE",
"538 378 CURVE SMOOTH",
"455 378 OFFCURVE",
"362 315 OFFCURVE",
"364 191 CURVE",
"372 191 LINE",
"379 293 OFFCURVE",
"453 352 OFFCURVE",
"517 352 CURVE SMOOTH",
"601 352 OFFCURVE",
"635 293 OFFCURVE",
"635 224 CURVE SMOOTH",
"635 116 OFFCURVE",
"551 12 OFFCURVE",
"389 12 CURVE SMOOTH",
"247 12 OFFCURVE",
"142 125 OFFCURVE",
"142 283 CURVE SMOOTH",
"142 526 OFFCURVE",
"364 706 OFFCURVE",
"527 706 CURVE SMOOTH",
"527 706 OFFCURVE",
"532 706 OFFCURVE",
"534 706 CURVE"
);
},
{
closed = 1;
nodes = (
"115 722 LINE",
"115 689 OFFCURVE",
"107 658 OFFCURVE",
"84 597 CURVE",
"91 594 LINE",
"133 678 OFFCURVE",
"173 706 OFFCURVE",
"251 706 CURVE SMOOTH",
"1123 706 LINE",
"1140 717 OFFCURVE",
"1164 744 OFFCURVE",
"1186 792 CURVE",
"1174 799 LINE",
"1143 742 OFFCURVE",
"1074 722 OFFCURVE",
"960 722 CURVE"
);
}
);
width = 750;
}
);
leftKerningGroup = O;
rightKerningGroup = T;
},
{
glyphname = Tcommaaccent;
lastChange = "2020-05-19 10:49:45 +0000";
layers = (
{
anchors = (
{
name = bottom;
position = "{344, -147}";
},
{
name = center;
position = "{344, 361}";
},
{
name = top;
position = "{344, 722}";
}
);
layerId = "452AD06C-4D92-427C-8B35-838986F56274";
paths = (
{
closed = 1;
nodes = (
"69 722 LINE",
"43 570 LINE",
"50 567 LINE",
"64 601 LINE SMOOTH",
"93 671 OFFCURVE",
"153 704 OFFCURVE",
"256 704 CURVE SMOOTH",
"309 704 LINE",
"309 20 LINE SMOOTH",
"309 -17 OFFCURVE",
"329 -42 OFFCURVE",
"329 -75 CURVE SMOOTH",
"329 -99 OFFCURVE",
"316 -121 OFFCURVE",
"295 -142 CURVE",
"300 -147 LINE",
"354 -118 OFFCURVE",
"379 -53 OFFCURVE",
"379 0 CURVE SMOOTH",
"379 704 LINE",
"432 704 LINE SMOOTH",
"535 704 OFFCURVE",
"594 671 OFFCURVE",
"623 601 CURVE SMOOTH",
"637 567 LINE",
"644 570 LINE",
"619 722 LINE"
);
}
);
width = 687;
}
);
leftKerningGroup = T;
rightKerningGroup = T;
unicode = 021A;
},
{
glyphname = U;
lastChange = "2020-05-19 10:49:45 +0000";
layers = (
{
anchors = (
{
name = bottom;
position = "{339, 0}";
},
{
name = ogonek;
position = "{610, 10}";
},
{
name = top;
position = "{339, 722}";
},
{
name = topright;
position = "{658, 722}";
}
);
layerId = "452AD06C-4D92-427C-8B35-838986F56274";
paths = (
{
closed = 1;
nodes = (
"467 717 LINE",
"555 717 OFFCURVE",
"557 710 OFFCURVE",
"557 584 CURVE SMOOTH",
"557 267 LINE SMOOTH",
"557 74 OFFCURVE",
"458 25 OFFCURVE",
"345 25 CURVE SMOOTH",
"250 25 OFFCURVE",
"165 59 OFFCURVE",
"165 241 CURVE SMOOTH",
"165 599 LINE SMOOTH",
"165 671 OFFCURVE",
"168 697 OFFCURVE",
"181 722 CURVE",
"77 722 LINE",
"90 698 OFFCURVE",
"95 671 OFFCURVE",
"95 599 CURVE SMOOTH",
"95 260 LINE SMOOTH",
"95 36 OFFCURVE",
"210 -18 OFFCURVE",
"329 -18 CURVE SMOOTH",
"464 -18 OFFCURVE",
"583 47 OFFCURVE",
"583 273 CURVE SMOOTH",
"583 613 LINE SMOOTH",
"583 664 OFFCURVE",
"587 692 OFFCURVE",
"602 722 CURVE",
"467 722 LINE"
);
}
);
width = 677;
}
);
leftKerningGroup = D;
rightKerningGroup = I;
unicode = 0055;
},
{
glyphname = U.ss01;
lastChange = "2020-05-19 10:49:45 +0000";
layers = (
{
anchors = (
{
name = bottom;
position = "{398, 0}";
},
{
name = ogonek;
position = "{717, 10}";
},
{
name = top;
position = "{398, 722}";
},
{
name = topright;
position = "{777, 722}";
}
);
layerId = "452AD06C-4D92-427C-8B35-838986F56274";
paths = (
{
closed = 1;
nodes = (
"412 796 LINE",
"163 667 OFFCURVE",
"59 490 OFFCURVE",
"59 316 CURVE SMOOTH",
"59 129 OFFCURVE",
"178 -20 OFFCURVE",
"374 -20 CURVE SMOOTH",
"491 -20 OFFCURVE",
"564 39 OFFCURVE",
"587 125 CURVE",
"587 97 OFFCURVE",
"587 28 OFFCURVE",
"577 0 CURVE",
"716 0 LINE",
"716 7 LINE",
"713 7 LINE SMOOTH",
"663 7 OFFCURVE",
"657 22 OFFCURVE",
"657 157 CURVE SMOOTH",
"657 722 LINE",
"470 722 LINE",
"470 717 LINE",
"587 717 OFFCURVE",
"587 717 OFFCURVE",
"587 542 CURVE SMOOTH",
"587 235 LINE SMOOTH",
"587 91 OFFCURVE",
"509 23 OFFCURVE",
"399 23 CURVE SMOOTH",
"229 23 OFFCURVE",
"133 184 OFFCURVE",
"133 349 CURVE SMOOTH",
"133 524 OFFCURVE",
"242 694 OFFCURVE",
"415 791 CURVE"
);
}
);
width = 760;
}
);
leftKerningGroup = O;
rightKerningGroup = I;
},
{
glyphname = Udieresis.001;
lastChange = "2020-05-19 10:49:45 +0000";
layers = (
{
anchors = (
{
name = _top;
position = "{581, 732}";
},
{
name = top;
position = "{581, 816}";
}
);
layerId = "452AD06C-4D92-427C-8B35-838986F56274";
paths = (
{
closed = 1;
nodes = (
"412 796 LINE",
"163 667 OFFCURVE",
"59 490 OFFCURVE",
"59 316 CURVE SMOOTH",
"59 129 OFFCURVE",
"178 -20 OFFCURVE",
"374 -20 CURVE SMOOTH",
"491 -20 OFFCURVE",
"564 39 OFFCURVE",
"587 125 CURVE",
"587 97 OFFCURVE",
"587 28 OFFCURVE",
"577 0 CURVE",
"716 0 LINE",
"716 7 LINE",
"713 7 LINE SMOOTH",
"663 7 OFFCURVE",
"657 22 OFFCURVE",
"657 157 CURVE SMOOTH",
"657 722 LINE",
"470 722 LINE",
"470 717 LINE",
"587 717 OFFCURVE",
"587 717 OFFCURVE",
"587 542 CURVE SMOOTH",
"587 235 LINE SMOOTH",
"587 91 OFFCURVE",
"509 23 OFFCURVE",
"399 23 CURVE SMOOTH",
"229 23 OFFCURVE",
"133 184 OFFCURVE",
"133 349 CURVE SMOOTH",
"133 524 OFFCURVE",
"242 694 OFFCURVE",
"415 791 CURVE"
);
},
{
closed = 1;
nodes = (
"669 860 OFFCURVE",
"669 884 OFFCURVE",
"655 897 CURVE",
"641 911 OFFCURVE",
"620 910 OFFCURVE",
"606 897 CURVE",
"600 891 OFFCURVE",
"595 881 OFFCURVE",
"595 872 CURVE",
"595 863 OFFCURVE",
"600 853 OFFCURVE",
"606 847 CURVE",
"620 834 OFFCURVE",
"641 833 OFFCURVE",
"655 847 CURVE"
);
},
{
closed = 1;
nodes = (
"550 820 OFFCURVE",
"550 844 OFFCURVE",
"536 857 CURVE",
"523 870 OFFCURVE",
"500 870 OFFCURVE",
"487 857 CURVE",
"480 851 OFFCURVE",
"477 841 OFFCURVE",
"477 832 CURVE",
"477 823 OFFCURVE",
"480 813 OFFCURVE",
"487 807 CURVE",
"500 794 OFFCURVE",
"523 794 OFFCURVE",
"536 807 CURVE"
);
}
);
width = 760;
}
);
leftKerningGroup = D;
rightKerningGroup = I;
},
{
glyphname = Uring;
lastChange = "2020-05-19 10:49:45 +0000";
layers = (
{
anchors = (
{
name = bottom;
position = "{338, 0}";
},
{
name = ogonek;
position = "{609, 10}";
},
{
name = top;
position = "{338, 873}";
},
{
name = topright;
position = "{657, 722}";
}
);
layerId = "452AD06C-4D92-427C-8B35-838986F56274";
paths = (
{
closed = 1;
nodes = (
"556 623 LINE",
"556 603 OFFCURVE",
"556 577 OFFCURVE",
"556 542 CURVE SMOOTH",
"556 267 LINE SMOOTH",
"556 74 OFFCURVE",
"457 25 OFFCURVE",
"344 25 CURVE SMOOTH",
"249 25 OFFCURVE",
"164 59 OFFCURVE",
"164 241 CURVE SMOOTH",
"164 613 LINE SMOOTH",
"164 658 OFFCURVE",
"167 697 OFFCURVE",
"180 722 CURVE",
"78 722 LINE",
"91 697 OFFCURVE",
"94 658 OFFCURVE",
"94 613 CURVE SMOOTH",
"94 260 LINE SMOOTH",
"94 36 OFFCURVE",
"209 -18 OFFCURVE",
"328 -18 CURVE SMOOTH",
"463 -18 OFFCURVE",
"582 47 OFFCURVE",
"582 273 CURVE SMOOTH",
"582 613 LINE SMOOTH",
"582 617 OFFCURVE",
"582 620 OFFCURVE",
"582 623 CURVE"
);
},
{
closed = 1;
nodes = (
"582 623 LINE",
"583 668 OFFCURVE",
"587 694 OFFCURVE",
"601 722 CURVE",
"581 725 OFFCURVE",
"551 708 OFFCURVE",
"519 708 CURVE SMOOTH",
"504 708 OFFCURVE",
"486 712 OFFCURVE",
"474 724 CURVE SMOOTH",
"454 744 OFFCURVE",
"447 777 OFFCURVE",
"472 803 CURVE SMOOTH",
"483 814 OFFCURVE",
"496 820 OFFCURVE",
"510 820 CURVE SMOOTH",
"540 820 OFFCURVE",
"565 792 OFFCURVE",
"565 762 CURVE SMOOTH",
"565 751 OFFCURVE",
"562 741 OFFCURVE",
"555 731 CURVE",
"558 728 LINE",
"574 744 OFFCURVE",
"582 762 OFFCURVE",
"582 778 CURVE SMOOTH",
"582 810 OFFCURVE",
"552 836 OFFCURVE",
"510 833 CURVE SMOOTH",
"460 830 OFFCURVE",
"435 796 OFFCURVE",
"435 758 CURVE SMOOTH",
"435 720 OFFCURVE",
"460 686 OFFCURVE",
"510 682 CURVE SMOOTH",
"521 681 OFFCURVE",
"538 682 OFFCURVE",
"547 686 CURVE",
"553 669 OFFCURVE",
"555 652 OFFCURVE",
"556 623 CURVE"
);
}
);
width = 676;
}
);
leftKerningGroup = D;
rightKerningGroup = I;
unicode = 016E;
},
{
glyphname = V;
lastChange = "2020-05-19 10:49:45 +0000";
layers = (
{
anchors = (
{
name = bottom;
position = "{373, 0}";
},
{
name = top;
position = "{373, 722}";
}
);
layerId = "452AD06C-4D92-427C-8B35-838986F56274";
paths = (
{
closed = 1;
nodes = (
"619 701 OFFCURVE",
"636 657 OFFCURVE",
"615 602 CURVE SMOOTH",
"464 214 LINE SMOOTH",
"440 153 OFFCURVE",
"427 127 OFFCURVE",
"421 101 CURVE",
"418 127 OFFCURVE",
"406 166 OFFCURVE",
"396 190 CURVE SMOOTH",
"209 635 LINE SMOOTH",
"186 689 OFFCURVE",
"184 704 OFFCURVE",
"184 722 CURVE",
"30 722 LINE",
"30 717 LINE",
"78 712 OFFCURVE",
"108 690 OFFCURVE",
"135 625 CURVE",
"404 -12 LINE",
"632 587 LINE SMOOTH",
"674 697 OFFCURVE",
"686 714 OFFCURVE",
"714 717 CURVE",
"714 722 LINE",
"571 722 LINE"
);
}
);
width = 745;
}
);
leftKerningGroup = W;
rightKerningGroup = W;
unicode = 0056;
},
{
glyphname = V.ss01;
lastChange = "2020-05-19 10:49:45 +0000";
layers = (
{
anchors = (
{
name = bottom;
position = "{419, 0}";
},
{
name = top;
position = "{419, 722}";
}
);
layerId = "452AD06C-4D92-427C-8B35-838986F56274";
paths = (
{
closed = 1;
nodes = (
"571 716 LINE",
"633 712 OFFCURVE",
"646 682 OFFCURVE",
"615 602 CURVE SMOOTH",
"464 214 LINE SMOOTH",
"446 168 OFFCURVE",
"434 142 OFFCURVE",
"427 121 CURVE",
"209 635 LINE SMOOTH",
"186 689 OFFCURVE",
"184 704 OFFCURVE",
"184 722 CURVE",
"30 722 LINE",
"30 717 LINE",
"78 712 OFFCURVE",
"107 690 OFFCURVE",
"135 625 CURVE SMOOTH",
"400 0 LINE",
"460 0 OFFCURVE",
"484 -40 OFFCURVE",
"518 -98 CURVE",
"524 -95 LINE",
"442 88 LINE",
"632 587 LINE SMOOTH",
"670 685 OFFCURVE",
"679 703 OFFCURVE",
"708 722 CURVE",
"571 722 LINE"
);
}
);
width = 740;
}
);
leftKerningGroup = W;
rightKerningGroup = W;
},
{
glyphname = W;
lastChange = "2020-05-19 10:49:45 +0000";
layers = (
{
anchors = (
{
name = bottom;
position = "{539, 0}";
},
{
name = top;
position = "{538, 723}";
}
);
layerId = "452AD06C-4D92-427C-8B35-838986F56274";
paths = (
{
closed = 1;
nodes = (
"538 722 LINE",
"303 67 LINE",
"300 -10 LINE",
"513 590 LINE",
"737 -12 LINE",
"765 112 LINE"
);
},
{
closed = 1;
nodes = (
"108 625 CURVE SMOOTH",
"300 -10 LINE",
"332 123 LINE",
"171 657 LINE SMOOTH",
"165 678 OFFCURVE",
"159 701 OFFCURVE",
"159 722 CURVE",
"30 722 LINE",
"30 717 LINE",
"78 717 OFFCURVE",
"88 692 OFFCURVE"
);
},
{
closed = 1;
nodes = (
"948 656 OFFCURVE",
"976 710 OFFCURVE",
"1008 717 CURVE",
"1008 722 LINE",
"869 722 LINE",
"931 710 OFFCURVE",
"927 670 OFFCURVE",
"906 602 CURVE SMOOTH",
"736 65 LINE",
"737 -12 LINE",
"926 587 LINE SMOOTH"
);
}
);
width = 1039;
}
);
leftKerningGroup = W;
rightKerningGroup = W;
unicode = 0057;
},
{
glyphname = W.ss01;
lastChange = "2020-05-19 10:49:45 +0000";
layers = (
{
anchors = (
{
name = bottom;
position = "{576, 0}";
},
{
name = top;
position = "{576, 722}";
}
);
layerId = "452AD06C-4D92-427C-8B35-838986F56274";
paths = (
{
closed = 1;
nodes = (
"898 87 LINE",
"901 93 OFFCURVE",
"904 99 OFFCURVE",
"906 105 CURVE",
"906 77 OFFCURVE",
"906 28 OFFCURVE",
"896 0 CURVE",
"986 0 LINE",
"976 29 OFFCURVE",
"976 58 OFFCURVE",
"976 87 CURVE SMOOTH",
"976 636 LINE",
"976 665 OFFCURVE",
"978 694 OFFCURVE",
"986 722 CURVE",
"825 722 LINE",
"825 717 LINE",
"902 717 OFFCURVE",
"906 700 OFFCURVE",
"906 594 CURVE SMOOTH",
"906 281 LINE SMOOTH",
"906 250 OFFCURVE",
"910 144 OFFCURVE",
"902 117 CURVE"
);
},
{
closed = 1;
nodes = (
"917 155 LINE",
"892 73 OFFCURVE",
"831 23 OFFCURVE",
"751 23 CURVE SMOOTH",
"589 23 OFFCURVE",
"498 194 OFFCURVE",
"498 359 CURVE SMOOTH",
"498 534 OFFCURVE",
"593 701 OFFCURVE",
"748 778 CURVE",
"745 783 LINE",
"518 674 OFFCURVE",
"427 500 OFFCURVE",
"427 326 CURVE SMOOTH",
"427 139 OFFCURVE",
"541 -20 OFFCURVE",
"727 -20 CURVE SMOOTH",
"824 -20 OFFCURVE",
"896 35 OFFCURVE",
"919 103 CURVE"
);
},
{
closed = 1;
nodes = (
"526 92 LINE",
"494 46 OFFCURVE",
"444 23 OFFCURVE",
"384 23 CURVE SMOOTH",
"222 23 OFFCURVE",
"131 194 OFFCURVE",
"131 359 CURVE SMOOTH",
"131 534 OFFCURVE",
"226 701 OFFCURVE",
"381 778 CURVE",
"378 783 LINE",
"151 674 OFFCURVE",
"61 500 OFFCURVE",
"61 326 CURVE SMOOTH",
"61 139 OFFCURVE",
"174 -20 OFFCURVE",
"360 -20 CURVE SMOOTH",
"446 -20 OFFCURVE",
"508 15 OFFCURVE",
"541 71 CURVE"
);
}
);
width = 1078;
}
);
leftKerningGroup = O;
rightKerningGroup = I;
},
{
glyphname = X;
lastChange = "2020-05-19 10:49:45 +0000";
layers = (
{
anchors = (
{
name = bottom;
position = "{329, 0}";
},
{
name = top;
position = "{329, 722}";
}
);
layerId = "452AD06C-4D92-427C-8B35-838986F56274";
paths = (
{
closed = 1;
nodes = (
"632 13 OFFCURVE",
"608 59 OFFCURVE",
"583 100 CURVE SMOOTH",
"232 673 LINE SMOOTH",
"222 689 OFFCURVE",
"211 706 OFFCURVE",
"208 722 CURVE",
"50 722 LINE",
"50 717 LINE",
"121 710 OFFCURVE",
"126 705 OFFCURVE",
"167 638 CURVE SMOOTH",
"517 75 LINE SMOOTH",
"555 14 OFFCURVE",
"580 0 OFFCURVE",
"674 -9 CURVE",
"676 0 LINE"
);
},
{
closed = 1;
nodes = (
"380 421 LINE",
"149 80 LINE SMOOTH",
"114 29 OFFCURVE",
"87 9 OFFCURVE",
"32 5 CURVE",
"32 0 LINE",
"197 0 LINE",
"177 25 OFFCURVE",
"175 54 OFFCURVE",
"199 91 CURVE SMOOTH",
"391 389 LINE"
);
},
{
closed = 1;
nodes = (
"398 389 LINE",
"543 615 LINE SMOOTH",
"589 687 OFFCURVE",
"615 713 OFFCURVE",
"669 717 CURVE",
"669 722 LINE",
"491 722 LINE",
"491 717 LINE",
"536 696 OFFCURVE",
"533 649 OFFCURVE",
"500 598 CURVE SMOOTH",
"380 417 LINE"
);
}
);
width = 706;
}
);
leftKerningGroup = Z;
rightKerningGroup = Z;
unicode = 0058;
},
{
glyphname = X.ss01;
lastChange = "2020-05-19 10:49:45 +0000";
layers = (
{
anchors = (
{
name = bottom;
position = "{403, 0}";
},
{
name = top;
position = "{403, 722}";
}
);
layerId = "452AD06C-4D92-427C-8B35-838986F56274";
paths = (
{
closed = 1;
nodes = (
"757 0 LINE",
"381 526 LINE",
"430 611 OFFCURVE",
"525 672 OFFCURVE",
"577 672 CURVE SMOOTH",
"599 672 OFFCURVE",
"612 661 OFFCURVE",
"612 638 CURVE SMOOTH",
"612 627 OFFCURVE",
"610 614 OFFCURVE",
"604 599 CURVE",
"613 599 LINE",
"667 715 LINE",
"641 727 OFFCURVE",
"623 732 OFFCURVE",
"585 732 CURVE SMOOTH",
"492 732 OFFCURVE",
"428 652 OFFCURVE",
"358 551 CURVE",
"338 578 LINE SMOOTH",
"272 668 OFFCURVE",
"202 706 OFFCURVE",
"141 706 CURVE SMOOTH",
"103 706 OFFCURVE",
"67 690 OFFCURVE",
"39 662 CURVE",
"44 657 LINE",
"65 670 OFFCURVE",
"85 676 OFFCURVE",
"104 676 CURVE SMOOTH",
"155 676 OFFCURVE",
"199 634 OFFCURVE",
"248 575 CURVE SMOOTH",
"319 490 LINE",
"168 219 OFFCURVE",
"153 188 OFFCURVE",
"51 0 CURVE",
"156 0 LINE",
"189 150 OFFCURVE",
"259 334 OFFCURVE",
"343 462 CURVE",
"437 345 OFFCURVE",
"511 229 OFFCURVE",
"655 0 CURVE"
);
}
);
width = 788;
}
);
leftKerningGroup = Z;
rightKerningGroup = Z;
},
{
glyphname = Y;
lastChange = "2020-05-19 10:49:45 +0000";
layers = (
{
anchors = (
{
name = bottom;
position = "{345, 0}";
},
{
name = top;
position = "{345, 722}";
},
{
name = topleft;
position = "{40, 722}";
}
);
layerId = "452AD06C-4D92-427C-8B35-838986F56274";
paths = (
{
closed = 1;
nodes = (
"499 722 LINE",
"539 709 OFFCURVE",
"556 681 OFFCURVE",
"524 623 CURVE SMOOTH",
"360 326 LINE",
"192 660 LINE SMOOTH",
"175 694 OFFCURVE",
"166 709 OFFCURVE",
"164 722 CURVE",
"30 722 LINE",
"30 717 LINE",
"81 713 OFFCURVE",
"91 704 OFFCURVE",
"113 661 CURVE SMOOTH",
"303 291 LINE",
"303 10 LINE SMOOTH",
"303 -31 OFFCURVE",
"295 -61 OFFCURVE",
"255 -130 CURVE",
"260 -132 LINE",
"291 -86 OFFCURVE",
"330 0 OFFCURVE",
"373 0 CURVE",
"373 292 LINE",
"480 490 OFFCURVE",
"538 594 OFFCURVE",
"572 655 CURVE SMOOTH",
"601 706 OFFCURVE",
"617 717 OFFCURVE",
"640 717 CURVE",
"640 722 LINE"
);
}
);
width = 670;
}
);
leftKerningGroup = W;
rightKerningGroup = W;
unicode = 0059;
},
{
glyphname = Y.ss01;
lastChange = "2020-05-19 10:49:45 +0000";
layers = (
{
anchors = (
{
name = bottom;
position = "{366, 0}";
},
{
name = top;
position = "{366, 722}";
},
{
name = topleft;
position = "{-9, 722}";
}
);
layerId = "452AD06C-4D92-427C-8B35-838986F56274";
paths = (
{
closed = 1;
nodes = (
"501 717 LINE",
"582 717 OFFCURVE",
"583 675 OFFCURVE",
"583 537 CURVE SMOOTH",
"583 219 LINE SMOOTH",
"583 202 OFFCURVE",
"582 156 OFFCURVE",
"579 132 CURVE",
"550 59 OFFCURVE",
"488 23 OFFCURVE",
"408 23 CURVE SMOOTH",
"238 23 OFFCURVE",
"132 184 OFFCURVE",
"132 349 CURVE SMOOTH",
"132 524 OFFCURVE",
"242 701 OFFCURVE",
"405 778 CURVE",
"402 783 LINE",
"163 674 OFFCURVE",
"58 490 OFFCURVE",
"58 316 CURVE SMOOTH",
"58 129 OFFCURVE",
"187 -20 OFFCURVE",
"383 -20 CURVE SMOOTH",
"481 -20 OFFCURVE",
"548 21 OFFCURVE",
"581 85 CURVE",
"574 -122 OFFCURVE",
"470 -240 OFFCURVE",
"353 -240 CURVE SMOOTH",
"274 -240 OFFCURVE",
"211 -218 OFFCURVE",
"163 -119 CURVE",
"141 -119 OFFCURVE",
"68 -112 OFFCURVE",
"13 -69 CURVE",
"6 -78 LINE",
"113 -207 OFFCURVE",
"224 -263 OFFCURVE",
"349 -263 CURVE SMOOTH",
"517 -263 OFFCURVE",
"653 -140 OFFCURVE",
"653 119 CURVE SMOOTH",
"653 620 LINE SMOOTH",
"653 663 OFFCURVE",
"656 689 OFFCURVE",
"661 722 CURVE",
"501 722 LINE"
);
}
);
width = 754;
}
);
leftKerningGroup = O;
rightKerningGroup = I;
},
{
glyphname = Z;
lastChange = "2020-05-19 10:49:45 +0000";
layers = (
{
anchors = (
{
name = bottom;
position = "{356, 0}";
},
{
name = center;
position = "{356, 361}";
},
{
name = top;
position = "{356, 722}";
}
);
layerId = "452AD06C-4D92-427C-8B35-838986F56274";
paths = (
{
closed = 1;
nodes = (
"631 97 OFFCURVE",
"595 64 OFFCURVE",
"552 64 CURVE SMOOTH",
"468 64 OFFCURVE",
"393 127 OFFCURVE",
"290 127 CURVE SMOOTH",
"242 127 OFFCURVE",
"188 113 OFFCURVE",
"125 74 CURVE",
"121 78 LINE",
"670 732 LINE",
"661 739 LINE",
"619 721 OFFCURVE",
"574 722 OFFCURVE",
"437 722 CURVE SMOOTH",
"284 722 OFFCURVE",
"204 718 OFFCURVE",
"145 748 CURVE",
"73 528 LINE",
"81 527 LINE",
"131 646 OFFCURVE",
"152 658 OFFCURVE",
"274 658 CURVE SMOOTH",
"548 658 LINE",
"31 -3 LINE",
"52 -17 LINE",
"119 53 OFFCURVE",
"181 86 OFFCURVE",
"286 86 CURVE SMOOTH",
"396 86 OFFCURVE",
"437 -1 OFFCURVE",
"540 -14 CURVE SMOOTH",
"563 -17 OFFCURVE",
"600 -14 OFFCURVE",
"627 6 CURVE",
"627 60 OFFCURVE",
"658 142 OFFCURVE",
"658 189 CURVE",
"650 191 LINE",
"649 178 OFFCURVE",
"646 161 OFFCURVE",
"643 148 CURVE SMOOTH"
);
}
);
width = 709;
}
);
leftKerningGroup = Z;
rightKerningGroup = Z;
unicode = 005A;
},
{
glyphname = Z.ss01;
lastChange = "2020-05-19 10:49:45 +0000";
layers = (
{
anchors = (
{
name = bottom;
position = "{340, 0}";
},
{
name = center;
position = "{340, 361}";
},
{
name = top;
position = "{340, 722}";
}
);
layerId = "452AD06C-4D92-427C-8B35-838986F56274";
paths = (
{
closed = 1;
nodes = (
"546 70 OFFCURVE",
"459 62 CURVE SMOOTH",
"340 51 OFFCURVE",
"264 122 OFFCURVE",
"149 116 CURVE",
"343 313 OFFCURVE",
"450 467 OFFCURVE",
"566 655 CURVE SMOOTH",
"582 681 OFFCURVE",
"601 704 OFFCURVE",
"625 729 CURVE",
"622 734 LINE",
"596 726 OFFCURVE",
"489 722 OFFCURVE",
"380 722 CURVE SMOOTH",
"120 722 OFFCURVE",
"98 721 OFFCURVE",
"50 750 CURVE",
"50 650 OFFCURVE",
"112 579 OFFCURVE",
"165 537 CURVE",
"172 540 LINE",
"149 574 OFFCURVE",
"133 616 OFFCURVE",
"133 647 CURVE SMOOTH",
"133 676 OFFCURVE",
"146 696 OFFCURVE",
"180 696 CURVE SMOOTH",
"502 696 LINE",
"427 547 OFFCURVE",
"311 331 OFFCURVE",
"122 116 CURVE",
"51 113 OFFCURVE",
"37 43 OFFCURVE",
"46 -26 CURVE",
"56 -29 LINE",
"61 8 OFFCURVE",
"89 66 OFFCURVE",
"129 98 CURVE",
"186 98 OFFCURVE",
"226 71 OFFCURVE",
"268 44 CURVE SMOOTH",
"327 6 OFFCURVE",
"393 -14 OFFCURVE",
"451 -14 CURVE SMOOTH",
"544 -14 OFFCURVE",
"579 39 OFFCURVE",
"594 79 CURVE",
"581 91 OFFCURVE",
"588 148 OFFCURVE",
"608 214 CURVE",
"597 221 LINE",
"580 183 OFFCURVE"
);
}
);
width = 664;
}
);
leftKerningGroup = Z;
rightKerningGroup = Z;
},
{
glyphname = a;
lastChange = "2020-05-19 10:49:45 +0000";
layers = (
{
anchors = (
{
name = bottom;
position = "{287, 0}";
},
{
name = ogonek;
position = "{467, 10}";
},
{
name = top;
position = "{287, 500}";
}
);
guideLines = (
{
angle = -65.1519;
position = "{280, 458}";
}
);
layerId = "452AD06C-4D92-427C-8B35-838986F56274";
paths = (
{
closed = 1;
nodes = (
"291 458 LINE SMOOTH",
"284 473 OFFCURVE",
"277 486 OFFCURVE",
"277 500 CURVE",
"77 500 LINE",
"77 495 LINE",
"167 490 OFFCURVE",
"208 482 OFFCURVE",
"239 416 CURVE SMOOTH",
"269 351 LINE",
"142 341 OFFCURVE",
"37 261 OFFCURVE",
"37 149 CURVE SMOOTH",
"37 70 OFFCURVE",
"93 -12 OFFCURVE",
"190 -12 CURVE SMOOTH",
"252 -12 OFFCURVE",
"337 34 OFFCURVE",
"379 114 CURVE",
"417 33 LINE SMOOTH",
"422 22 OFFCURVE",
"426 9 OFFCURVE",
"422 0 CURVE",
"503 0 LINE"
);
},
{
closed = 1;
nodes = (
"141 33 OFFCURVE",
"93 105 OFFCURVE",
"93 173 CURVE SMOOTH",
"93 256 OFFCURVE",
"175 330 OFFCURVE",
"276 335 CURVE",
"371 130 LINE",
"337 71 OFFCURVE",
"267 33 OFFCURVE",
"218 33 CURVE SMOOTH"
);
}
);
width = 521;
}
);
leftKerningGroup = o;
rightKerningGroup = a;
unicode = 0061;
},
{
glyphname = a.ss01;
lastChange = "2020-05-19 10:49:45 +0000";
layers = (
{
anchors = (
{
name = bottom;
position = "{240, 0}";
},
{
name = ogonek;
position = "{420, 10}";
},
{
name = top;
position = "{240, 500}";
}
);
layerId = "452AD06C-4D92-427C-8B35-838986F56274";
paths = (
{
closed = 1;
nodes = (
"413 0 LINE",
"404 10 OFFCURVE",
"398 20 OFFCURVE",
"398 73 CURVE SMOOTH",
"398 166 OFFCURVE",
"398 244 OFFCURVE",
"398 322 CURVE SMOOTH",
"398 452 OFFCURVE",
"329 510 OFFCURVE",
"246 510 CURVE SMOOTH",
"191 510 OFFCURVE",
"128 484 OFFCURVE",
"76 429 CURVE",
"33 279 LINE",
"44 277 LINE",
"93 418 OFFCURVE",
"179 485 OFFCURVE",
"246 485 CURVE SMOOTH",
"303 485 OFFCURVE",
"327 441 OFFCURVE",
"327 341 CURVE SMOOTH",
"327 252 LINE",
"206 222 OFFCURVE",
"72 175 OFFCURVE",
"82 73 CURVE SMOOTH",
"87 22 OFFCURVE",
"117 -1 OFFCURVE",
"159 -1 CURVE SMOOTH",
"204 -1 OFFCURVE",
"276 28 OFFCURVE",
"328 75 CURVE",
"333 34 OFFCURVE",
"364 6 OFFCURVE",
"409 -5 CURVE"
);
},
{
closed = 1;
nodes = (
"327 95 LINE",
"286 67 OFFCURVE",
"232 42 OFFCURVE",
"198 42 CURVE SMOOTH",
"170 42 OFFCURVE",
"148 56 OFFCURVE",
"143 88 CURVE SMOOTH",
"134 148 OFFCURVE",
"208 202 OFFCURVE",
"327 231 CURVE"
);
}
);
width = 471;
}
);
leftKerningGroup = o;
note = a;
rightKerningGroup = d;
},
{
glyphname = aogonek;
lastChange = "2020-05-19 10:49:45 +0000";
layers = (
{
anchors = (
{
name = _ogonek;
position = "{363, 39}";
},
{
name = bottom;
position = "{287, 0}";
},
{
name = ogonek;
position = "{467, 10}";
},
{
name = top;
position = "{287, 500}";
}
);
layerId = "452AD06C-4D92-427C-8B35-838986F56274";
paths = (
{
closed = 1;
nodes = (
"501 0 LINE",
"291 458 LINE SMOOTH",
"283 475 OFFCURVE",
"280 482 OFFCURVE",
"275 500 CURVE",
"77 500 LINE",
"77 495 LINE",
"167 490 OFFCURVE",
"208 482 OFFCURVE",
"239 416 CURVE SMOOTH",
"269 351 LINE",
"142 341 OFFCURVE",
"37 261 OFFCURVE",
"37 149 CURVE SMOOTH",
"37 70 OFFCURVE",
"93 -12 OFFCURVE",
"190 -12 CURVE SMOOTH",
"252 -12 OFFCURVE",
"337 34 OFFCURVE",
"379 114 CURVE",
"417 33 LINE SMOOTH",
"420 26 OFFCURVE",
"426 15 OFFCURVE",
"430 4 CURVE",
"434 26 LINE",
"461 22 OFFCURVE",
"481 13 OFFCURVE",
"494 0 CURVE"
);
},
{
closed = 1;
nodes = (
"141 33 OFFCURVE",
"93 105 OFFCURVE",
"93 173 CURVE SMOOTH",
"93 256 OFFCURVE",
"175 330 OFFCURVE",
"276 335 CURVE",
"371 130 LINE",
"337 71 OFFCURVE",
"267 33 OFFCURVE",
"218 33 CURVE SMOOTH"
);
},
{
closed = 1;
nodes = (
"417 33 LINE",
"465 -61 OFFCURVE",
"419 -153 OFFCURVE",
"323 -124 CURVE",
"323 -131 LINE",
"465 -225 OFFCURVE",
"540 -87 OFFCURVE",
"419 37 CURVE"
);
}
);
width = 519;
}
);
leftKerningGroup = o;
rightKerningGroup = a;
unicode = 0105;
},
{
glyphname = aring;
lastChange = "2020-05-19 10:49:45 +0000";
layers = (
{
anchors = (
{
name = bottom;
position = "{287, 0}";
},
{
name = ogonek;
position = "{467, 10}";
},
{
name = top;
position = "{187, 651}";
}
);
layerId = "452AD06C-4D92-427C-8B35-838986F56274";
paths = (
{
closed = 1;
nodes = (
"291 458 LINE SMOOTH",
"283 475 OFFCURVE",
"280 482 OFFCURVE",
"275 500 CURVE",
"77 500 LINE",
"77 495 LINE",
"167 490 OFFCURVE",
"208 482 OFFCURVE",
"239 416 CURVE SMOOTH",
"269 351 LINE",
"142 341 OFFCURVE",
"37 261 OFFCURVE",
"37 149 CURVE SMOOTH",
"37 70 OFFCURVE",
"93 -12 OFFCURVE",
"190 -12 CURVE SMOOTH",
"252 -12 OFFCURVE",
"337 34 OFFCURVE",
"379 114 CURVE",
"417 33 LINE SMOOTH",
"422 22 OFFCURVE",
"426 9 OFFCURVE",
"422 0 CURVE",
"503 0 LINE"
);
},
{
closed = 1;
nodes = (
"141 33 OFFCURVE",
"93 105 OFFCURVE",
"93 173 CURVE SMOOTH",
"93 256 OFFCURVE",
"175 330 OFFCURVE",
"276 335 CURVE",
"371 130 LINE",
"337 71 OFFCURVE",
"267 33 OFFCURVE",
"218 33 CURVE SMOOTH"
);
},
{
closed = 1;
nodes = (
"204 511 LINE",
"192 531 OFFCURVE",
"191 558 OFFCURVE",
"212 580 CURVE SMOOTH",
"234 603 OFFCURVE",
"269 604 OFFCURVE",
"288 580 CURVE SMOOTH",
"304 560 OFFCURVE",
"310 525 OFFCURVE",
"290 502 CURVE",
"292 493 OFFCURVE",
"295 483 OFFCURVE",
"300 476 CURVE",
"317 504 OFFCURVE",
"325 512 OFFCURVE",
"325 533 CURVE SMOOTH",
"325 571 OFFCURVE",
"299 610 OFFCURVE",
"250 610 CURVE SMOOTH",
"200 610 OFFCURVE",
"175 573 OFFCURVE",
"175 535 CURVE SMOOTH",
"175 527 OFFCURVE",
"176 519 OFFCURVE",
"178 511 CURVE"
);
}
);
width = 521;
}
);
leftKerningGroup = o;
rightKerningGroup = a;
unicode = 00E5;
},
{
glyphname = ae;
lastChange = "2020-05-19 10:49:45 +0000";
layers = (
{
anchors = (
{
name = bottom;
position = "{393, 0}";
},
{
name = top;
position = "{393, 500}";
}
);
layerId = "452AD06C-4D92-427C-8B35-838986F56274";
paths = (
{
closed = 1;
nodes = (
"727 90 OFFCURVE",
"648 37 OFFCURVE",
"568 37 CURVE SMOOTH",
"567 37 LINE SMOOTH",
"491 37 OFFCURVE",
"433 75 OFFCURVE",
"401 133 CURVE SMOOTH",
"378 174 OFFCURVE",
"368 225 OFFCURVE",
"371 280 CURVE",
"706 280 LINE SMOOTH",
"728 280 OFFCURVE",
"744 275 OFFCURVE",
"758 267 CURVE",
"763 270 LINE",
"744 302 LINE",
"636 302 LINE",
"695 331 OFFCURVE",
"725 371 OFFCURVE",
"725 407 CURVE SMOOTH",
"725 463 OFFCURVE",
"658 510 OFFCURVE",
"552 510 CURVE SMOOTH",
"488 510 OFFCURVE",
"433 490 OFFCURVE",
"391 455 CURVE SMOOTH",
"362 431 OFFCURVE",
"339 400 OFFCURVE",
"324 363 CURVE",
"280 458 LINE SMOOTH",
"272 475 OFFCURVE",
"268 484 OFFCURVE",
"265 500 CURVE",
"77 500 LINE",
"77 495 LINE",
"166 488 OFFCURVE",
"209 481 OFFCURVE",
"239 416 CURVE SMOOTH",
"269 351 LINE",
"142 341 OFFCURVE",
"37 261 OFFCURVE",
"37 149 CURVE SMOOTH",
"37 70 OFFCURVE",
"93 -12 OFFCURVE",
"190 -12 CURVE SMOOTH",
"243 -12 OFFCURVE",
"312 21 OFFCURVE",
"358 81 CURVE",
"396 35 OFFCURVE",
"473 -4 OFFCURVE",
"542 -4 CURVE SMOOTH",
"635 -4 OFFCURVE",
"717 54 OFFCURVE",
"764 140 CURVE",
"758 143 LINE"
);
},
{
closed = 1;
nodes = (
"620 493 OFFCURVE",
"666 444 OFFCURVE",
"666 392 CURVE SMOOTH",
"666 359 OFFCURVE",
"648 325 OFFCURVE",
"607 302 CURVE",
"373 302 LINE",
"379 343 OFFCURVE",
"392 382 OFFCURVE",
"411 413 CURVE SMOOTH",
"441 461 OFFCURVE",
"486 493 OFFCURVE",
"544 493 CURVE SMOOTH"
);
},
{
closed = 1;
nodes = (
"141 33 OFFCURVE",
"93 105 OFFCURVE",
"93 173 CURVE SMOOTH",
"93 256 OFFCURVE",
"175 330 OFFCURVE",
"276 335 CURVE",
"303 277 LINE",
"302 266 OFFCURVE",
"301 255 OFFCURVE",
"301 244 CURVE SMOOTH",
"301 186 OFFCURVE",
"318 136 OFFCURVE",
"346 96 CURVE",
"309 57 OFFCURVE",
"257 33 OFFCURVE",
"218 33 CURVE SMOOTH"
);
}
);
width = 802;
}
);
leftKerningGroup = o;
rightKerningGroup = e;
unicode = 00E6;
},
{
glyphname = b;
lastChange = "2020-05-19 10:49:45 +0000";
layers = (
{
anchors = (
{
name = bottom;
position = "{289, 0}";
},
{
name = top;
position = "{289, 800}";
}
);
layerId = "452AD06C-4D92-427C-8B35-838986F56274";
paths = (
{
closed = 1;
nodes = (
"249 500 OFFCURVE",
"191 485 OFFCURVE",
"146 447 CURVE",
"146 645 LINE SMOOTH",
"146 727 OFFCURVE",
"148 752 OFFCURVE",
"161 797 CURVE",
"153 800 LINE",
"64 646 LINE",
"64 638 LINE",
"83 614 OFFCURVE",
"84 572 OFFCURVE",
"84 515 CURVE SMOOTH",
"84 61 LINE",
"56 53 LINE",
"113 10 OFFCURVE",
"186 -14 OFFCURVE",
"254 -14 CURVE SMOOTH",
"421 -14 OFFCURVE",
"509 111 OFFCURVE",
"509 266 CURVE SMOOTH",
"509 387 OFFCURVE",
"440 500 OFFCURVE",
"296 500 CURVE SMOOTH"
);
},
{
closed = 1;
nodes = (
"198 8 OFFCURVE",
"146 32 OFFCURVE",
"146 81 CURVE SMOOTH",
"146 378 LINE",
"196 447 OFFCURVE",
"258 478 OFFCURVE",
"303 478 CURVE SMOOTH",
"397 478 OFFCURVE",
"443 379 OFFCURVE",
"443 272 CURVE SMOOTH",
"443 125 OFFCURVE",
"379 8 OFFCURVE",
"255 8 CURVE SMOOTH"
);
}
);
width = 557;
}
);
leftKerningGroup = i;
rightKerningGroup = o;
unicode = 0062;
},
{
glyphname = b.ss01;
lastChange = "2020-05-19 10:49:45 +0000";
layers = (
{
anchors = (
{
name = bottom;
position = "{287, 0}";
},
{
name = top;
position = "{287, 800}";
}
);
layerId = "452AD06C-4D92-427C-8B35-838986F56274";
paths = (
{
closed = 1;
nodes = (
"151 -13 OFFCURVE",
"265 -13 CURVE SMOOTH",
"398 -13 OFFCURVE",
"544 93 OFFCURVE",
"544 292 CURVE SMOOTH",
"544 410 OFFCURVE",
"462 505 OFFCURVE",
"353 505 CURVE SMOOTH",
"271 505 OFFCURVE",
"195 461 OFFCURVE",
"158 384 CURVE",
"164 382 LINE",
"211 458 OFFCURVE",
"262 471 OFFCURVE",
"313 471 CURVE SMOOTH",
"398 471 OFFCURVE",
"487 372 OFFCURVE",
"487 239 CURVE SMOOTH",
"487 94 OFFCURVE",
"398 23 OFFCURVE",
"308 23 CURVE SMOOTH",
"214 23 OFFCURVE",
"109 94 OFFCURVE",
"109 247 CURVE SMOOTH",
"109 326 OFFCURVE",
"128 398 OFFCURVE",
"178 461 CURVE SMOOTH",
"294 607 OFFCURVE",
"334 673 OFFCURVE",
"322 768 CURVE",
"316 770 LINE",
"307 729 OFFCURVE",
"268 728 OFFCURVE",
"226 726 CURVE SMOOTH",
"185 724 OFFCURVE",
"140 723 OFFCURVE",
"117 683 CURVE",
"121 679 LINE",
"138 699 OFFCURVE",
"158 707 OFFCURVE",
"177 707 CURVE SMOOTH",
"209 707 OFFCURVE",
"237 680 OFFCURVE",
"237 638 CURVE SMOOTH",
"237 599 OFFCURVE",
"215 546 OFFCURVE",
"163 483 CURVE SMOOTH",
"93 398 OFFCURVE",
"47 307 OFFCURVE",
"47 217 CURVE SMOOTH",
"47 54 OFFCURVE"
);
}
);
width = 590;
}
);
leftKerningGroup = o;
rightKerningGroup = o;
},
{
glyphname = c;
lastChange = "2020-05-19 10:49:45 +0000";
layers = (
{
anchors = (
{
name = bottom;
position = "{271, 0}";
},
{
name = top;
position = "{271, 500}";
}
);
layerId = "452AD06C-4D92-427C-8B35-838986F56274";
paths = (
{
closed = 1;
nodes = (
"505 145 LINE",
"469 76 OFFCURVE",
"402 36 OFFCURVE",
"323 36 CURVE SMOOTH",
"196 36 OFFCURVE",
"111 136 OFFCURVE",
"111 285 CURVE SMOOTH",
"111 412 OFFCURVE",
"171 487 OFFCURVE",
"273 487 CURVE SMOOTH",
"370 487 OFFCURVE",
"447 433 OFFCURVE",
"465 360 CURVE",
"472 361 LINE",
"455 474 LINE",
"413 492 OFFCURVE",
"352 505 OFFCURVE",
"293 505 CURVE SMOOTH",
"152 505 OFFCURVE",
"45 393 OFFCURVE",
"45 245 CURVE SMOOTH",
"45 103 OFFCURVE",
"150 -3 OFFCURVE",
"291 -3 CURVE SMOOTH",
"387 -3 OFFCURVE",
"466 48 OFFCURVE",
"511 140 CURVE"
);
}
);
width = 539;
}
);
leftKerningGroup = o;
rightKerningGroup = o;
unicode = 0063;
},
{
glyphname = c.ss01;
lastChange = "2020-05-19 10:49:45 +0000";
layers = (
{
anchors = (
{
name = bottom;
position = "{269, 0}";
},
{
name = top;
position = "{269, 500}";
}
);
layerId = "452AD06C-4D92-427C-8B35-838986F56274";
paths = (
{
closed = 1;
nodes = (
"504 145 LINE",
"468 76 OFFCURVE",
"402 36 OFFCURVE",
"322 36 CURVE SMOOTH",
"195 36 OFFCURVE",
"110 136 OFFCURVE",
"110 285 CURVE SMOOTH",
"110 412 OFFCURVE",
"180 487 OFFCURVE",
"282 487 CURVE SMOOTH",
"359 487 OFFCURVE",
"415 433 OFFCURVE",
"415 373 CURVE SMOOTH",
"415 350 OFFCURVE",
"408 324 OFFCURVE",
"393 297 CURVE",
"399 293 LINE",
"435 338 OFFCURVE",
"441 409 OFFCURVE",
"483 422 CURVE",
"437 470 OFFCURVE",
"365 505 OFFCURVE",
"299 505 CURVE SMOOTH",
"159 505 OFFCURVE",
"44 392 OFFCURVE",
"44 245 CURVE SMOOTH",
"44 103 OFFCURVE",
"149 -3 OFFCURVE",
"290 -3 CURVE SMOOTH",
"387 -3 OFFCURVE",
"465 47 OFFCURVE",
"510 140 CURVE"
);
}
);
width = 535;
}
);
leftKerningGroup = o;
rightKerningGroup = o;
},
{
glyphname = d;
lastChange = "2020-05-19 10:49:45 +0000";
layers = (
{
anchors = (
{
name = bottom;
position = "{282, 0}";
},
{
name = center;
position = "{282, 250}";
},
{
name = top;
position = "{282, 800}";
},
{
name = topright;
position = "{525, 500}";
}
);
layerId = "452AD06C-4D92-427C-8B35-838986F56274";
paths = (
{
closed = 1;
nodes = (
"486 731 OFFCURVE",
"488 754 OFFCURVE",
"501 797 CURVE",
"493 800 LINE",
"404 646 LINE",
"404 638 LINE",
"419 619 OFFCURVE",
"428 595 OFFCURVE",
"425 521 CURVE SMOOTH",
"424 497 OFFCURVE",
"426 466 OFFCURVE",
"431 447 CURVE",
"398 480 OFFCURVE",
"348 501 OFFCURVE",
"292 501 CURVE SMOOTH",
"155 501 OFFCURVE",
"45 387 OFFCURVE",
"45 245 CURVE SMOOTH",
"45 101 OFFCURVE",
"145 -10 OFFCURVE",
"274 -10 CURVE SMOOTH",
"334 -10 OFFCURVE",
"392 14 OFFCURVE",
"423 56 CURVE",
"423 26 OFFCURVE",
"422 8 OFFCURVE",
"420 0 CURVE",
"497 0 LINE",
"488 21 OFFCURVE",
"486 31 OFFCURVE",
"486 51 CURVE SMOOTH",
"486 645 LINE SMOOTH"
);
},
{
closed = 1;
nodes = (
"432 96 OFFCURVE",
"368 11 OFFCURVE",
"280 11 CURVE SMOOTH",
"186 11 OFFCURVE",
"116 115 OFFCURVE",
"116 255 CURVE SMOOTH",
"116 392 OFFCURVE",
"180 483 OFFCURVE",
"278 483 CURVE SMOOTH",
"389 483 OFFCURVE",
"432 368 OFFCURVE",
"432 226 CURVE SMOOTH"
);
}
);
width = 567;
}
);
leftKerningGroup = o;
rightKerningGroup = d;
unicode = 0064;
},
{
glyphname = d.ss01;
lastChange = "2020-05-19 10:49:45 +0000";
layers = (
{
anchors = (
{
name = bottom;
position = "{234, 0}";
},
{
name = center;
position = "{234, 250}";
},
{
name = top;
position = "{234, 800}";
},
{
name = topright;
position = "{477, 500}";
}
);
layerId = "452AD06C-4D92-427C-8B35-838986F56274";
paths = (
{
closed = 1;
nodes = (
"406 416 LINE",
"364 474 OFFCURVE",
"308 500 OFFCURVE",
"251 500 CURVE SMOOTH",
"148 500 OFFCURVE",
"46 412 OFFCURVE",
"46 274 CURVE SMOOTH",
"46 137 OFFCURVE",
"129 -13 OFFCURVE",
"287 -13 CURVE SMOOTH",
"401 -13 OFFCURVE",
"495 74 OFFCURVE",
"495 237 CURVE SMOOTH",
"495 327 OFFCURVE",
"460 403 OFFCURVE",
"390 488 CURVE SMOOTH",
"338 551 OFFCURVE",
"315 599 OFFCURVE",
"315 638 CURVE SMOOTH",
"315 680 OFFCURVE",
"353 707 OFFCURVE",
"385 707 CURVE SMOOTH",
"404 707 OFFCURVE",
"424 699 OFFCURVE",
"441 679 CURVE",
"445 683 LINE",
"422 723 OFFCURVE",
"377 724 OFFCURVE",
"336 726 CURVE SMOOTH",
"294 728 OFFCURVE",
"255 729 OFFCURVE",
"246 770 CURVE",
"240 768 LINE",
"228 673 OFFCURVE",
"255 617 OFFCURVE",
"371 471 CURVE SMOOTH",
"386 452 OFFCURVE",
"399 435 OFFCURVE",
"408 418 CURVE"
);
},
{
closed = 1;
nodes = (
"152 23 OFFCURVE",
"104 114 OFFCURVE",
"104 218 CURVE SMOOTH",
"104 377 OFFCURVE",
"190 464 OFFCURVE",
"279 464 CURVE SMOOTH",
"354 464 OFFCURVE",
"433 401 OFFCURVE",
"433 267 CURVE SMOOTH",
"433 114 OFFCURVE",
"348 23 OFFCURVE",
"254 23 CURVE SMOOTH"
);
}
);
width = 544;
}
);
leftKerningGroup = o;
rightKerningGroup = o;
},
{
glyphname = eth;
lastChange = "2020-05-19 10:49:45 +0000";
layers = (
{
layerId = "452AD06C-4D92-427C-8B35-838986F56274";
paths = (
{
closed = 1;
nodes = (
"365 518 OFFCURVE",
"347 544 OFFCURVE",
"335 568 CURVE",
"357 572 OFFCURVE",
"386 584 OFFCURVE",
"409 601 CURVE SMOOTH",
"435 621 OFFCURVE",
"449 645 OFFCURVE",
"448 672 CURVE SMOOTH",
"446 718 OFFCURVE",
"391 728 OFFCURVE",
"339 731 CURVE SMOOTH",
"293 734 OFFCURVE",
"250 735 OFFCURVE",
"246 780 CURVE",
"240 778 LINE",
"234 730 OFFCURVE",
"253 661 OFFCURVE",
"273 616 CURVE",
"261 620 OFFCURVE",
"244 623 OFFCURVE",
"230 625 CURVE SMOOTH",
"178 632 OFFCURVE",
"122 595 OFFCURVE",
"102 533 CURVE",
"110 530 LINE",
"124 564 OFFCURVE",
"146 580 OFFCURVE",
"171 585 CURVE SMOOTH",
"223 595 OFFCURVE",
"249 567 OFFCURVE",
"301 565 CURVE",
"319 538 OFFCURVE",
"342 507 OFFCURVE",
"371 471 CURVE SMOOTH",
"386 452 OFFCURVE",
"399 435 OFFCURVE",
"408 418 CURVE",
"406 416 LINE",
"364 474 OFFCURVE",
"308 500 OFFCURVE",
"251 500 CURVE SMOOTH",
"148 500 OFFCURVE",
"46 412 OFFCURVE",
"46 274 CURVE SMOOTH",
"46 137 OFFCURVE",
"129 -13 OFFCURVE",
"287 -13 CURVE SMOOTH",
"401 -13 OFFCURVE",
"495 74 OFFCURVE",
"495 237 CURVE SMOOTH",
"495 327 OFFCURVE",
"460 403 OFFCURVE",
"390 488 CURVE SMOOTH"
);
},
{
closed = 1;
nodes = (
"295 652 OFFCURVE",
"295 670 CURVE SMOOTH",
"295 695 OFFCURVE",
"313 713 OFFCURVE",
"366 713 CURVE SMOOTH",
"411 713 OFFCURVE",
"435 697 OFFCURVE",
"436 674 CURVE SMOOTH",
"437 649 OFFCURVE",
"403 624 OFFCURVE",
"367 613 CURVE SMOOTH",
"349 607 OFFCURVE",
"330 606 OFFCURVE",
"315 610 CURVE",
"303 631 OFFCURVE"
);
},
{
closed = 1;
nodes = (
"152 23 OFFCURVE",
"104 114 OFFCURVE",
"104 218 CURVE SMOOTH",
"104 377 OFFCURVE",
"190 464 OFFCURVE",
"279 464 CURVE SMOOTH",
"354 464 OFFCURVE",
"433 401 OFFCURVE",
"433 267 CURVE SMOOTH",
"433 114 OFFCURVE",
"348 23 OFFCURVE",
"254 23 CURVE SMOOTH"
);
}
);
width = 544;
}
);
leftKerningGroup = o;
rightKerningGroup = d;
unicode = 00F0;
},
{
glyphname = dcroat;
lastChange = "2020-05-19 10:49:45 +0000";
layers = (
{
components = (
{
alignment = -1;
name = d;
}
);
layerId = "452AD06C-4D92-427C-8B35-838986F56274";
paths = (
{
closed = 1;
nodes = (
"361 642 CURVE SMOOTH",
"319 624 OFFCURVE",
"271 618 OFFCURVE",
"234 683 CURVE",
"227 678 LINE",
"240 647 OFFCURVE",
"279 605 OFFCURVE",
"330 591 CURVE SMOOTH",
"359 583 OFFCURVE",
"392 584 OFFCURVE",
"428 601 CURVE SMOOTH",
"478 625 OFFCURVE",
"542 638 OFFCURVE",
"579 575 CURVE",
"587 578 LINE",
"551 653 OFFCURVE",
"468 683 OFFCURVE"
);
}
);
width = 567;
}
);
leftKerningGroup = o;
rightKerningGroup = d;
unicode = 0111;
},
{
glyphname = e;
lastChange = "2020-05-19 10:49:45 +0000";
layers = (
{
anchors = (
{
name = bottom;
position = "{270, 0}";
},
{
name = ogonek;
position = "{472, 10}";
},
{
name = top;
position = "{270, 500}";
}
);
layerId = "452AD06C-4D92-427C-8B35-838986F56274";
paths = (
{
closed = 1;
nodes = (
"123 417 OFFCURVE",
"186 487 OFFCURVE",
"268 487 CURVE SMOOTH",
"344 487 OFFCURVE",
"389 424 OFFCURVE",
"389 316 CURVE",
"113 316 LINE"
);
},
{
closed = 1;
nodes = (
"463 311 LINE",
"462 434 OFFCURVE",
"390 506 OFFCURVE",
"279 506 CURVE SMOOTH",
"146 506 OFFCURVE",
"46 399 OFFCURVE",
"46 255 CURVE SMOOTH",
"46 202 OFFCURVE",
"56 158 OFFCURVE",
"77 121 CURVE SMOOTH",
"120 45 OFFCURVE",
"202 -4 OFFCURVE",
"288 -4 CURVE SMOOTH",
"381 -4 OFFCURVE",
"463 54 OFFCURVE",
"510 140 CURVE",
"504 143 LINE",
"473 90 OFFCURVE",
"394 37 OFFCURVE",
"314 37 CURVE SMOOTH",
"228 37 OFFCURVE",
"165 81 OFFCURVE",
"134 164 CURVE SMOOTH",
"119 204 OFFCURVE",
"111 250 OFFCURVE",
"111 296 CURVE",
"443 296 LINE"
);
}
);
width = 535;
}
);
leftKerningGroup = o;
rightKerningGroup = e;
unicode = 0065;
},
{
glyphname = e.ss01;
lastChange = "2020-05-19 10:49:45 +0000";
layers = (
{
anchors = (
{
name = bottom;
position = "{255, 0}";
},
{
name = ogonek;
position = "{453, 10}";
},
{
name = top;
position = "{255, 500}";
}
);
layerId = "452AD06C-4D92-427C-8B35-838986F56274";
paths = (
{
closed = 1;
nodes = (
"425 45 OFFCURVE",
"383 22 OFFCURVE",
"322 22 CURVE SMOOTH",
"198 22 OFFCURVE",
"111 129 OFFCURVE",
"111 282 CURVE SMOOTH",
"111 295 LINE",
"407 295 LINE SMOOTH",
"429 295 OFFCURVE",
"447 291 OFFCURVE",
"459 281 CURVE",
"464 284 LINE",
"445 316 LINE",
"340 316 LINE",
"526 371 OFFCURVE",
"482 503 OFFCURVE",
"289 503 CURVE SMOOTH",
"145 503 OFFCURVE",
"45 397 OFFCURVE",
"45 245 CURVE SMOOTH",
"45 101 OFFCURVE",
"150 -3 OFFCURVE",
"296 -3 CURVE SMOOTH",
"374 -3 OFFCURVE",
"429 27 OFFCURVE",
"476 97 CURVE",
"470 102 LINE"
);
},
{
closed = 1;
nodes = (
"418 486 OFFCURVE",
"443 358 OFFCURVE",
"304 316 CURVE",
"113 316 LINE",
"123 422 OFFCURVE",
"186 486 OFFCURVE",
"281 486 CURVE SMOOTH"
);
}
);
width = 515;
}
);
leftKerningGroup = o;
rightKerningGroup = e;
},
{
glyphname = e.ss02;
lastChange = "2020-05-19 10:49:45 +0000";
layers = (
{
anchors = (
{
name = bottom;
position = "{268, 0}";
},
{
name = ogonek;
position = "{475, 10}";
},
{
name = top;
position = "{268, 500}";
}
);
layerId = "452AD06C-4D92-427C-8B35-838986F56274";
paths = (
{
closed = 1;
nodes = (
"505 145 LINE",
"469 76 OFFCURVE",
"402 36 OFFCURVE",
"323 36 CURVE SMOOTH",
"196 36 OFFCURVE",
"111 136 OFFCURVE",
"111 285 CURVE SMOOTH",
"111 412 OFFCURVE",
"171 487 OFFCURVE",
"273 487 CURVE SMOOTH",
"360 487 OFFCURVE",
"437 433 OFFCURVE",
"455 360 CURVE",
"462 361 LINE",
"445 474 LINE",
"403 492 OFFCURVE",
"342 505 OFFCURVE",
"293 505 CURVE SMOOTH",
"152 505 OFFCURVE",
"45 393 OFFCURVE",
"45 245 CURVE SMOOTH",
"45 103 OFFCURVE",
"150 -3 OFFCURVE",
"291 -3 CURVE SMOOTH",
"387 -3 OFFCURVE",
"466 48 OFFCURVE",
"511 140 CURVE"
);
},
{
closed = 1;
nodes = (
"301 145 LINE",
"339 263 OFFCURVE",
"427 293 OFFCURVE",
"435 301 CURVE",
"84 301 LINE",
"104 281 LINE",
"331 281 LINE SMOOTH",
"354 281 OFFCURVE",
"353 275 OFFCURVE",
"340 253 CURVE SMOOTH",
"328 233 OFFCURVE",
"310 200 OFFCURVE",
"294 148 CURVE"
);
}
);
width = 536;
}
);
leftKerningGroup = o;
rightKerningGroup = e;
},
{
glyphname = f;
lastChange = "2020-05-19 10:49:45 +0000";
layers = (
{
anchors = (
{
name = bottom;
position = "{175, 0}";
},
{
name = top;
position = "{175, 800}";
}
);
layerId = "452AD06C-4D92-427C-8B35-838986F56274";
paths = (
{
closed = 1;
nodes = (
"168 500 LINE",
"167 529 OFFCURVE",
"167 555 OFFCURVE",
"167 579 CURVE SMOOTH",
"167 688 OFFCURVE",
"175 767 OFFCURVE",
"257 767 CURVE SMOOTH",
"304 767 OFFCURVE",
"328 733 OFFCURVE",
"328 682 CURVE SMOOTH",
"328 659 OFFCURVE",
"323 633 OFFCURVE",
"313 605 CURVE",
"320 601 LINE",
"398 739 LINE",
"369 771 OFFCURVE",
"322 789 OFFCURVE",
"282 789 CURVE SMOOTH",
"173 789 OFFCURVE",
"115 725 OFFCURVE",
"109 597 CURVE SMOOTH",
"107 552 OFFCURVE",
"108 511 OFFCURVE",
"108 500 CURVE",
"37 500 LINE",
"16 464 LINE",
"22 461 LINE",
"32 480 OFFCURVE",
"41 480 OFFCURVE",
"69 480 CURVE SMOOTH",
"108 480 LINE",
"108 12 LINE SMOOTH",
"108 -51 OFFCURVE",
"69 -133 OFFCURVE",
"40 -196 CURVE",
"48 -200 LINE",
"97 -110 OFFCURVE",
"122 -54 OFFCURVE",
"168 0 CURVE",
"168 480 LINE",
"294 480 LINE",
"314 507 LINE",
"308 511 LINE",
"296 502 OFFCURVE",
"289 500 OFFCURVE",
"261 500 CURVE SMOOTH"
);
}
);
width = 321;
}
);
leftKerningGroup = f;
rightKerningGroup = f;
unicode = 0066;
},
{
glyphname = f.ss01;
lastChange = "2020-05-19 10:49:45 +0000";
layers = (
{
anchors = (
{
name = bottom;
position = "{208, 0}";
},
{
name = top;
position = "{208, 800}";
}
);
layerId = "452AD06C-4D92-427C-8B35-838986F56274";
paths = (
{
closed = 1;
nodes = (
"142 789 OFFCURVE",
"87 640 OFFCURVE",
"93 500 CURVE",
"37 500 LINE",
"20 471 LINE",
"26 468 LINE",
"44 478 OFFCURVE",
"57 480 OFFCURVE",
"85 480 CURVE SMOOTH",
"92 480 LINE",
"92 72 LINE SMOOTH",
"92 47 OFFCURVE",
"90 24 OFFCURVE",
"77 0 CURVE",
"172 0 LINE",
"159 24 OFFCURVE",
"157 47 OFFCURVE",
"157 83 CURVE SMOOTH",
"157 480 LINE",
"204 480 OFFCURVE",
"255 478 OFFCURVE",
"280 471 CURVE",
"286 472 LINE",
"312 516 LINE",
"306 519 LINE",
"296 500 OFFCURVE",
"287 500 OFFCURVE",
"259 500 CURVE SMOOTH",
"157 500 LINE",
"157 674 OFFCURVE",
"135 753 OFFCURVE",
"255 753 CURVE SMOOTH",
"321 753 OFFCURVE",
"343 699 OFFCURVE",
"322 615 CURVE",
"329 611 LINE",
"387 739 LINE",
"358 771 OFFCURVE",
"311 789 OFFCURVE",
"271 789 CURVE SMOOTH"
);
}
);
width = 316;
}
);
leftKerningGroup = f;
note = f;
rightKerningGroup = f;
},
{
glyphname = f.ss02;
lastChange = "2020-05-19 10:49:45 +0000";
layers = (
{
anchors = (
{
name = bottom;
position = "{222, 0}";
},
{
name = top;
position = "{222, 800}";
}
);
layerId = "452AD06C-4D92-427C-8B35-838986F56274";
paths = (
{
closed = 1;
nodes = (
"161 394 LINE",
"171 508 LINE SMOOTH",
"182 632 OFFCURVE",
"174 753 OFFCURVE",
"291 753 CURVE SMOOTH",
"357 753 OFFCURVE",
"364 699 OFFCURVE",
"334 595 CURVE",
"340 591 LINE",
"383 695 OFFCURVE",
"392 710 OFFCURVE",
"421 739 CURVE",
"395 771 OFFCURVE",
"350 789 OFFCURVE",
"310 789 CURVE SMOOTH",
"185 789 OFFCURVE",
"119 616 OFFCURVE",
"109 508 CURVE SMOOTH",
"99 394 LINE",
"62 394 LINE",
"43 366 LINE",
"48 363 LINE",
"64 371 OFFCURVE",
"76 373 OFFCURVE",
"97 374 CURVE",
"93 307 OFFCURVE",
"80 151 OFFCURVE",
"78 126 CURVE SMOOTH",
"59 -87 OFFCURVE",
"122 -165 OFFCURVE",
"192 -165 CURVE SMOOTH",
"286 -165 OFFCURVE",
"345 -94 OFFCURVE",
"356 23 CURVE SMOOTH",
"363 102 OFFCURVE",
"330 174 OFFCURVE",
"272 256 CURVE",
"314 344 OFFCURVE",
"354 385 OFFCURVE",
"364 394 CURVE"
);
},
{
closed = 1;
nodes = (
"321 374 OFFCURVE",
"298 349 OFFCURVE",
"264 268 CURVE",
"240 301 OFFCURVE",
"212 336 OFFCURVE",
"181 374 CURVE",
"271 374 LINE SMOOTH"
);
},
{
closed = 1;
nodes = (
"287 -76 OFFCURVE",
"255 -148 OFFCURVE",
"207 -148 CURVE SMOOTH",
"133 -148 OFFCURVE",
"123 -58 OFFCURVE",
"139 128 CURVE SMOOTH",
"141 154 OFFCURVE",
"155 307 OFFCURVE",
"159 367 CURVE",
"199 322 OFFCURVE",
"230 282 OFFCURVE",
"253 241 CURVE",
"237 201 OFFCURVE",
"220 149 OFFCURVE",
"207 83 CURVE",
"214 86 LINE",
"228 142 OFFCURVE",
"244 189 OFFCURVE",
"260 228 CURVE",
"291 167 OFFCURVE",
"303 104 OFFCURVE",
"296 24 CURVE SMOOTH"
);
}
);
width = 403;
}
);
leftKerningGroup = f;
rightKerningGroup = o;
},
{
glyphname = g;
lastChange = "2020-05-19 10:49:45 +0000";
layers = (
{
anchors = (
{
name = bottom;
position = "{271, -200}";
},
{
name = top;
position = "{271, 500}";
}
);
layerId = "452AD06C-4D92-427C-8B35-838986F56274";
paths = (
{
closed = 1;
nodes = (
"426 454 OFFCURVE",
"347 505 OFFCURVE",
"262 505 CURVE SMOOTH",
"164 505 OFFCURVE",
"59 437 OFFCURVE",
"59 313 CURVE SMOOTH",
"59 232 OFFCURVE",
"115 177 OFFCURVE",
"182 156 CURVE",
"42 113 LINE",
"52 46 OFFCURVE",
"109 31 OFFCURVE",
"146 28 CURVE",
"26 -110 LINE",
"66 -174 OFFCURVE",
"149 -204 OFFCURVE",
"231 -204 CURVE SMOOTH",
"345 -204 OFFCURVE",
"446 -130 OFFCURVE",
"446 -29 CURVE SMOOTH",
"446 71 OFFCURVE",
"383 89 OFFCURVE",
"310 89 CURVE SMOOTH",
"219 89 OFFCURVE",
"114 66 OFFCURVE",
"108 115 CURVE",
"258 160 LINE SMOOTH",
"357 190 OFFCURVE",
"426 245 OFFCURVE",
"426 345 CURVE SMOOTH"
);
},
{
closed = 1;
nodes = (
"108 432 OFFCURVE",
"166 475 OFFCURVE",
"227 475 CURVE SMOOTH",
"295 475 OFFCURVE",
"366 423 OFFCURVE",
"366 318 CURVE SMOOTH",
"366 248 OFFCURVE",
"324 212 OFFCURVE",
"266 188 CURVE",
"197 200 OFFCURVE",
"108 254 OFFCURVE",
"108 346 CURVE SMOOTH"
);
},
{
closed = 1;
nodes = (
"398 -1 OFFCURVE",
"398 -56 CURVE SMOOTH",
"398 -112 OFFCURVE",
"351 -172 OFFCURVE",
"267 -172 CURVE SMOOTH",
"197 -172 OFFCURVE",
"124 -142 OFFCURVE",
"114 -82 CURVE SMOOTH",
"109 -52 OFFCURVE",
"133 -1 OFFCURVE",
"160 27 CURVE",
"203 25 OFFCURVE",
"245 26 OFFCURVE",
"283 30 CURVE SMOOTH",
"368 39 OFFCURVE"
);
},
{
closed = 1;
nodes = (
"349 471 LINE",
"385 493 OFFCURVE",
"475 495 OFFCURVE",
"510 495 CURVE",
"510 500 LINE",
"472 501 OFFCURVE",
"443 512 OFFCURVE",
"419 535 CURVE",
"324 486 LINE"
);
}
);
width = 522;
}
);
leftKerningGroup = o;
rightKerningGroup = g;
unicode = 0067;
},
{
glyphname = g.ss01;
lastChange = "2020-05-19 10:49:45 +0000";
layers = (
{
anchors = (
{
name = bottom;
position = "{260, -200}";
},
{
name = top;
position = "{260, 500}";
}
);
layerId = "452AD06C-4D92-427C-8B35-838986F56274";
paths = (
{
closed = 1;
nodes = (
"87 500 LINE",
"67 466 LINE",
"73 463 LINE",
"91 477 OFFCURVE",
"107 480 OFFCURVE",
"135 480 CURVE SMOOTH",
"250 480 LINE",
"129 452 OFFCURVE",
"46 354 OFFCURVE",
"46 261 CURVE SMOOTH",
"46 137 OFFCURVE",
"137 47 OFFCURVE",
"246 47 CURVE SMOOTH",
"294 47 OFFCURVE",
"346 63 OFFCURVE",
"392 99 CURVE",
"391 -26 OFFCURVE",
"360 -185 OFFCURVE",
"225 -185 CURVE SMOOTH",
"140 -185 OFFCURVE",
"52 -100 OFFCURVE",
"132 28 CURVE",
"123 32 LINE",
"32 -100 LINE",
"73 -176 OFFCURVE",
"142 -208 OFFCURVE",
"220 -208 CURVE SMOOTH",
"404 -208 OFFCURVE",
"462 -50 OFFCURVE",
"462 99 CURVE SMOOTH",
"462 416 LINE SMOOTH",
"462 462 OFFCURVE",
"464 473 OFFCURVE",
"476 500 CURVE"
);
},
{
closed = 1;
nodes = (
"363 101 OFFCURVE",
"306 68 OFFCURVE",
"256 68 CURVE SMOOTH",
"185 68 OFFCURVE",
"120 152 OFFCURVE",
"120 275 CURVE SMOOTH",
"120 410 OFFCURVE",
"230 478 OFFCURVE",
"335 478 CURVE SMOOTH",
"354 478 OFFCURVE",
"373 475 OFFCURVE",
"391 471 CURVE",
"391 173 LINE"
);
}
);
width = 544;
}
);
leftKerningGroup = o;
note = g;
rightKerningGroup = d;
},
{
glyphname = g.ss02;
lastChange = "2020-05-19 10:49:45 +0000";
layers = (
{
anchors = (
{
name = bottom;
position = "{200, -200}";
},
{
name = top;
position = "{200, 500}";
}
);
layerId = "452AD06C-4D92-427C-8B35-838986F56274";
paths = (
{
closed = 1;
nodes = (
"392 480 LINE",
"413 509 LINE",
"408 513 LINE",
"395 504 OFFCURVE",
"376 500 OFFCURVE",
"348 500 CURVE SMOOTH",
"56 500 LINE",
"36 472 LINE",
"43 469 LINE",
"62 478 OFFCURVE",
"77 480 OFFCURVE",
"108 480 CURVE SMOOTH",
"251 480 LINE",
"122 440 OFFCURVE",
"61 361 OFFCURVE",
"67 275 CURVE SMOOTH",
"73 191 OFFCURVE",
"139 153 OFFCURVE",
"208 109 CURVE",
"198 112 OFFCURVE",
"188 114 OFFCURVE",
"178 114 CURVE SMOOTH",
"90 114 OFFCURVE",
"49 46 OFFCURVE",
"49 -27 CURVE SMOOTH",
"49 -111 OFFCURVE",
"104 -202 OFFCURVE",
"207 -202 CURVE SMOOTH",
"290 -202 OFFCURVE",
"375 -145 OFFCURVE",
"375 -31 CURVE SMOOTH",
"375 55 OFFCURVE",
"316 108 OFFCURVE",
"257 156 CURVE SMOOTH",
"195 205 OFFCURVE",
"132 248 OFFCURVE",
"132 314 CURVE SMOOTH",
"132 404 OFFCURVE",
"189 443 OFFCURVE",
"285 480 CURVE"
);
},
{
closed = 1;
nodes = (
"328 -143 OFFCURVE",
"282 -183 OFFCURVE",
"233 -183 CURVE SMOOTH",
"159 -183 OFFCURVE",
"119 -98 OFFCURVE",
"119 -21 CURVE SMOOTH",
"119 42 OFFCURVE",
"146 99 OFFCURVE",
"205 99 CURVE SMOOTH",
"261 99 OFFCURVE",
"328 11 OFFCURVE",
"328 -57 CURVE SMOOTH"
);
}
);
width = 422;
}
);
leftKerningGroup = o;
rightKerningGroup = t;
},
{
glyphname = h;
lastChange = "2020-05-19 10:49:45 +0000";
layers = (
{
anchors = (
{
name = bottom;
position = "{267, 0}";
},
{
name = center;
position = "{267, 400}";
},
{
name = top;
position = "{267, 800}";
}
);
layerId = "452AD06C-4D92-427C-8B35-838986F56274";
paths = (
{
closed = 1;
nodes = (
"143 646 LINE",
"143 728 OFFCURVE",
"145 752 OFFCURVE",
"158 797 CURVE",
"150 800 LINE",
"61 646 LINE",
"61 638 LINE",
"80 614 OFFCURVE",
"81 572 OFFCURVE",
"81 515 CURVE SMOOTH",
"81 45 LINE SMOOTH",
"81 23 OFFCURVE",
"80 14 OFFCURVE",
"73 0 CURVE",
"154 0 LINE",
"146 19 OFFCURVE",
"143 29 OFFCURVE",
"143 51 CURVE"
);
},
{
closed = 1;
nodes = (
"430 58 OFFCURVE",
"490 180 OFFCURVE",
"490 305 CURVE SMOOTH",
"490 412 OFFCURVE",
"436 511 OFFCURVE",
"305 511 CURVE SMOOTH",
"246 511 OFFCURVE",
"183 484 OFFCURVE",
"134 435 CURVE",
"134 373 LINE",
"175 450 OFFCURVE",
"238 488 OFFCURVE",
"292 488 CURVE SMOOTH",
"387 488 OFFCURVE",
"421 381 OFFCURVE",
"421 281 CURVE SMOOTH",
"421 181 OFFCURVE",
"389 45 OFFCURVE",
"274 -70 CURVE",
"283 -76 LINE"
);
}
);
width = 538;
}
);
leftKerningGroup = l;
rightKerningGroup = n;
unicode = 0068;
},
{
glyphname = hbar;
lastChange = "2020-05-19 10:49:45 +0000";
layers = (
{
layerId = "452AD06C-4D92-427C-8B35-838986F56274";
paths = (
{
closed = 1;
nodes = (
"246 511 OFFCURVE",
"191 489 OFFCURVE",
"144 447 CURVE",
"144 646 LINE SMOOTH",
"144 728 OFFCURVE",
"146 752 OFFCURVE",
"159 797 CURVE",
"151 800 LINE",
"62 646 LINE",
"62 638 LINE",
"81 614 OFFCURVE",
"82 572 OFFCURVE",
"82 515 CURVE SMOOTH",
"82 45 LINE SMOOTH",
"82 23 OFFCURVE",
"81 14 OFFCURVE",
"74 0 CURVE",
"155 0 LINE",
"147 19 OFFCURVE",
"144 29 OFFCURVE",
"144 51 CURVE SMOOTH",
"144 388 LINE",
"185 447 OFFCURVE",
"238 478 OFFCURVE",
"286 478 CURVE SMOOTH",
"381 478 OFFCURVE",
"412 381 OFFCURVE",
"412 281 CURVE SMOOTH",
"412 181 OFFCURVE",
"383 45 OFFCURVE",
"268 -70 CURVE",
"277 -76 LINE",
"424 58 OFFCURVE",
"484 180 OFFCURVE",
"484 305 CURVE SMOOTH",
"484 412 OFFCURVE",
"430 511 OFFCURVE",
"299 511 CURVE SMOOTH"
);
},
{
closed = 1;
nodes = (
"308 652 OFFCURVE",
"299 652 OFFCURVE",
"271 652 CURVE SMOOTH",
"30 652 LINE",
"9 616 LINE",
"15 613 LINE",
"25 632 OFFCURVE",
"34 632 OFFCURVE",
"62 632 CURVE SMOOTH",
"303 632 LINE",
"324 668 LINE",
"318 671 LINE"
);
}
);
width = 532;
}
);
leftKerningGroup = l;
rightKerningGroup = n;
unicode = 0127;
},
{
glyphname = i;
lastChange = "2020-05-19 10:49:45 +0000";
layers = (
{
layerId = "452AD06C-4D92-427C-8B35-838986F56274";
paths = (
{
closed = 1;
nodes = (
"174 0 LINE",
"162 17 OFFCURVE",
"159 38 OFFCURVE",
"159 60 CURVE SMOOTH",
"159 427 LINE",
"159 451 OFFCURVE",
"160 477 OFFCURVE",
"166 500 CURVE",
"12 500 LINE",
"12 493 LINE",
"70 490 OFFCURVE",
"94 470 OFFCURVE",
"94 395 CURVE SMOOTH",
"94 60 LINE SMOOTH",
"94 31 OFFCURVE",
"86 15 OFFCURVE",
"78 0 CURVE"
);
},
{
closed = 1;
nodes = (
"139 560 OFFCURVE",
"158 579 OFFCURVE",
"158 603 CURVE SMOOTH",
"158 626 OFFCURVE",
"139 645 OFFCURVE",
"116 645 CURVE SMOOTH",
"92 645 OFFCURVE",
"73 626 OFFCURVE",
"73 603 CURVE SMOOTH",
"73 579 OFFCURVE",
"92 560 OFFCURVE",
"116 560 CURVE SMOOTH"
);
}
);
width = 243;
}
);
leftKerningGroup = i;
rightKerningGroup = l;
unicode = 0069;
},
{
glyphname = dotlessi;
lastChange = "2020-05-19 10:49:45 +0000";
layers = (
{
anchors = (
{
name = bottom;
position = "{128, 0}";
},
{
name = ogonek;
position = "{206, 10}";
},
{
name = top;
position = "{128, 500}";
}
);
layerId = "452AD06C-4D92-427C-8B35-838986F56274";
paths = (
{
closed = 1;
nodes = (
"174 0 LINE",
"162 17 OFFCURVE",
"159 38 OFFCURVE",
"159 60 CURVE SMOOTH",
"159 426 LINE SMOOTH",
"159 450 OFFCURVE",
"160 477 OFFCURVE",
"166 500 CURVE",
"12 500 LINE",
"12 493 LINE",
"70 490 OFFCURVE",
"94 470 OFFCURVE",
"94 395 CURVE SMOOTH",
"94 60 LINE SMOOTH",
"94 31 OFFCURVE",
"86 15 OFFCURVE",
"78 0 CURVE"
);
}
);
width = 243;
}
);
leftKerningGroup = i;
rightKerningGroup = l;
unicode = 0131;
},
{
glyphname = idotaccent;
lastChange = "2020-05-19 10:49:45 +0000";
layers = (
{
components = (
{
name = dotlessi;
}
);
layerId = "452AD06C-4D92-427C-8B35-838986F56274";
paths = (
{
closed = 1;
nodes = (
"183 621 LINE",
"183 644 LINE",
"104 633 LINE",
"114 714 LINE",
"88 714 LINE",
"100 633 LINE",
"19 641 LINE",
"19 621 LINE",
"100 630 LINE",
"88 547 LINE",
"114 547 LINE",
"104 630 LINE"
);
}
);
width = 240;
}
);
leftKerningGroup = i;
rightKerningGroup = l;
},
{
glyphname = j;
lastChange = "2020-05-19 10:49:45 +0000";
layers = (
{
layerId = "452AD06C-4D92-427C-8B35-838986F56274";
paths = (
{
closed = 1;
nodes = (
"69 492 OFFCURVE",
"88 476 OFFCURVE",
"88 415 CURVE SMOOTH",
"88 118 LINE SMOOTH",
"88 -27 OFFCURVE",
"54 -100 OFFCURVE",
"-26 -193 CURVE",
"-19 -200 LINE",
"73 -116 OFFCURVE",
"118 -3 OFFCURVE",
"153 23 CURVE",
"153 424 LINE SMOOTH",
"153 449 OFFCURVE",
"154 475 OFFCURVE",
"159 500 CURVE",
"22 500 LINE",
"22 494 LINE"
);
},
{
closed = 1;
nodes = (
"134 560 OFFCURVE",
"153 579 OFFCURVE",
"153 603 CURVE SMOOTH",
"153 626 OFFCURVE",
"134 645 OFFCURVE",
"111 645 CURVE SMOOTH",
"87 645 OFFCURVE",
"68 626 OFFCURVE",
"68 603 CURVE SMOOTH",
"68 579 OFFCURVE",
"87 560 OFFCURVE",
"111 560 CURVE SMOOTH"
);
}
);
width = 234;
}
);
leftKerningGroup = j;
rightKerningGroup = l;
unicode = 006A;
},
{
glyphname = k;
lastChange = "2020-05-19 10:49:45 +0000";
layers = (
{
anchors = (
{
name = bottom;
position = "{282, 0}";
},
{
name = top;
position = "{282, 800}";
}
);
guideLines = (
{
angle = 48.9035;
position = "{142, 264}";
}
);
layerId = "452AD06C-4D92-427C-8B35-838986F56274";
paths = (
{
closed = 1;
nodes = (
"245 340 LINE",
"312 417 LINE SMOOTH",
"366 480 OFFCURVE",
"387 486 OFFCURVE",
"464 494 CURVE",
"464 500 LINE",
"322 500 LINE",
"307 456 OFFCURVE",
"299 444 OFFCURVE",
"234 370 CURVE SMOOTH",
"142 264 LINE",
"142 646 LINE SMOOTH",
"142 728 OFFCURVE",
"144 752 OFFCURVE",
"157 797 CURVE",
"149 800 LINE",
"60 646 LINE",
"60 638 LINE",
"79 614 OFFCURVE",
"80 572 OFFCURVE",
"80 515 CURVE SMOOTH",
"80 45 LINE SMOOTH",
"80 23 OFFCURVE",
"79 14 OFFCURVE",
"72 0 CURVE",
"153 0 LINE",
"145 19 OFFCURVE",
"142 29 OFFCURVE",
"142 51 CURVE SMOOTH",
"142 222 LINE",
"197 283 LINE",
"377 0 LINE",
"511 0 LINE",
"511 8 LINE",
"461 12 OFFCURVE",
"438 27 OFFCURVE",
"404 82 CURVE SMOOTH"
);
}
);
width = 524;
}
);
leftKerningGroup = l;
rightKerningGroup = e;
unicode = 006B;
},
{
glyphname = k.ss01;
lastChange = "2020-05-19 10:49:45 +0000";
layers = (
{
anchors = (
{
name = bottom;
position = "{247, 0}";
},
{
name = top;
position = "{247, 800}";
}
);
layerId = "452AD06C-4D92-427C-8B35-838986F56274";
paths = (
{
closed = 1;
nodes = (
"138 402 LINE",
"196 438 OFFCURVE",
"267 463 OFFCURVE",
"318 463 CURVE SMOOTH",
"355 463 OFFCURVE",
"380 449 OFFCURVE",
"380 416 CURVE SMOOTH",
"380 377 OFFCURVE",
"285 308 OFFCURVE",
"169 294 CURVE",
"160 276 LINE",
"208 275 OFFCURVE",
"252 268 OFFCURVE",
"288 253 CURVE SMOOTH",
"342 231 OFFCURVE",
"377 190 OFFCURVE",
"377 126 CURVE SMOOTH",
"377 60 OFFCURVE",
"328 -26 OFFCURVE",
"228 -94 CURVE",
"237 -98 LINE",
"365 -22 OFFCURVE",
"444 80 OFFCURVE",
"444 153 CURVE SMOOTH",
"444 201 OFFCURVE",
"411 238 OFFCURVE",
"362 260 CURVE SMOOTH",
"325 278 OFFCURVE",
"280 287 OFFCURVE",
"233 287 CURVE",
"234 291 LINE",
"382 320 OFFCURVE",
"447 387 OFFCURVE",
"447 443 CURVE SMOOTH",
"447 485 OFFCURVE",
"416 502 OFFCURVE",
"371 502 CURVE SMOOTH",
"302 502 OFFCURVE",
"202 463 OFFCURVE",
"138 423 CURVE"
);
},
{
closed = 1;
nodes = (
"143 646 LINE",
"143 728 OFFCURVE",
"145 752 OFFCURVE",
"158 797 CURVE",
"150 800 LINE",
"61 646 LINE",
"61 638 LINE",
"80 614 OFFCURVE",
"81 572 OFFCURVE",
"81 515 CURVE SMOOTH",
"81 72 LINE SMOOTH",
"81 34 OFFCURVE",
"77 10 OFFCURVE",
"67 0 CURVE",
"157 0 LINE",
"151 12 OFFCURVE",
"143 35 OFFCURVE",
"143 73 CURVE SMOOTH"
);
}
);
width = 495;
}
);
leftKerningGroup = l;
note = k;
rightKerningGroup = o;
},
{
glyphname = k.ss02;
lastChange = "2020-05-19 10:49:45 +0000";
layers = (
{
anchors = (
{
name = bottom;
position = "{282, 0}";
},
{
name = top;
position = "{282, 800}";
}
);
guideLines = (
{
angle = 48.9035;
position = "{142, 192}";
}
);
layerId = "452AD06C-4D92-427C-8B35-838986F56274";
paths = (
{
closed = 1;
nodes = (
"433 42 OFFCURVE",
"408 81 CURVE SMOOTH",
"361 156 OFFCURVE",
"331 268 OFFCURVE",
"233 309 CURVE",
"310 419 LINE SMOOTH",
"356 485 OFFCURVE",
"385 486 OFFCURVE",
"462 494 CURVE",
"462 500 LINE",
"310 500 LINE",
"301 459 OFFCURVE",
"279 429 OFFCURVE",
"206 321 CURVE",
"191 326 OFFCURVE",
"164 323 OFFCURVE",
"142 316 CURVE",
"142 646 LINE SMOOTH",
"142 728 OFFCURVE",
"144 752 OFFCURVE",
"157 797 CURVE",
"149 800 LINE",
"60 646 LINE",
"60 638 LINE",
"79 614 OFFCURVE",
"80 572 OFFCURVE",
"80 515 CURVE SMOOTH",
"80 45 LINE SMOOTH",
"80 23 OFFCURVE",
"79 14 OFFCURVE",
"72 0 CURVE",
"153 0 LINE",
"145 19 OFFCURVE",
"142 29 OFFCURVE",
"142 51 CURVE SMOOTH",
"142 280 LINE",
"235 333 OFFCURVE",
"263 237 OFFCURVE",
"302 145 CURVE SMOOTH",
"323 93 OFFCURVE",
"346 40 OFFCURVE",
"377 0 CURVE",
"511 0 LINE",
"511 8 LINE",
"463 12 OFFCURVE"
);
}
);
width = 524;
}
);
leftKerningGroup = l;
rightKerningGroup = e;
},
{
glyphname = l;
lastChange = "2020-05-19 10:49:45 +0000";
layers = (
{
anchors = (
{
name = bottom;
position = "{115, 0}";
},
{
name = center;
position = "{115, 400}";
},
{
name = top;
position = "{115, 800}";
},
{
name = topright;
position = "{192, 800}";
}
);
layerId = "452AD06C-4D92-427C-8B35-838986F56274";
paths = (
{
closed = 1;
nodes = (
"143 645 LINE SMOOTH",
"143 727 OFFCURVE",
"145 752 OFFCURVE",
"158 797 CURVE",
"150 800 LINE",
"61 646 LINE",
"61 638 LINE",
"80 614 OFFCURVE",
"81 572 OFFCURVE",
"81 515 CURVE SMOOTH",
"81 45 LINE SMOOTH",
"81 23 OFFCURVE",
"80 14 OFFCURVE",
"73 0 CURVE",
"154 0 LINE",
"146 19 OFFCURVE",
"143 29 OFFCURVE",
"143 51 CURVE"
);
}
);
width = 224;
}
);
leftKerningGroup = l;
rightKerningGroup = l;
unicode = 006C;
},
{
glyphname = lslash;
lastChange = "2020-05-19 10:49:45 +0000";
layers = (
{
components = (
{
name = l;
transform = "{1, 0, 0, 1, 74, 0}";
}
);
layerId = "452AD06C-4D92-427C-8B35-838986F56274";
paths = (
{
closed = 1;
nodes = (
"305 377 OFFCURVE",
"283 367 OFFCURVE",
"262 367 CURVE SMOOTH",
"241 367 OFFCURVE",
"221 377 OFFCURVE",
"202 388 CURVE SMOOTH",
"179 401 OFFCURVE",
"152 410 OFFCURVE",
"127 410 CURVE SMOOTH",
"85 410 OFFCURVE",
"44 391 OFFCURVE",
"18 346 CURVE",
"24 341 LINE",
"42 367 OFFCURVE",
"63 376 OFFCURVE",
"84 376 CURVE SMOOTH",
"108 376 OFFCURVE",
"132 365 OFFCURVE",
"154 352 CURVE SMOOTH",
"176 339 OFFCURVE",
"197 333 OFFCURVE",
"217 333 CURVE SMOOTH",
"270 333 OFFCURVE",
"314 371 OFFCURVE",
"330 402 CURVE",
"325 407 LINE"
);
}
);
width = 348;
}
);
leftKerningGroup = l;
rightKerningGroup = l;
unicode = 0142;
},
{
glyphname = m;
lastChange = "2020-05-19 10:49:45 +0000";
layers = (
{
anchors = (
{
name = bottom;
position = "{397, 0}";
},
{
name = top;
position = "{397, 500}";
}
);
layerId = "452AD06C-4D92-427C-8B35-838986F56274";
paths = (
{
closed = 1;
nodes = (
"149 500 LINE",
"20 500 LINE",
"20 493 LINE",
"70 493 OFFCURVE",
"87 470 OFFCURVE",
"87 402 CURVE SMOOTH",
"87 55 LINE",
"87 34 OFFCURVE",
"82 16 OFFCURVE",
"71 0 CURVE",
"163 0 LINE",
"155 15 OFFCURVE",
"149 37 OFFCURVE",
"149 55 CURVE"
);
},
{
closed = 1;
nodes = (
"411 58 OFFCURVE",
"472 176 OFFCURVE",
"472 301 CURVE SMOOTH",
"472 408 OFFCURVE",
"417 511 OFFCURVE",
"292 511 CURVE SMOOTH",
"236 511 OFFCURVE",
"176 484 OFFCURVE",
"129 435 CURVE",
"129 373 LINE",
"168 450 OFFCURVE",
"228 488 OFFCURVE",
"280 488 CURVE SMOOTH",
"370 488 OFFCURVE",
"402 381 OFFCURVE",
"402 281 CURVE SMOOTH",
"402 181 OFFCURVE",
"372 45 OFFCURVE",
"263 -70 CURVE",
"271 -76 LINE"
);
},
{
closed = 1;
nodes = (
"701 58 OFFCURVE",
"761 176 OFFCURVE",
"761 301 CURVE SMOOTH",
"761 408 OFFCURVE",
"706 511 OFFCURVE",
"585 511 CURVE SMOOTH",
"530 511 OFFCURVE",
"472 484 OFFCURVE",
"426 435 CURVE",
"426 373 LINE",
"464 450 OFFCURVE",
"523 488 OFFCURVE",
"573 488 CURVE SMOOTH",
"661 488 OFFCURVE",
"691 381 OFFCURVE",
"691 281 CURVE SMOOTH",
"691 181 OFFCURVE",
"663 45 OFFCURVE",
"556 -70 CURVE",
"564 -76 LINE"
);
}
);
width = 809;
}
);
leftKerningGroup = i;
rightKerningGroup = n;
unicode = 006D;
},
{
glyphname = m.ss01;
lastChange = "2020-05-19 10:49:45 +0000";
layers = (
{
anchors = (
{
name = bottom;
position = "{401, 0}";
},
{
name = top;
position = "{401, 500}";
}
);
layerId = "452AD06C-4D92-427C-8B35-838986F56274";
paths = (
{
closed = 1;
nodes = (
"404 341 LINE",
"399 445 OFFCURVE",
"327 510 OFFCURVE",
"245 510 CURVE SMOOTH",
"150 510 OFFCURVE",
"48 432 OFFCURVE",
"48 290 CURVE SMOOTH",
"48 151 OFFCURVE",
"125 35 OFFCURVE",
"238 -77 CURVE",
"246 -72 LINE",
"165 23 OFFCURVE",
"121 122 OFFCURVE",
"121 275 CURVE SMOOTH",
"121 401 OFFCURVE",
"172 477 OFFCURVE",
"264 477 CURVE SMOOTH",
"318 477 OFFCURVE",
"375 435 OFFCURVE",
"375 338 CURVE SMOOTH",
"375 55 LINE SMOOTH",
"375 34 OFFCURVE",
"370 16 OFFCURVE",
"359 0 CURVE",
"451 0 LINE",
"443 17 OFFCURVE",
"437 39 OFFCURVE",
"437 55 CURVE SMOOTH",
"437 338 LINE SMOOTH",
"437 435 OFFCURVE",
"484 477 OFFCURVE",
"547 477 CURVE SMOOTH",
"613 477 OFFCURVE",
"679 411 OFFCURVE",
"679 274 CURVE SMOOTH",
"679 124 OFFCURVE",
"636 23 OFFCURVE",
"542 -72 CURVE",
"550 -77 LINE",
"688 35 OFFCURVE",
"754 162 OFFCURVE",
"754 290 CURVE SMOOTH",
"754 433 OFFCURVE",
"654 510 OFFCURVE",
"561 510 CURVE SMOOTH",
"476 510 OFFCURVE",
"413 446 OFFCURVE",
"411 341 CURVE"
);
}
);
width = 802;
}
);
leftKerningGroup = o;
rightKerningGroup = o;
},
{
glyphname = n;
lastChange = "2020-05-19 10:49:45 +0000";
layers = (
{
anchors = (
{
name = bottom;
position = "{259, 0}";
},
{
name = top;
position = "{259, 500}";
}
);
layerId = "452AD06C-4D92-427C-8B35-838986F56274";
paths = (
{
closed = 1;
nodes = (
"149 442 LINE",
"149 500 LINE",
"20 500 LINE",
"20 493 LINE",
"70 493 OFFCURVE",
"87 470 OFFCURVE",
"87 402 CURVE SMOOTH",
"87 55 LINE",
"87 34 OFFCURVE",
"82 16 OFFCURVE",
"71 0 CURVE",
"163 0 LINE",
"155 15 OFFCURVE",
"149 37 OFFCURVE",
"149 55 CURVE",
"149 373 LINE"
);
},
{
closed = 1;
nodes = (
"425 58 OFFCURVE",
"485 180 OFFCURVE",
"485 305 CURVE SMOOTH",
"485 412 OFFCURVE",
"431 511 OFFCURVE",
"300 511 CURVE SMOOTH",
"241 511 OFFCURVE",
"178 484 OFFCURVE",
"129 435 CURVE",
"129 373 LINE",
"170 450 OFFCURVE",
"233 488 OFFCURVE",
"287 488 CURVE SMOOTH",
"382 488 OFFCURVE",
"416 381 OFFCURVE",
"416 281 CURVE SMOOTH",
"416 181 OFFCURVE",
"384 45 OFFCURVE",
"269 -70 CURVE",
"278 -76 LINE"
);
}
);
width = 533;
}
);
leftKerningGroup = i;
rightKerningGroup = n;
unicode = 006E;
},
{
glyphname = ncommaaccent;
lastChange = "2020-05-19 10:49:45 +0000";
layers = (
{
anchors = (
{
name = bottom;
position = "{305, -86}";
},
{
name = top;
position = "{258, 500}";
}
);
layerId = "452AD06C-4D92-427C-8B35-838986F56274";
paths = (
{
closed = 1;
nodes = (
"148 500 LINE",
"19 500 LINE",
"19 493 LINE",
"69 493 OFFCURVE",
"86 470 OFFCURVE",
"86 402 CURVE SMOOTH",
"86 55 LINE SMOOTH",
"86 34 OFFCURVE",
"81 16 OFFCURVE",
"70 0 CURVE",
"162 0 LINE",
"154 15 OFFCURVE",
"148 37 OFFCURVE",
"148 55 CURVE"
);
},
{
closed = 1;
nodes = (
"424 58 OFFCURVE",
"484 180 OFFCURVE",
"484 305 CURVE SMOOTH",
"484 412 OFFCURVE",
"430 511 OFFCURVE",
"299 511 CURVE SMOOTH",
"240 511 OFFCURVE",
"177 484 OFFCURVE",
"128 435 CURVE",
"128 373 LINE",
"169 450 OFFCURVE",
"232 488 OFFCURVE",
"286 488 CURVE SMOOTH",
"381 488 OFFCURVE",
"415 381 OFFCURVE",
"415 281 CURVE SMOOTH",
"415 181 OFFCURVE",
"388 43 OFFCURVE",
"273 -72 CURVE",
"277 -76 LINE"
);
},
{
closed = 1;
nodes = (
"335 1 LINE",
"329 -8 OFFCURVE",
"311 -30 OFFCURVE",
"303 -39 CURVE",
"299 -37 LINE",
"313 -13 OFFCURVE",
"320 21 OFFCURVE",
"319 33 CURVE SMOOTH",
"316 63 OFFCURVE",
"300 91 OFFCURVE",
"268 85 CURVE SMOOTH",
"246 81 OFFCURVE",
"236 67 OFFCURVE",
"237 46 CURVE SMOOTH",
"238 15 OFFCURVE",
"268 -6 OFFCURVE",
"271 -35 CURVE SMOOTH",
"273 -55 OFFCURVE",
"263 -75 OFFCURVE",
"247 -94 CURVE",
"251 -98 LINE",
"280 -76 OFFCURVE",
"308 -49 OFFCURVE",
"333 -19 CURVE"
);
}
);
width = 532;
}
);
leftKerningGroup = i;
rightKerningGroup = n;
unicode = 0146;
},
{
glyphname = eng;
lastChange = "2020-05-19 10:49:45 +0000";
layers = (
{
anchors = (
{
name = bottom;
position = "{258, 0}";
},
{
name = top;
position = "{258, 500}";
}
);
layerId = "452AD06C-4D92-427C-8B35-838986F56274";
paths = (
{
closed = 1;
nodes = (
"484 412 OFFCURVE",
"430 511 OFFCURVE",
"299 511 CURVE SMOOTH",
"248 511 OFFCURVE",
"194 491 OFFCURVE",
"148 451 CURVE",
"148 500 LINE",
"19 500 LINE",
"19 493 LINE",
"69 493 OFFCURVE",
"86 470 OFFCURVE",
"86 402 CURVE SMOOTH",
"86 55 LINE SMOOTH",
"86 34 OFFCURVE",
"81 16 OFFCURVE",
"70 0 CURVE",
"162 0 LINE",
"154 15 OFFCURVE",
"148 37 OFFCURVE",
"148 55 CURVE SMOOTH",
"148 394 LINE",
"189 449 OFFCURVE",
"240 478 OFFCURVE",
"286 478 CURVE SMOOTH",
"381 478 OFFCURVE",
"412 381 OFFCURVE",
"412 281 CURVE SMOOTH",
"412 210 OFFCURVE",
"381 83 OFFCURVE",
"321 1 CURVE SMOOTH",
"270 -69 OFFCURVE",
"188 -140 OFFCURVE",
"72 -191 CURVE",
"77 -200 LINE",
"178 -152 OFFCURVE",
"193 -149 OFFCURVE",
"240 -160 CURVE",
"244 -135 OFFCURVE",
"247 -105 OFFCURVE",
"288 -66 CURVE SMOOTH",
"427 65 OFFCURVE",
"484 183 OFFCURVE",
"484 305 CURVE SMOOTH"
);
}
);
width = 532;
}
);
leftKerningGroup = i;
rightKerningGroup = n;
unicode = 014B;
},
{
glyphname = o;
lastChange = "2020-05-19 10:49:45 +0000";
layers = (
{
anchors = (
{
name = bottom;
position = "{293, 0}";
},
{
name = center;
position = "{293, 250}";
},
{
name = ogonek;
position = "{519, 10}";
},
{
name = top;
position = "{293, 500}";
},
{
name = topright;
position = "{555, 500}";
}
);
layerId = "452AD06C-4D92-427C-8B35-838986F56274";
paths = (
{
closed = 1;
nodes = (
"45 81 OFFCURVE",
"174 -5 OFFCURVE",
"299 -5 CURVE SMOOTH",
"420 -5 OFFCURVE",
"540 80 OFFCURVE",
"540 247 CURVE SMOOTH",
"540 419 OFFCURVE",
"412 503 OFFCURVE",
"288 503 CURVE SMOOTH",
"166 503 OFFCURVE",
"45 420 OFFCURVE",
"45 253 CURVE SMOOTH"
);
},
{
closed = 1;
nodes = (
"400 18 OFFCURVE",
"323 18 CURVE SMOOTH",
"224 18 OFFCURVE",
"113 116 OFFCURVE",
"113 294 CURVE SMOOTH",
"113 425 OFFCURVE",
"190 482 OFFCURVE",
"266 482 CURVE SMOOTH",
"365 482 OFFCURVE",
"469 384 OFFCURVE",
"469 208 CURVE SMOOTH",
"469 78 OFFCURVE"
);
}
);
width = 585;
}
);
leftKerningGroup = o;
rightKerningGroup = o;
unicode = 006F;
},
{
glyphname = oslash;
lastChange = "2020-05-19 10:49:45 +0000";
layers = (
{
layerId = "452AD06C-4D92-427C-8B35-838986F56274";
paths = (
{
closed = 1;
nodes = (
"62 0 LINE",
"122 0 LINE",
"533 519 LINE",
"526 519 LINE"
);
},
{
closed = 1;
nodes = (
"50 81 OFFCURVE",
"179 -5 OFFCURVE",
"304 -5 CURVE SMOOTH",
"425 -5 OFFCURVE",
"545 80 OFFCURVE",
"545 247 CURVE SMOOTH",
"545 419 OFFCURVE",
"417 503 OFFCURVE",
"293 503 CURVE SMOOTH",
"171 503 OFFCURVE",
"50 420 OFFCURVE",
"50 253 CURVE SMOOTH"
);
},
{
closed = 1;
nodes = (
"405 18 OFFCURVE",
"328 18 CURVE SMOOTH",
"229 18 OFFCURVE",
"118 116 OFFCURVE",
"118 294 CURVE SMOOTH",
"118 425 OFFCURVE",
"195 482 OFFCURVE",
"271 482 CURVE SMOOTH",
"370 482 OFFCURVE",
"474 384 OFFCURVE",
"474 208 CURVE SMOOTH",
"474 78 OFFCURVE"
);
}
);
width = 593;
}
);
leftKerningGroup = o;
rightKerningGroup = o;
unicode = 00F8;
},
{
glyphname = oe;
lastChange = "2020-05-19 10:49:45 +0000";
layers = (
{
layerId = "452AD06C-4D92-427C-8B35-838986F56274";
paths = (
{
closed = 1;
nodes = (
"357 316 LINE",
"351 292 OFFCURVE",
"347 274 OFFCURVE",
"347 245 CURVE SMOOTH",
"347 101 OFFCURVE",
"452 -3 OFFCURVE",
"598 -3 CURVE SMOOTH",
"676 -3 OFFCURVE",
"731 27 OFFCURVE",
"778 97 CURVE",
"772 102 LINE",
"727 45 OFFCURVE",
"685 22 OFFCURVE",
"624 22 CURVE SMOOTH",
"500 22 OFFCURVE",
"413 129 OFFCURVE",
"413 282 CURVE SMOOTH",
"413 297 OFFCURVE",
"414 303 OFFCURVE",
"416 316 CURVE"
);
},
{
closed = 1;
nodes = (
"453 425 LINE",
"488 465 OFFCURVE",
"543 485 OFFCURVE",
"588 485 CURVE SMOOTH",
"639 485 OFFCURVE",
"692 444 OFFCURVE",
"692 399 CURVE SMOOTH",
"692 366 OFFCURVE",
"665 333 OFFCURVE",
"606 316 CURVE",
"410 316 LINE",
"404 294 LINE",
"758 294 LINE",
"746 316 LINE",
"642 316 LINE",
"724 340 OFFCURVE",
"761 375 OFFCURVE",
"761 409 CURVE SMOOTH",
"761 465 OFFCURVE",
"671 503 OFFCURVE",
"595 503 CURVE SMOOTH",
"529 503 OFFCURVE",
"463 486 OFFCURVE",
"402 449 CURVE"
);
},
{
closed = 1;
nodes = (
"525 305 LINE",
"501 437 OFFCURVE",
"395 503 OFFCURVE",
"289 503 CURVE SMOOTH",
"167 503 OFFCURVE",
"46 418 OFFCURVE",
"46 245 CURVE SMOOTH",
"46 80 OFFCURVE",
"175 -3 OFFCURVE",
"296 -3 CURVE SMOOTH",
"356 -3 OFFCURVE",
"415 18 OFFCURVE",
"458 60 CURVE",
"431 84 LINE",
"403 41 OFFCURVE",
"360 21 OFFCURVE",
"315 21 CURVE SMOOTH",
"219 21 OFFCURVE",
"112 114 OFFCURVE",
"112 282 CURVE SMOOTH",
"112 417 OFFCURVE",
"181 480 OFFCURVE",
"258 480 CURVE SMOOTH",
"335 480 OFFCURVE",
"418 418 OFFCURVE",
"450 305 CURVE"
);
},
{
closed = 1;
nodes = (
"672 294 LINE",
"714 294 LINE SMOOTH",
"736 294 OFFCURVE",
"752 289 OFFCURVE",
"766 281 CURVE",
"771 284 LINE",
"752 316 LINE",
"693 316 LINE"
);
}
);
width = 818;
}
);
leftKerningGroup = o;
rightKerningGroup = e;
unicode = 0153;
},
{
glyphname = p;
lastChange = "2020-05-19 10:49:45 +0000";
layers = (
{
anchors = (
{
name = bottom;
position = "{275, 0}";
},
{
name = top;
position = "{275, 500}";
}
);
layerId = "452AD06C-4D92-427C-8B35-838986F56274";
paths = (
{
closed = 1;
nodes = (
"255 503 OFFCURVE",
"205 491 OFFCURVE",
"151 452 CURVE",
"151 500 LINE",
"14 500 LINE",
"14 495 LINE",
"90 495 OFFCURVE",
"86 482 OFFCURVE",
"86 395 CURVE SMOOTH",
"86 -151 LINE SMOOTH",
"86 -214 OFFCURVE",
"47 -303 OFFCURVE",
"18 -366 CURVE",
"26 -370 LINE",
"75 -280 OFFCURVE",
"105 -204 OFFCURVE",
"151 -150 CURVE",
"151 51 LINE",
"202 8 OFFCURVE",
"258 -5 OFFCURVE",
"303 -5 CURVE SMOOTH",
"427 -5 OFFCURVE",
"531 104 OFFCURVE",
"531 257 CURVE SMOOTH",
"531 389 OFFCURVE",
"432 503 OFFCURVE",
"310 503 CURVE SMOOTH"
);
},
{
closed = 1;
nodes = (
"272 21 OFFCURVE",
"201 44 OFFCURVE",
"151 139 CURVE",
"151 386 LINE",
"185 460 OFFCURVE",
"245 480 OFFCURVE",
"303 480 CURVE SMOOTH",
"398 480 OFFCURVE",
"461 354 OFFCURVE",
"461 233 CURVE SMOOTH",
"461 101 OFFCURVE",
"397 21 OFFCURVE",
"322 21 CURVE SMOOTH"
);
}
);
width = 576;
}
);
leftKerningGroup = i;
rightKerningGroup = o;
unicode = 0070;
},
{
glyphname = thorn;
lastChange = "2020-05-19 10:49:45 +0000";
layers = (
{
layerId = "452AD06C-4D92-427C-8B35-838986F56274";
paths = (
{
closed = 1;
nodes = (
"238 503 OFFCURVE",
"182 483 OFFCURVE",
"142 442 CURVE",
"142 645 LINE SMOOTH",
"142 727 OFFCURVE",
"144 752 OFFCURVE",
"157 797 CURVE",
"149 800 LINE",
"60 646 LINE",
"60 638 LINE",
"79 614 OFFCURVE",
"80 572 OFFCURVE",
"80 515 CURVE SMOOTH",
"80 -85 LINE SMOOTH",
"80 -148 OFFCURVE",
"43 -230 OFFCURVE",
"14 -293 CURVE",
"22 -297 LINE",
"71 -207 OFFCURVE",
"96 -151 OFFCURVE",
"142 -97 CURVE",
"142 131 LINE",
"184 87 OFFCURVE",
"244 65 OFFCURVE",
"303 65 CURVE SMOOTH",
"408 65 OFFCURVE",
"511 138 OFFCURVE",
"511 282 CURVE SMOOTH",
"511 431 OFFCURVE",
"401 503 OFFCURVE",
"294 503 CURVE SMOOTH"
);
},
{
closed = 1;
nodes = (
"238 85 OFFCURVE",
"143 169 OFFCURVE",
"143 323 CURVE SMOOTH",
"143 436 OFFCURVE",
"209 485 OFFCURVE",
"275 485 CURVE SMOOTH",
"360 485 OFFCURVE",
"450 400 OFFCURVE",
"450 248 CURVE SMOOTH",
"450 136 OFFCURVE",
"390 85 OFFCURVE",
"324 85 CURVE SMOOTH"
);
}
);
width = 553;
}
);
leftKerningGroup = l;
rightKerningGroup = o;
unicode = 00FE;
},
{
glyphname = q;
lastChange = "2020-05-19 10:49:45 +0000";
layers = (
{
anchors = (
{
name = bottom;
position = "{310, 0}";
},
{
name = top;
position = "{310, 500}";
}
);
layerId = "452AD06C-4D92-427C-8B35-838986F56274";
paths = (
{
closed = 1;
nodes = (
"118 509 OFFCURVE",
"46 384 OFFCURVE",
"46 258 CURVE SMOOTH",
"46 127 OFFCURVE",
"122 -5 OFFCURVE",
"301 -5 CURVE SMOOTH",
"346 -5 OFFCURVE",
"383 8 OFFCURVE",
"431 33 CURVE",
"431 -161 LINE SMOOTH",
"431 -224 OFFCURVE",
"392 -303 OFFCURVE",
"363 -366 CURVE",
"371 -370 LINE",
"420 -280 OFFCURVE",
"450 -224 OFFCURVE",
"496 -170 CURVE",
"496 394 LINE",
"523 394 LINE",
"525 402 LINE",
"456 457 OFFCURVE",
"377 509 OFFCURVE",
"295 509 CURVE SMOOTH"
);
},
{
closed = 1;
nodes = (
"161 26 OFFCURVE",
"117 146 OFFCURVE",
"117 261 CURVE SMOOTH",
"117 374 OFFCURVE",
"159 486 OFFCURVE",
"280 486 CURVE SMOOTH",
"360 486 OFFCURVE",
"431 421 OFFCURVE",
"431 324 CURVE SMOOTH",
"431 105 LINE",
"375 52 OFFCURVE",
"326 26 OFFCURVE",
"271 26 CURVE SMOOTH"
);
}
);
width = 575;
}
);
leftKerningGroup = o;
rightKerningGroup = l;
unicode = 0071;
},
{
glyphname = q.ss01;
lastChange = "2020-05-19 10:49:45 +0000";
layers = (
{
anchors = (
{
name = bottom;
position = "{298, 0}";
},
{
name = top;
position = "{298, 500}";
}
);
layerId = "452AD06C-4D92-427C-8B35-838986F56274";
paths = (
{
closed = 1;
nodes = (
"568 -90 OFFCURVE",
"481 -100 OFFCURVE",
"431 -93 CURVE SMOOTH",
"367 -84 OFFCURVE",
"321 -54 OFFCURVE",
"262 -3 CURVE",
"275 -4 OFFCURVE",
"287 -5 OFFCURVE",
"299 -5 CURVE SMOOTH",
"420 -5 OFFCURVE",
"540 80 OFFCURVE",
"540 247 CURVE SMOOTH",
"540 419 OFFCURVE",
"412 503 OFFCURVE",
"288 503 CURVE SMOOTH",
"166 503 OFFCURVE",
"45 420 OFFCURVE",
"45 253 CURVE SMOOTH",
"45 115 OFFCURVE",
"104 52 OFFCURVE",
"409 -160 CURVE",
"462 -130 OFFCURVE",
"580 -97 OFFCURVE",
"638 -67 CURVE",
"633 -59 LINE"
);
},
{
closed = 1;
nodes = (
"113 425 OFFCURVE",
"190 482 OFFCURVE",
"266 482 CURVE SMOOTH",
"365 482 OFFCURVE",
"469 384 OFFCURVE",
"469 208 CURVE SMOOTH",
"469 78 OFFCURVE",
"400 18 OFFCURVE",
"323 18 CURVE SMOOTH",
"224 18 OFFCURVE",
"113 116 OFFCURVE",
"113 294 CURVE SMOOTH"
);
}
);
width = 586;
}
);
leftKerningGroup = o;
rightKerningGroup = o;
},
{
glyphname = r;
lastChange = "2020-05-19 10:49:45 +0000";
layers = (
{
anchors = (
{
name = bottom;
position = "{215, 0}";
},
{
name = top;
position = "{215, 500}";
}
);
layerId = "452AD06C-4D92-427C-8B35-838986F56274";
paths = (
{
closed = 1;
nodes = (
"146 393 LINE",
"182 423 OFFCURVE",
"197 428 OFFCURVE",
"210 428 CURVE SMOOTH",
"238 428 OFFCURVE",
"265 378 OFFCURVE",
"314 378 CURVE SMOOTH",
"355 378 OFFCURVE",
"392 416 OFFCURVE",
"416 461 CURVE",
"410 464 LINE",
"397 443 OFFCURVE",
"383 431 OFFCURVE",
"361 431 CURVE SMOOTH",
"309 431 OFFCURVE",
"261 475 OFFCURVE",
"262 504 CURVE",
"146 418 LINE",
"146 500 LINE",
"16 500 LINE",
"16 495 LINE",
"67 490 OFFCURVE",
"86 482 OFFCURVE",
"86 395 CURVE SMOOTH",
"86 64 LINE SMOOTH",
"86 31 OFFCURVE",
"86 20 OFFCURVE",
"75 0 CURVE",
"160 0 LINE",
"152 23 OFFCURVE",
"150 30 OFFCURVE",
"150 65 CURVE SMOOTH"
);
}
);
width = 433;
}
);
leftKerningGroup = i;
rightKerningGroup = k;
unicode = 0072;
},
{
glyphname = r.ss01;
lastChange = "2020-05-19 10:49:45 +0000";
layers = (
{
anchors = (
{
name = bottom;
position = "{202, 0}";
},
{
name = top;
position = "{202, 500}";
}
);
layerId = "452AD06C-4D92-427C-8B35-838986F56274";
paths = (
{
closed = 1;
nodes = (
"236 504 OFFCURVE",
"185 465 OFFCURVE",
"146 392 CURVE",
"146 500 LINE",
"16 500 LINE",
"16 495 LINE",
"67 490 OFFCURVE",
"86 482 OFFCURVE",
"86 395 CURVE SMOOTH",
"86 64 LINE SMOOTH",
"86 31 OFFCURVE",
"86 20 OFFCURVE",
"75 0 CURVE",
"160 0 LINE",
"152 23 OFFCURVE",
"150 30 OFFCURVE",
"150 65 CURVE",
"146 356 LINE",
"175 414 OFFCURVE",
"217 444 OFFCURVE",
"251 444 CURVE SMOOTH",
"292 444 OFFCURVE",
"322 400 OFFCURVE",
"299 312 CURVE",
"311 311 LINE",
"358 456 LINE",
"337 485 OFFCURVE",
"310 504 OFFCURVE",
"282 504 CURVE SMOOTH"
);
}
);
width = 384;
}
);
leftKerningGroup = i;
note = r;
rightKerningGroup = k;
},
{
glyphname = r.ss02;
lastChange = "2020-05-19 10:49:45 +0000";
layers = (
{
anchors = (
{
name = bottom;
position = "{244, 0}";
},
{
name = top;
position = "{244, 500}";
}
);
layerId = "452AD06C-4D92-427C-8B35-838986F56274";
paths = (
{
closed = 1;
nodes = (
"337 512 OFFCURVE",
"241 376 OFFCURVE",
"241 382 CURVE SMOOTH",
"241 390 OFFCURVE",
"298 452 OFFCURVE",
"298 496 CURVE SMOOTH",
"298 521 OFFCURVE",
"287 536 OFFCURVE",
"269 536 CURVE SMOOTH",
"242 536 OFFCURVE",
"190 504 OFFCURVE",
"146 418 CURVE",
"146 500 LINE",
"16 500 LINE",
"16 495 LINE",
"67 490 OFFCURVE",
"86 482 OFFCURVE",
"86 395 CURVE SMOOTH",
"86 64 LINE SMOOTH",
"86 31 OFFCURVE",
"86 20 OFFCURVE",
"75 0 CURVE",
"160 0 LINE",
"152 23 OFFCURVE",
"150 30 OFFCURVE",
"150 65 CURVE",
"146 396 LINE",
"188 454 OFFCURVE",
"228 488 OFFCURVE",
"246 488 CURVE SMOOTH",
"259 488 OFFCURVE",
"264 467 OFFCURVE",
"248 428 CURVE SMOOTH",
"230 385 OFFCURVE",
"233 371 OFFCURVE",
"249 378 CURVE SMOOTH",
"269 387 OFFCURVE",
"330 442 OFFCURVE",
"389 442 CURVE SMOOTH",
"411 442 OFFCURVE",
"424 437 OFFCURVE",
"452 415 CURVE",
"457 422 LINE",
"429 443 OFFCURVE",
"410 476 OFFCURVE",
"405 500 CURVE"
);
}
);
width = 476;
}
);
leftKerningGroup = i;
rightKerningGroup = k;
},
{
glyphname = s;
lastChange = "2020-05-19 10:49:45 +0000";
layers = (
{
anchors = (
{
name = bottom;
position = "{207, 0}";
},
{
name = top;
position = "{207, 500}";
}
);
layerId = "452AD06C-4D92-427C-8B35-838986F56274";
paths = (
{
closed = 1;
nodes = (
"368 466 OFFCURVE",
"299 503 OFFCURVE",
"220 503 CURVE SMOOTH",
"126 503 OFFCURVE",
"68 442 OFFCURVE",
"68 376 CURVE SMOOTH",
"68 305 OFFCURVE",
"121 260 OFFCURVE",
"224 226 CURVE SMOOTH",
"295 203 OFFCURVE",
"351 170 OFFCURVE",
"351 109 CURVE SMOOTH",
"351 57 OFFCURVE",
"301 8 OFFCURVE",
"240 8 CURVE SMOOTH",
"194 8 OFFCURVE",
"158 32 OFFCURVE",
"133 70 CURVE SMOOTH",
"105 112 OFFCURVE",
"90 170 OFFCURVE",
"89 229 CURVE",
"81 229 LINE",
"81 179 OFFCURVE",
"64 135 OFFCURVE",
"41 105 CURVE",
"78 28 OFFCURVE",
"144 -10 OFFCURVE",
"231 -10 CURVE SMOOTH",
"343 -10 OFFCURVE",
"411 47 OFFCURVE",
"411 129 CURVE SMOOTH",
"411 209 OFFCURVE",
"364 249 OFFCURVE",
"250 284 CURVE SMOOTH",
"159 312 OFFCURVE",
"117 340 OFFCURVE",
"117 394 CURVE SMOOTH",
"117 450 OFFCURVE",
"152 487 OFFCURVE",
"205 487 CURVE SMOOTH",
"272 487 OFFCURVE",
"334 438 OFFCURVE",
"334 377 CURVE SMOOTH",
"334 356 OFFCURVE",
"327 336 OFFCURVE",
"314 320 CURVE",
"322 315 LINE",
"348 345 OFFCURVE",
"370 386 OFFCURVE",
"394 402 CURVE"
);
}
);
width = 452;
}
);
leftKerningGroup = s;
rightKerningGroup = s;
unicode = 0073;
},
{
glyphname = s.ss01;
lastChange = "2020-05-19 10:49:45 +0000";
layers = (
{
anchors = (
{
name = bottom;
position = "{221, 0}";
},
{
name = top;
position = "{221, 500}";
}
);
layerId = "452AD06C-4D92-427C-8B35-838986F56274";
paths = (
{
closed = 1;
nodes = (
"361 462 OFFCURVE",
"297 502 OFFCURVE",
"217 502 CURVE SMOOTH",
"125 502 OFFCURVE",
"59 450 OFFCURVE",
"59 377 CURVE SMOOTH",
"59 303 OFFCURVE",
"108 253 OFFCURVE",
"209 224 CURVE SMOOTH",
"299 198 OFFCURVE",
"342 170 OFFCURVE",
"347 118 CURVE SMOOTH",
"352 53 OFFCURVE",
"310 3 OFFCURVE",
"250 3 CURVE SMOOTH",
"161 3 OFFCURVE",
"102 56 OFFCURVE",
"102 137 CURVE SMOOTH",
"102 159 OFFCURVE",
"106 182 OFFCURVE",
"116 206 CURVE",
"110 209 LINE",
"85 170 OFFCURVE",
"66 130 OFFCURVE",
"37 103 CURVE",
"70 29 OFFCURVE",
"140 -15 OFFCURVE",
"227 -15 CURVE SMOOTH",
"338 -15 OFFCURVE",
"405 40 OFFCURVE",
"405 130 CURVE SMOOTH",
"405 210 OFFCURVE",
"360 255 OFFCURVE",
"246 287 CURVE SMOOTH",
"138 318 OFFCURVE",
"109 341 OFFCURVE",
"109 392 CURVE SMOOTH",
"109 448 OFFCURVE",
"148 487 OFFCURVE",
"204 486 CURVE SMOOTH",
"276 485 OFFCURVE",
"331 428 OFFCURVE",
"331 369 CURVE SMOOTH",
"331 348 OFFCURVE",
"324 328 OFFCURVE",
"309 309 CURVE",
"316 305 LINE",
"342 333 OFFCURVE",
"363 382 OFFCURVE",
"384 398 CURVE"
);
}
);
width = 447;
}
);
leftKerningGroup = s;
note = s;
rightKerningGroup = s;
},
{
glyphname = scommaaccent;
lastChange = "2020-05-19 10:49:45 +0000";
layers = (
{
anchors = (
{
name = bottom;
position = "{226, -206}";
},
{
name = top;
position = "{212, 500}";
}
);
layerId = "452AD06C-4D92-427C-8B35-838986F56274";
paths = (
{
closed = 1;
nodes = (
"384 210 OFFCURVE",
"342 250 OFFCURVE",
"234 284 CURVE SMOOTH",
"152 310 OFFCURVE",
"114 340 OFFCURVE",
"114 394 CURVE SMOOTH",
"114 450 OFFCURVE",
"146 487 OFFCURVE",
"194 487 CURVE SMOOTH",
"254 487 OFFCURVE",
"310 438 OFFCURVE",
"310 377 CURVE SMOOTH",
"310 356 OFFCURVE",
"304 336 OFFCURVE",
"292 320 CURVE",
"297 316 LINE",
"366 401 LINE",
"343 465 OFFCURVE",
"279 503 OFFCURVE",
"207 503 CURVE SMOOTH",
"122 503 OFFCURVE",
"68 441 OFFCURVE",
"68 375 CURVE SMOOTH",
"68 304 OFFCURVE",
"115 249 OFFCURVE",
"208 218 CURVE SMOOTH",
"292 190 OFFCURVE",
"321 164 OFFCURVE",
"326 118 CURVE SMOOTH",
"332 63 OFFCURVE",
"284 8 OFFCURVE",
"225 8 CURVE SMOOTH",
"139 8 OFFCURVE",
"92 114 OFFCURVE",
"89 229 CURVE",
"82 229 LINE",
"82 179 OFFCURVE",
"64 134 OFFCURVE",
"43 104 CURVE",
"67 49 OFFCURVE",
"100 16 OFFCURVE",
"151 -1 CURVE SMOOTH",
"181 -11 OFFCURVE",
"185 -9 OFFCURVE",
"184 -29 CURVE SMOOTH",
"183 -58 OFFCURVE",
"208 -80 OFFCURVE",
"208 -106 CURVE SMOOTH",
"208 -125 OFFCURVE",
"198 -143 OFFCURVE",
"181 -160 CURVE",
"185 -164 LINE",
"228 -141 OFFCURVE",
"258 -88 OFFCURVE",
"258 -47 CURVE SMOOTH",
"258 -8 OFFCURVE",
"263 -6 OFFCURVE",
"283 -1 CURVE SMOOTH",
"347 15 OFFCURVE",
"384 67 OFFCURVE",
"384 130 CURVE SMOOTH"
);
}
);
width = 426;
}
);
leftKerningGroup = s;
rightKerningGroup = s;
unicode = 0219;
},
{
glyphname = germandbls;
lastChange = "2020-05-19 10:49:45 +0000";
layers = (
{
anchors = (
{
name = bottom;
position = "{259, 0}";
},
{
name = top;
position = "{259, 500}";
}
);
layerId = "452AD06C-4D92-427C-8B35-838986F56274";
paths = (
{
closed = 1;
nodes = (
"496 222 OFFCURVE",
"455 250 OFFCURVE",
"392 280 CURVE SMOOTH",
"335 307 OFFCURVE",
"263 350 OFFCURVE",
"263 393 CURVE SMOOTH",
"263 437 OFFCURVE",
"296 456 OFFCURVE",
"335 478 CURVE SMOOTH",
"395 512 OFFCURVE",
"449 554 OFFCURVE",
"449 626 CURVE SMOOTH",
"449 684 OFFCURVE",
"387 739 OFFCURVE",
"281 739 CURVE SMOOTH",
"191 739 OFFCURVE",
"108 682 OFFCURVE",
"108 567 CURVE SMOOTH",
"108 500 LINE",
"37 500 LINE",
"16 464 LINE",
"22 461 LINE",
"32 480 OFFCURVE",
"41 480 OFFCURVE",
"69 480 CURVE SMOOTH",
"108 480 LINE",
"108 12 LINE SMOOTH",
"108 -51 OFFCURVE",
"69 -133 OFFCURVE",
"40 -196 CURVE",
"48 -200 LINE",
"97 -110 OFFCURVE",
"122 -54 OFFCURVE",
"168 0 CURVE",
"167 562 LINE",
"167 660 OFFCURVE",
"198 716 OFFCURVE",
"268 717 CURVE SMOOTH",
"350 718 OFFCURVE",
"383 666 OFFCURVE",
"383 619 CURVE SMOOTH",
"383 580 OFFCURVE",
"360 536 OFFCURVE",
"320 507 CURVE SMOOTH",
"277 476 OFFCURVE",
"228 459 OFFCURVE",
"228 378 CURVE SMOOTH",
"228 309 OFFCURVE",
"278 261 OFFCURVE",
"364 219 CURVE SMOOTH",
"425 189 OFFCURVE",
"458 159 OFFCURVE",
"461 110 CURVE SMOOTH",
"464 55 OFFCURVE",
"440 8 OFFCURVE",
"378 8 CURVE SMOOTH",
"331 8 OFFCURVE",
"279 57 OFFCURVE",
"277 154 CURVE",
"271 154 LINE",
"271 116 OFFCURVE",
"249 73 OFFCURVE",
"231 51 CURVE",
"257 6 OFFCURVE",
"314 -12 OFFCURVE",
"362 -12 CURVE SMOOTH",
"455 -12 OFFCURVE",
"522 56 OFFCURVE",
"522 133 CURVE SMOOTH",
"522 151 OFFCURVE",
"519 169 OFFCURVE",
"511 187 CURVE SMOOTH"
);
}
);
width = 564;
}
);
leftKerningGroup = f;
rightKerningGroup = o;
unicode = 00DF;
},
{
glyphname = germandbls.ss01;
lastChange = "2020-05-19 10:49:45 +0000";
layers = (
{
anchors = (
{
name = bottom;
position = "{248, 0}";
},
{
name = top;
position = "{248, 500}";
}
);
layerId = "452AD06C-4D92-427C-8B35-838986F56274";
paths = (
{
closed = 1;
nodes = (
"430 222 OFFCURVE",
"389 249 OFFCURVE",
"326 280 CURVE SMOOTH",
"272 307 OFFCURVE",
"217 330 OFFCURVE",
"217 373 CURVE SMOOTH",
"217 413 OFFCURVE",
"259 435 OFFCURVE",
"313 435 CURVE SMOOTH",
"347 435 OFFCURVE",
"388 429 OFFCURVE",
"412 407 CURVE",
"418 417 LINE",
"372 501 OFFCURVE",
"307 544 OFFCURVE",
"203 544 CURVE SMOOTH",
"128 544 OFFCURVE",
"55 507 OFFCURVE",
"55 416 CURVE SMOOTH",
"55 45 LINE SMOOTH",
"55 23 OFFCURVE",
"54 14 OFFCURVE",
"47 0 CURVE",
"128 0 LINE",
"120 19 OFFCURVE",
"117 29 OFFCURVE",
"117 51 CURVE SMOOTH",
"117 406 LINE SMOOTH",
"117 486 OFFCURVE",
"145 521 OFFCURVE",
"214 521 CURVE SMOOTH",
"286 521 OFFCURVE",
"337 477 OFFCURVE",
"337 458 CURVE SMOOTH",
"337 450 OFFCURVE",
"303 462 OFFCURVE",
"253 449 CURVE SMOOTH",
"200 435 OFFCURVE",
"162 398 OFFCURVE",
"162 348 CURVE SMOOTH",
"162 301 OFFCURVE",
"210 262 OFFCURVE",
"298 219 CURVE SMOOTH",
"359 189 OFFCURVE",
"392 159 OFFCURVE",
"395 110 CURVE SMOOTH",
"398 55 OFFCURVE",
"374 8 OFFCURVE",
"312 8 CURVE SMOOTH",
"265 8 OFFCURVE",
"213 57 OFFCURVE",
"211 154 CURVE",
"205 154 LINE",
"205 116 OFFCURVE",
"183 73 OFFCURVE",
"165 51 CURVE",
"191 6 OFFCURVE",
"248 -12 OFFCURVE",
"296 -12 CURVE SMOOTH",
"389 -12 OFFCURVE",
"456 56 OFFCURVE",
"456 133 CURVE SMOOTH",
"456 151 OFFCURVE",
"453 169 OFFCURVE",
"445 187 CURVE SMOOTH"
);
}
);
width = 498;
}
);
leftKerningGroup = f;
rightKerningGroup = E;
},
{
glyphname = t;
lastChange = "2020-05-19 10:49:45 +0000";
layers = (
{
anchors = (
{
name = bottom;
position = "{176, 0}";
},
{
name = center;
position = "{176, 250}";
},
{
name = top;
position = "{176, 500}";
},
{
name = topright;
position = "{287, 500}";
}
);
layerId = "452AD06C-4D92-427C-8B35-838986F56274";
paths = (
{
closed = 1;
nodes = (
"264 504 OFFCURVE",
"245 500 OFFCURVE",
"217 500 CURVE SMOOTH",
"170 500 LINE",
"170 533 LINE SMOOTH",
"170 615 OFFCURVE",
"176 665 OFFCURVE",
"194 719 CURVE",
"186 722 LINE",
"84 562 LINE",
"84 554 LINE",
"96 541 OFFCURVE",
"106 522 OFFCURVE",
"108 500 CURVE",
"37 500 LINE",
"16 464 LINE",
"22 461 LINE",
"34 474 OFFCURVE",
"47 480 OFFCURVE",
"62 480 CURVE SMOOTH",
"108 480 LINE",
"108 45 LINE SMOOTH",
"108 23 OFFCURVE",
"107 14 OFFCURVE",
"100 0 CURVE",
"181 0 LINE",
"173 19 OFFCURVE",
"170 29 OFFCURVE",
"170 51 CURVE SMOOTH",
"170 480 LINE",
"261 480 LINE",
"282 509 LINE",
"277 513 LINE"
);
}
);
width = 288;
}
);
leftKerningGroup = t;
rightKerningGroup = t;
unicode = 0074;
},
{
glyphname = t.ss01;
lastChange = "2020-05-19 10:49:45 +0000";
layers = (
{
anchors = (
{
name = bottom;
position = "{252, 0}";
},
{
name = center;
position = "{252, 250}";
},
{
name = top;
position = "{252, 500}";
},
{
name = topright;
position = "{479, 500}";
}
);
layerId = "452AD06C-4D92-427C-8B35-838986F56274";
paths = (
{
closed = 1;
nodes = (
"427 48 OFFCURVE",
"373 24 OFFCURVE",
"320 24 CURVE SMOOTH",
"217 24 OFFCURVE",
"120 102 OFFCURVE",
"120 239 CURVE SMOOTH",
"120 391 OFFCURVE",
"197 480 OFFCURVE",
"377 480 CURVE SMOOTH",
"443 480 LINE",
"464 509 LINE",
"459 513 LINE",
"446 504 OFFCURVE",
"427 500 OFFCURVE",
"399 500 CURVE SMOOTH",
"86 500 LINE",
"66 467 LINE",
"72 464 LINE",
"90 478 OFFCURVE",
"102 480 OFFCURVE",
"134 480 CURVE SMOOTH",
"269 480 LINE",
"144 469 OFFCURVE",
"49 362 OFFCURVE",
"49 240 CURVE SMOOTH",
"49 91 OFFCURVE",
"164 -5 OFFCURVE",
"283 -5 CURVE SMOOTH",
"352 -5 OFFCURVE",
"421 25 OFFCURVE",
"472 94 CURVE",
"467 100 LINE"
);
}
);
width = 494;
}
);
leftKerningGroup = o;
rightKerningGroup = o;
},
{
glyphname = tbar;
lastChange = "2020-05-19 10:49:45 +0000";
layers = (
{
anchors = (
{
name = bottom;
position = "{178, 0}";
},
{
name = center;
position = "{178, 250}";
},
{
name = top;
position = "{178, 500}";
},
{
name = topright;
position = "{289, 500}";
}
);
layerId = "452AD06C-4D92-427C-8B35-838986F56274";
paths = (
{
closed = 1;
nodes = (
"172 385 LINE",
"172 480 LINE",
"262 480 LINE",
"283 509 LINE",
"278 513 LINE",
"265 504 OFFCURVE",
"246 500 OFFCURVE",
"223 500 CURVE SMOOTH",
"172 500 LINE",
"172 533 LINE SMOOTH",
"172 615 OFFCURVE",
"178 665 OFFCURVE",
"196 719 CURVE",
"188 722 LINE",
"86 562 LINE",
"86 554 LINE",
"98 541 OFFCURVE",
"108 522 OFFCURVE",
"110 500 CURVE",
"49 500 LINE",
"28 464 LINE",
"34 461 LINE",
"43 478 OFFCURVE",
"52 480 OFFCURVE",
"64 480 CURVE SMOOTH",
"110 480 LINE",
"110 385 LINE",
"49 385 LINE",
"28 349 LINE",
"34 346 LINE",
"43 363 OFFCURVE",
"52 365 OFFCURVE",
"64 365 CURVE SMOOTH",
"110 365 LINE",
"110 45 LINE SMOOTH",
"110 23 OFFCURVE",
"109 14 OFFCURVE",
"102 0 CURVE",
"183 0 LINE",
"175 19 OFFCURVE",
"172 29 OFFCURVE",
"172 51 CURVE SMOOTH",
"172 365 LINE",
"262 365 LINE",
"283 394 LINE",
"278 398 LINE",
"265 389 OFFCURVE",
"246 385 OFFCURVE",
"223 385 CURVE SMOOTH"
);
}
);
width = 306;
}
);
leftKerningGroup = t;
rightKerningGroup = t;
unicode = 0167;
},
{
glyphname = tcedilla;
lastChange = "2020-05-19 10:49:45 +0000";
layers = (
{
anchors = (
{
name = bottom;
position = "{130, -143}";
},
{
name = center;
position = "{166, 250}";
},
{
name = top;
position = "{166, 500}";
},
{
name = topright;
position = "{277, 500}";
}
);
layerId = "452AD06C-4D92-427C-8B35-838986F56274";
paths = (
{
closed = 1;
nodes = (
"254 504 OFFCURVE",
"235 500 OFFCURVE",
"207 500 CURVE SMOOTH",
"160 500 LINE",
"160 533 LINE SMOOTH",
"160 615 OFFCURVE",
"166 665 OFFCURVE",
"184 719 CURVE",
"176 722 LINE",
"74 562 LINE",
"74 554 LINE",
"86 541 OFFCURVE",
"96 522 OFFCURVE",
"98 500 CURVE",
"37 500 LINE",
"16 464 LINE",
"22 461 LINE",
"31 478 OFFCURVE",
"40 480 OFFCURVE",
"52 480 CURVE SMOOTH",
"98 480 LINE",
"98 51 LINE SMOOTH",
"98 25 OFFCURVE",
"98 -16 OFFCURVE",
"64 -92 CURVE",
"73 -95 LINE",
"95 -73 OFFCURVE",
"113 -66 OFFCURVE",
"127 -66 CURVE SMOOTH",
"153 -66 OFFCURVE",
"166 -83 OFFCURVE",
"166 -101 CURVE SMOOTH",
"166 -125 OFFCURVE",
"146 -151 OFFCURVE",
"105 -151 CURVE SMOOTH",
"89 -151 OFFCURVE",
"72 -148 OFFCURVE",
"52 -139 CURVE",
"49 -145 LINE",
"77 -158 OFFCURVE",
"102 -164 OFFCURVE",
"123 -164 CURVE SMOOTH",
"183 -164 OFFCURVE",
"216 -121 OFFCURVE",
"216 -85 CURVE SMOOTH",
"216 -59 OFFCURVE",
"198 -36 OFFCURVE",
"160 -36 CURVE SMOOTH",
"135 -36 OFFCURVE",
"105 -48 OFFCURVE",
"76 -81 CURVE",
"76 -79 LINE",
"93 -56 OFFCURVE",
"114 -5 OFFCURVE",
"171 0 CURVE",
"163 19 OFFCURVE",
"160 29 OFFCURVE",
"160 51 CURVE SMOOTH",
"160 480 LINE",
"251 480 LINE",
"272 509 LINE",
"267 513 LINE"
);
}
);
width = 276;
}
);
leftKerningGroup = t;
rightKerningGroup = t;
unicode = 0163;
},
{
glyphname = u;
lastChange = "2020-05-19 10:49:45 +0000";
layers = (
{
anchors = (
{
name = bottom;
position = "{264, 0}";
},
{
name = ogonek;
position = "{482, 10}";
},
{
name = top;
position = "{264, 500}";
},
{
name = topright;
position = "{517, 500}";
}
);
layerId = "452AD06C-4D92-427C-8B35-838986F56274";
paths = (
{
closed = 1;
nodes = (
"495 0 LINE",
"485 16 OFFCURVE",
"482 35 OFFCURVE",
"482 55 CURVE SMOOTH",
"482 436 LINE SMOOTH",
"482 458 OFFCURVE",
"483 482 OFFCURVE",
"488 500 CURVE",
"353 500 LINE",
"353 493 LINE",
"403 493 OFFCURVE",
"420 470 OFFCURVE",
"420 402 CURVE SMOOTH",
"420 129 LINE",
"388 56 OFFCURVE",
"323 22 OFFCURVE",
"273 22 CURVE SMOOTH",
"178 22 OFFCURVE",
"147 99 OFFCURVE",
"147 199 CURVE SMOOTH",
"147 500 LINE",
"17 500 LINE",
"17 493 LINE",
"67 493 OFFCURVE",
"84 470 OFFCURVE",
"84 402 CURVE SMOOTH",
"84 195 LINE SMOOTH",
"84 88 OFFCURVE",
"128 -11 OFFCURVE",
"259 -11 CURVE SMOOTH",
"321 -11 OFFCURVE",
"388 27 OFFCURVE",
"420 82 CURVE",
"420 55 LINE SMOOTH",
"420 34 OFFCURVE",
"420 22 OFFCURVE",
"413 0 CURVE"
);
}
);
width = 565;
}
);
leftKerningGroup = i;
rightKerningGroup = l;
unicode = 0075;
},
{
glyphname = u.ss01;
lastChange = "2020-05-19 10:49:45 +0000";
layers = (
{
anchors = (
{
name = bottom;
position = "{268, 0}";
},
{
name = ogonek;
position = "{462, 10}";
},
{
name = top;
position = "{268, 500}";
},
{
name = topright;
position = "{490, 500}";
}
);
layerId = "452AD06C-4D92-427C-8B35-838986F56274";
paths = (
{
closed = 1;
nodes = (
"465 439 LINE SMOOTH",
"465 458 OFFCURVE",
"466 481 OFFCURVE",
"471 500 CURVE",
"336 500 LINE",
"336 493 LINE",
"386 493 OFFCURVE",
"403 470 OFFCURVE",
"403 402 CURVE SMOOTH",
"403 55 LINE",
"403 34 OFFCURVE",
"402 23 OFFCURVE",
"396 0 CURVE",
"476 0 LINE",
"467 18 OFFCURVE",
"465 34 OFFCURVE",
"465 54 CURVE SMOOTH"
);
},
{
closed = 1;
nodes = (
"104 449 OFFCURVE",
"47 335 OFFCURVE",
"47 210 CURVE SMOOTH",
"47 93 OFFCURVE",
"120 -9 OFFCURVE",
"242 -9 CURVE SMOOTH",
"310 -9 OFFCURVE",
"393 36 OFFCURVE",
"415 91 CURVE",
"414 137 LINE",
"384 68 OFFCURVE",
"331 21 OFFCURVE",
"264 21 CURVE SMOOTH",
"166 21 OFFCURVE",
"118 112 OFFCURVE",
"118 230 CURVE SMOOTH",
"118 330 OFFCURVE",
"145 462 OFFCURVE",
"268 557 CURVE",
"259 563 LINE"
);
}
);
width = 547;
}
);
leftKerningGroup = o;
rightKerningGroup = l;
},
{
glyphname = uogonek;
lastChange = "2020-05-19 10:49:45 +0000";
layers = (
{
anchors = (
{
name = bottom;
position = "{263, 0}";
},
{
name = ogonek;
position = "{481, 10}";
},
{
name = top;
position = "{263, 500}";
},
{
name = topright;
position = "{516, 500}";
}
);
components = (
{
alignment = -1;
name = ogonekcomb;
transform = "{1, 0, 0, 1, 304, 18}";
}
);
layerId = "452AD06C-4D92-427C-8B35-838986F56274";
paths = (
{
closed = 1;
nodes = (
"500 -16 LINE",
"487 0 OFFCURVE",
"481 21 OFFCURVE",
"481 55 CURVE SMOOTH",
"481 436 LINE SMOOTH",
"481 458 OFFCURVE",
"482 482 OFFCURVE",
"487 500 CURVE",
"352 500 LINE",
"352 493 LINE",
"402 493 OFFCURVE",
"419 470 OFFCURVE",
"419 402 CURVE SMOOTH",
"419 129 LINE",
"387 56 OFFCURVE",
"322 22 OFFCURVE",
"272 22 CURVE SMOOTH",
"177 22 OFFCURVE",
"146 99 OFFCURVE",
"146 199 CURVE SMOOTH",
"146 500 LINE",
"16 500 LINE",
"16 493 LINE",
"66 493 OFFCURVE",
"83 470 OFFCURVE",
"83 402 CURVE SMOOTH",
"83 195 LINE SMOOTH",
"83 88 OFFCURVE",
"127 -11 OFFCURVE",
"258 -11 CURVE SMOOTH",
"320 -11 OFFCURVE",
"387 27 OFFCURVE",
"419 82 CURVE",
"419 55 LINE SMOOTH",
"419 31 OFFCURVE",
"409 10 OFFCURVE",
"399 -11 CURVE",
"407 -45 LINE",
"407 -17 OFFCURVE",
"419 11 OFFCURVE",
"442 11 CURVE SMOOTH",
"458 11 OFFCURVE",
"479 -4 OFFCURVE",
"494 -20 CURVE"
);
}
);
width = 563;
}
);
leftKerningGroup = i;
rightKerningGroup = l;
unicode = 0173;
},
{
glyphname = uring;
lastChange = "2020-05-19 10:49:45 +0000";
layers = (
{
anchors = (
{
name = bottom;
position = "{264, 0}";
},
{
name = ogonek;
position = "{482, 10}";
},
{
name = top;
position = "{264, 651}";
},
{
name = topright;
position = "{517, 500}";
}
);
layerId = "452AD06C-4D92-427C-8B35-838986F56274";
paths = (
{
closed = 1;
nodes = (
"496 0 LINE",
"488 15 OFFCURVE",
"482 37 OFFCURVE",
"482 55 CURVE SMOOTH",
"482 500 LINE",
"353 500 LINE",
"353 493 LINE",
"403 493 OFFCURVE",
"420 470 OFFCURVE",
"420 402 CURVE SMOOTH",
"420 129 LINE",
"388 56 OFFCURVE",
"323 22 OFFCURVE",
"273 22 CURVE SMOOTH",
"178 22 OFFCURVE",
"147 99 OFFCURVE",
"147 199 CURVE SMOOTH",
"147 500 LINE",
"17 500 LINE",
"17 493 LINE",
"67 493 OFFCURVE",
"84 470 OFFCURVE",
"84 402 CURVE SMOOTH",
"84 195 LINE SMOOTH",
"84 88 OFFCURVE",
"129 -11 OFFCURVE",
"260 -11 CURVE SMOOTH",
"315 -11 OFFCURVE",
"382 12 OFFCURVE",
"420 67 CURVE",
"420 55 LINE SMOOTH",
"420 34 OFFCURVE",
"420 22 OFFCURVE",
"413 0 CURVE"
);
},
{
closed = 1;
nodes = (
"390 479 OFFCURVE",
"382 485 OFFCURVE",
"371 486 CURVE",
"351 475 OFFCURVE",
"326 478 OFFCURVE",
"308 495 CURVE SMOOTH",
"288 514 OFFCURVE",
"282 549 OFFCURVE",
"307 575 CURVE SMOOTH",
"329 598 OFFCURVE",
"362 597 OFFCURVE",
"383 575 CURVE SMOOTH",
"402 555 OFFCURVE",
"405 527 OFFCURVE",
"391 505 CURVE",
"417 505 LINE",
"419 513 OFFCURVE",
"420 520 OFFCURVE",
"420 528 CURVE SMOOTH",
"420 566 OFFCURVE",
"394 605 OFFCURVE",
"345 605 CURVE SMOOTH",
"295 605 OFFCURVE",
"270 568 OFFCURVE",
"270 530 CURVE SMOOTH",
"270 492 OFFCURVE",
"295 454 OFFCURVE",
"345 454 CURVE SMOOTH",
"366 454 OFFCURVE",
"383 461 OFFCURVE",
"395 471 CURVE"
);
}
);
width = 565;
}
);
leftKerningGroup = i;
rightKerningGroup = l;
unicode = 016F;
},
{
glyphname = v;
lastChange = "2020-05-19 10:49:45 +0000";
layers = (
{
anchors = (
{
name = bottom;
position = "{245, 0}";
},
{
name = top;
position = "{245, 500}";
}
);
layerId = "452AD06C-4D92-427C-8B35-838986F56274";
paths = (
{
closed = 1;
nodes = (
"363 500 LINE",
"409 468 OFFCURVE",
"397 417 OFFCURVE",
"365 333 CURVE SMOOTH",
"272 91 LINE",
"157 386 LINE SMOOTH",
"135 443 OFFCURVE",
"132 470 OFFCURVE",
"146 500 CURVE",
"13 500 LINE",
"53 467 OFFCURVE",
"71 433 OFFCURVE",
"101 356 CURVE SMOOTH",
"246 -17 LINE",
"253 -17 LINE",
"260 14 OFFCURVE",
"286 46 OFFCURVE",
"298 50 CURVE",
"301 65 OFFCURVE",
"307 83 OFFCURVE",
"313 98 CURVE SMOOTH",
"414 360 LINE SMOOTH",
"434 412 OFFCURVE",
"462 477 OFFCURVE",
"481 500 CURVE"
);
}
);
width = 498;
}
);
leftKerningGroup = v;
rightKerningGroup = v;
unicode = 0076;
},
{
glyphname = w;
lastChange = "2020-05-19 10:49:45 +0000";
layers = (
{
anchors = (
{
name = bottom;
position = "{375, 0}";
},
{
name = top;
position = "{375, 500}";
}
);
layerId = "452AD06C-4D92-427C-8B35-838986F56274";
paths = (
{
closed = 1;
nodes = (
"384 421 LINE",
"380 397 OFFCURVE",
"370 368 OFFCURVE",
"357 333 CURVE SMOOTH",
"266 91 LINE",
"159 379 LINE SMOOTH",
"138 436 OFFCURVE",
"136 470 OFFCURVE",
"150 500 CURVE",
"13 500 LINE",
"53 467 OFFCURVE",
"73 433 OFFCURVE",
"101 356 CURVE SMOOTH",
"237 -17 LINE",
"244 -17 LINE",
"268 24 OFFCURVE",
"281 45 OFFCURVE",
"296 53 CURVE",
"296 72 OFFCURVE",
"301 87 OFFCURVE",
"307 103 CURVE SMOOTH",
"406 360 LINE SMOOTH",
"408 366 OFFCURVE",
"411 373 OFFCURVE",
"414 380 CURVE"
);
},
{
closed = 1;
nodes = (
"625 500 LINE",
"669 468 OFFCURVE",
"656 417 OFFCURVE",
"625 333 CURVE SMOOTH",
"538 93 LINE",
"439 379 LINE SMOOTH",
"419 436 OFFCURVE",
"417 470 OFFCURVE",
"430 500 CURVE",
"301 500 LINE",
"340 467 OFFCURVE",
"360 433 OFFCURVE",
"386 356 CURVE SMOOTH",
"513 -17 LINE",
"520 -17 LINE",
"544 27 OFFCURVE",
"558 46 OFFCURVE",
"572 53 CURVE",
"572 73 OFFCURVE",
"575 92 OFFCURVE",
"582 112 CURVE SMOOTH",
"674 360 LINE SMOOTH",
"693 412 OFFCURVE",
"720 477 OFFCURVE",
"738 500 CURVE"
);
}
);
width = 756;
}
);
leftKerningGroup = v;
rightKerningGroup = v;
unicode = 0077;
},
{
glyphname = w.ss01;
lastChange = "2020-05-19 10:49:45 +0000";
layers = (
{
anchors = (
{
name = bottom;
position = "{389, 0}";
},
{
name = top;
position = "{389, 500}";
}
);
layerId = "452AD06C-4D92-427C-8B35-838986F56274";
paths = (
{
closed = 1;
nodes = (
"724 15 OFFCURVE",
"718 37 OFFCURVE",
"718 55 CURVE SMOOTH",
"718 441 LINE SMOOTH",
"718 460 OFFCURVE",
"720 481 OFFCURVE",
"724 500 CURVE",
"589 500 LINE",
"589 493 LINE",
"639 493 OFFCURVE",
"656 470 OFFCURVE",
"656 402 CURVE SMOOTH",
"656 88 LINE",
"619 37 OFFCURVE",
"571 12 OFFCURVE",
"529 12 CURVE SMOOTH",
"439 12 OFFCURVE",
"407 119 OFFCURVE",
"407 219 CURVE SMOOTH",
"407 319 OFFCURVE",
"437 455 OFFCURVE",
"546 570 CURVE",
"538 576 LINE",
"398 442 OFFCURVE",
"337 324 OFFCURVE",
"337 199 CURVE SMOOTH",
"337 160 OFFCURVE",
"344 121 OFFCURVE",
"360 88 CURVE",
"323 37 OFFCURVE",
"277 12 OFFCURVE",
"236 12 CURVE SMOOTH",
"148 12 OFFCURVE",
"118 119 OFFCURVE",
"118 219 CURVE SMOOTH",
"118 319 OFFCURVE",
"146 455 OFFCURVE",
"253 570 CURVE",
"245 576 LINE",
"108 442 OFFCURVE",
"48 324 OFFCURVE",
"48 199 CURVE SMOOTH",
"48 92 OFFCURVE",
"103 -11 OFFCURVE",
"224 -11 CURVE SMOOTH",
"277 -11 OFFCURVE",
"332 14 OFFCURVE",
"377 59 CURVE",
"406 17 OFFCURVE",
"452 -11 OFFCURVE",
"517 -11 CURVE SMOOTH",
"564 -11 OFFCURVE",
"613 8 OFFCURVE",
"656 43 CURVE",
"656 28 OFFCURVE",
"655 17 OFFCURVE",
"649 0 CURVE",
"732 0 LINE"
);
}
);
width = 801;
}
);
leftKerningGroup = o;
rightKerningGroup = l;
},
{
glyphname = x;
lastChange = "2020-05-19 10:49:45 +0000";
layers = (
{
anchors = (
{
name = bottom;
position = "{242, 0}";
},
{
name = top;
position = "{242, 500}";
}
);
layerId = "452AD06C-4D92-427C-8B35-838986F56274";
paths = (
{
closed = 1;
nodes = (
"167 424 LINE SMOOTH",
"148 458 OFFCURVE",
"139 474 OFFCURVE",
"139 500 CURVE",
"34 500 LINE",
"65 479 OFFCURVE",
"73 458 OFFCURVE",
"100 411 CURVE SMOOTH",
"216 210 LINE SMOOTH",
"271 115 OFFCURVE",
"331 0 OFFCURVE",
"413 0 CURVE SMOOTH",
"486 0 LINE",
"486 7 LINE",
"417 14 OFFCURVE",
"381 52 OFFCURVE",
"275 236 CURVE SMOOTH"
);
},
{
closed = 1;
nodes = (
"200 250 LINE",
"100 104 LINE SMOOTH",
"79 73 OFFCURVE",
"33 14 OFFCURVE",
"18 0 CURVE",
"128 0 LINE",
"94 20 OFFCURVE",
"123 66 OFFCURVE",
"156 115 CURVE SMOOTH",
"230 224 LINE"
);
},
{
closed = 1;
nodes = (
"260 252 LINE",
"368 414 LINE SMOOTH",
"388 444 OFFCURVE",
"421 486 OFFCURVE",
"434 500 CURVE",
"327 500 LINE",
"362 480 OFFCURVE",
"346 448 OFFCURVE",
"315 403 CURVE SMOOTH",
"236 287 LINE"
);
}
);
width = 499;
}
);
leftKerningGroup = e;
rightKerningGroup = e;
unicode = 0078;
},
{
glyphname = x.ss01;
lastChange = "2020-05-19 10:49:45 +0000";
layers = (
{
anchors = (
{
name = bottom;
position = "{313, 0}";
},
{
name = top;
position = "{313, 500}";
}
);
layerId = "452AD06C-4D92-427C-8B35-838986F56274";
paths = (
{
closed = 1;
nodes = (
"601 7 LINE",
"542 7 OFFCURVE",
"497 36 OFFCURVE",
"445 97 CURVE SMOOTH",
"403 146 OFFCURVE",
"355 225 OFFCURVE",
"303 318 CURVE",
"336 390 OFFCURVE",
"380 449 OFFCURVE",
"443 449 CURVE SMOOTH",
"489 449 OFFCURVE",
"504 414 OFFCURVE",
"487 339 CURVE",
"495 338 LINE",
"519 390 OFFCURVE",
"525 458 OFFCURVE",
"548 474 CURVE",
"525 498 OFFCURVE",
"492 510 OFFCURVE",
"451 510 CURVE SMOOTH",
"378 510 OFFCURVE",
"332 442 OFFCURVE",
"287 345 CURVE",
"253 407 OFFCURVE",
"216 500 OFFCURVE",
"139 500 CURVE",
"118 481 OFFCURVE",
"64 441 OFFCURVE",
"16 422 CURVE",
"20 415 LINE",
"100 444 OFFCURVE",
"132 453 OFFCURVE",
"171 403 CURVE SMOOTH",
"191 378 OFFCURVE",
"229 320 OFFCURVE",
"254 274 CURVE",
"206 158 OFFCURVE",
"152 59 OFFCURVE",
"105 -14 CURVE SMOOTH",
"37 -118 OFFCURVE",
"-38 -171 OFFCURVE",
"-139 -203 CURVE",
"-137 -211 LINE",
"-10 -175 OFFCURVE",
"114 -118 OFFCURVE",
"140 -87 CURVE",
"141 -62 OFFCURVE",
"167 -24 OFFCURVE",
"204 51 CURVE SMOOTH",
"227 100 OFFCURVE",
"252 162 OFFCURVE",
"273 239 CURVE",
"347 91 OFFCURVE",
"399 10 OFFCURVE",
"477 6 CURVE SMOOTH",
"601 0 LINE"
);
}
);
width = 614;
}
);
leftKerningGroup = e;
rightKerningGroup = e;
},
{
glyphname = y;
lastChange = "2020-05-19 10:49:45 +0000";
layers = (
{
anchors = (
{
name = bottom;
position = "{214, 0}";
},
{
name = top;
position = "{214, 500}";
}
);
layerId = "452AD06C-4D92-427C-8B35-838986F56274";
paths = (
{
closed = 1;
nodes = (
"371 472 OFFCURVE",
"361 436 OFFCURVE",
"333 363 CURVE SMOOTH",
"250 143 LINE",
"155 378 LINE SMOOTH",
"135 427 OFFCURVE",
"122 457 OFFCURVE",
"122 500 CURVE",
"12 500 LINE",
"47 471 OFFCURVE",
"62 442 OFFCURVE",
"89 375 CURVE SMOOTH",
"211 73 LINE",
"195 40 OFFCURVE",
"181 11 OFFCURVE",
"167 -18 CURVE SMOOTH",
"120 -116 OFFCURVE",
"91 -177 OFFCURVE",
"-14 -218 CURVE",
"-12 -226 LINE",
"92 -190 OFFCURVE",
"163 -107 OFFCURVE",
"211 -97 CURVE",
"214 -71 OFFCURVE",
"220 -30 OFFCURVE",
"273 109 CURVE SMOOTH",
"376 378 LINE SMOOTH",
"393 423 OFFCURVE",
"417 480 OFFCURVE",
"434 500 CURVE",
"331 500 LINE"
);
}
);
width = 451;
}
);
leftKerningGroup = v;
rightKerningGroup = v;
unicode = 0079;
},
{
glyphname = y.ss02;
lastChange = "2020-05-19 10:49:45 +0000";
layers = (
{
anchors = (
{
name = bottom;
position = "{245, 0}";
},
{
name = top;
position = "{245, 500}";
}
);
layerId = "452AD06C-4D92-427C-8B35-838986F56274";
paths = (
{
closed = 1;
nodes = (
"454 448 OFFCURVE",
"464 471 OFFCURVE",
"489 500 CURVE",
"368 500 LINE",
"411 480 OFFCURVE",
"423 457 OFFCURVE",
"379 375 CURVE SMOOTH",
"251 136 LINE",
"135 431 LINE SMOOTH",
"121 468 OFFCURVE",
"115 483 OFFCURVE",
"144 500 CURVE",
"13 500 LINE",
"50 480 OFFCURVE",
"59 463 OFFCURVE",
"79 414 CURVE SMOOTH",
"123 306 OFFCURVE",
"170 190 OFFCURVE",
"214 77 CURVE",
"201 57 OFFCURVE",
"189 45 OFFCURVE",
"170 37 CURVE",
"180 16 OFFCURVE",
"188 -7 OFFCURVE",
"188 -45 CURVE",
"192 -45 LINE",
"267 96 LINE",
"360 96 LINE",
"359 63 OFFCURVE",
"353 45 OFFCURVE",
"256 -111 CURVE SMOOTH",
"212 -182 OFFCURVE",
"177 -235 OFFCURVE",
"93 -298 CURVE",
"101 -303 LINE",
"153 -267 OFFCURVE",
"210 -220 OFFCURVE",
"252 -217 CURVE",
"444 117 LINE",
"279 119 LINE",
"437 416 LINE SMOOTH"
);
}
);
width = 507;
}
);
leftKerningGroup = v;
note = y;
rightKerningGroup = v;
},
{
glyphname = z;
lastChange = "2020-05-19 10:49:45 +0000";
layers = (
{
anchors = (
{
name = bottom;
position = "{268, 0}";
},
{
name = center;
position = "{268, 250}";
},
{
name = top;
position = "{268, 500}";
}
);
layerId = "452AD06C-4D92-427C-8B35-838986F56274";
paths = (
{
closed = 1;
nodes = (
"501 500 LINE",
"213 500 LINE SMOOTH",
"150 500 OFFCURVE",
"137 509 OFFCURVE",
"128 531 CURVE",
"121 530 LINE",
"56 393 LINE",
"63 390 LINE",
"100 433 OFFCURVE",
"129 446 OFFCURVE",
"184 446 CURVE SMOOTH",
"389 446 LINE",
"19 11 LINE",
"29 0 LINE",
"122 109 OFFCURVE",
"250 126 OFFCURVE",
"318 70 CURVE SMOOTH",
"414 -8 LINE",
"428 16 OFFCURVE",
"459 55 OFFCURVE",
"511 91 CURVE",
"505 96 LINE",
"464 69 OFFCURVE",
"427 66 OFFCURVE",
"393 97 CURVE SMOOTH",
"307 175 OFFCURVE",
"232 174 OFFCURVE",
"136 108 CURVE",
"131 113 LINE",
"248 239 OFFCURVE",
"462 474 OFFCURVE",
"503 492 CURVE"
);
}
);
width = 534;
}
);
leftKerningGroup = z;
rightKerningGroup = z;
unicode = 007A;
},
{
glyphname = A_E.liga;
lastChange = "2020-05-19 10:49:45 +0000";
layers = (
{
layerId = "452AD06C-4D92-427C-8B35-838986F56274";
paths = (
{
closed = 1;
nodes = (
"789 46 OFFCURVE",
"694 26 OFFCURVE",
"538 26 CURVE SMOOTH",
"504 26 OFFCURVE",
"495 36 OFFCURVE",
"495 72 CURVE SMOOTH",
"495 417 LINE",
"639 417 LINE SMOOTH",
"718 417 OFFCURVE",
"758 408 OFFCURVE",
"791 365 CURVE",
"791 485 LINE",
"758 453 OFFCURVE",
"718 433 OFFCURVE",
"639 433 CURVE SMOOTH",
"495 433 LINE",
"495 704 LINE",
"598 704 LINE SMOOTH",
"706 704 OFFCURVE",
"738 690 OFFCURVE",
"797 587 CURVE",
"804 590 LINE",
"765 722 LINE",
"341 722 LINE",
"341 717 LINE",
"420 717 OFFCURVE",
"425 701 OFFCURVE",
"425 609 CURVE SMOOTH",
"425 603 LINE",
"184 507 OFFCURVE",
"56 327 OFFCURVE",
"56 106 CURVE SMOOTH",
"56 68 OFFCURVE",
"59 29 OFFCURVE",
"67 -12 CURVE",
"425 349 LINE",
"425 66 LINE SMOOTH",
"425 42 OFFCURVE",
"421 20 OFFCURVE",
"415 0 CURVE",
"807 0 LINE",
"856 159 LINE",
"848 163 LINE"
);
},
{
closed = 1;
nodes = (
"143 145 OFFCURVE",
"141 171 OFFCURVE",
"141 196 CURVE SMOOTH",
"141 367 OFFCURVE",
"238 507 OFFCURVE",
"425 586 CURVE",
"425 369 LINE",
"147 118 LINE"
);
}
);
width = 900;
}
);
leftKerningGroup = A;
note = uni04D4;
rightKerningGroup = E;
},
{
glyphname = A_V.dlig;
lastChange = "2020-05-19 10:49:45 +0000";
layers = (
{
anchors = (
{
name = bottom;
position = "{857, 0}";
},
{
name = ogonek;
position = "{644, 10}";
},
{
name = top;
position = "{857, 722}";
}
);
layerId = "452AD06C-4D92-427C-8B35-838986F56274";
paths = (
{
closed = 1;
nodes = (
"798 701 OFFCURVE",
"815 657 OFFCURVE",
"794 602 CURVE SMOOTH",
"643 214 LINE SMOOTH",
"619 153 OFFCURVE",
"611 135 OFFCURVE",
"605 109 CURVE",
"602 135 OFFCURVE",
"591 174 OFFCURVE",
"580 198 CURVE SMOOTH",
"388 635 LINE SMOOTH",
"364 689 OFFCURVE",
"363 704 OFFCURVE",
"363 722 CURVE",
"134 722 LINE",
"134 717 LINE",
"278 717 OFFCURVE",
"283 688 OFFCURVE",
"339 562 CURVE",
"177 472 OFFCURVE",
"53 288 OFFCURVE",
"53 97 CURVE SMOOTH",
"53 60 OFFCURVE",
"58 24 OFFCURVE",
"67 -12 CURVE",
"400 424 LINE",
"546 80 LINE SMOOTH",
"565 36 OFFCURVE",
"570 14 OFFCURVE",
"564 -16 CURVE",
"580 -16 LINE",
"811 587 LINE SMOOTH",
"853 697 OFFCURVE",
"865 714 OFFCURVE",
"893 717 CURVE",
"893 722 LINE",
"750 722 LINE"
);
},
{
closed = 1;
nodes = (
"136 330 OFFCURVE",
"220 464 OFFCURVE",
"347 544 CURVE",
"392 440 LINE",
"144 118 LINE",
"138 143 OFFCURVE",
"136 167 OFFCURVE",
"136 192 CURVE SMOOTH"
);
}
);
width = 924;
}
);
leftKerningGroup = A;
leftMetricsKey = A;
rightKerningGroup = W;
rightMetricsKey = V;
},
{
glyphname = E_N.liga;
lastChange = "2020-05-19 10:49:45 +0000";
layers = (
{
layerId = "452AD06C-4D92-427C-8B35-838986F56274";
paths = (
{
closed = 1;
nodes = (
"1238 722 LINE",
"1114 722 LINE",
"1114 717 LINE",
"1194 717 OFFCURVE",
"1214 701 OFFCURVE",
"1214 590 CURVE SMOOTH",
"1214 114 LINE",
"708 720 LINE",
"707 722 LINE",
"30 722 LINE",
"30 717 LINE",
"117 717 OFFCURVE",
"114 697 OFFCURVE",
"114 577 CURVE SMOOTH",
"114 66 LINE SMOOTH",
"114 42 OFFCURVE",
"110 20 OFFCURVE",
"104 0 CURVE",
"496 0 LINE",
"545 159 LINE",
"537 163 LINE",
"478 46 OFFCURVE",
"383 26 OFFCURVE",
"227 26 CURVE SMOOTH",
"193 26 OFFCURVE",
"184 36 OFFCURVE",
"184 72 CURVE SMOOTH",
"184 417 LINE",
"328 417 LINE SMOOTH",
"407 417 OFFCURVE",
"447 408 OFFCURVE",
"480 365 CURVE",
"480 485 LINE",
"447 453 OFFCURVE",
"407 433 OFFCURVE",
"328 433 CURVE SMOOTH",
"184 433 LINE",
"184 704 LINE",
"503 704 LINE SMOOTH",
"615 704 OFFCURVE",
"624 697 OFFCURVE",
"665 656 CURVE",
"665 110 LINE SMOOTH",
"665 54 OFFCURVE",
"654 26 OFFCURVE",
"637 0 CURVE",
"720 0 LINE",
"699 32 OFFCURVE",
"691 54 OFFCURVE",
"691 110 CURVE SMOOTH",
"691 629 LINE",
"1238 -26 LINE"
);
}
);
width = 1338;
}
);
leftKerningGroup = D;
rightKerningGroup = I;
},
{
glyphname = E_T.liga;
lastChange = "2020-05-19 10:49:45 +0000";
layers = (
{
anchors = (
{
name = bottom;
position = "{814, 0}";
},
{
name = center;
position = "{814, 361}";
},
{
name = ogonek;
position = "{531, 10}";
},
{
name = top;
position = "{814, 722}";
},
{
name = topleft;
position = "{20, 722}";
}
);
layerId = "452AD06C-4D92-427C-8B35-838986F56274";
paths = (
{
closed = 1;
nodes = (
"619 722 LINE SMOOTH",
"596 722 OFFCURVE",
"581 728 OFFCURVE",
"573 736 CURVE",
"561 736 LINE",
"545 728 OFFCURVE",
"518 723 OFFCURVE",
"499 723 CURVE SMOOTH",
"30 722 LINE",
"30 717 LINE",
"117 717 OFFCURVE",
"114 697 OFFCURVE",
"114 577 CURVE SMOOTH",
"114 66 LINE SMOOTH",
"114 42 OFFCURVE",
"110 20 OFFCURVE",
"104 0 CURVE",
"496 0 LINE",
"545 159 LINE",
"537 163 LINE",
"478 46 OFFCURVE",
"383 26 OFFCURVE",
"227 26 CURVE SMOOTH",
"193 25 OFFCURVE",
"184 36 OFFCURVE",
"184 72 CURVE SMOOTH",
"184 417 LINE",
"328 417 LINE SMOOTH",
"407 417 OFFCURVE",
"447 408 OFFCURVE",
"480 365 CURVE",
"480 485 LINE",
"447 453 OFFCURVE",
"407 433 OFFCURVE",
"328 433 CURVE SMOOTH",
"184 433 LINE",
"184 704 LINE",
"405 704 LINE SMOOTH",
"513 704 OFFCURVE",
"546 702 OFFCURVE",
"511 567 CURVE",
"520 565 LINE",
"563 699 OFFCURVE",
"581 704 OFFCURVE",
"703 704 CURVE SMOOTH",
"779 704 LINE",
"779 89 LINE SMOOTH",
"779 44 OFFCURVE",
"775 27 OFFCURVE",
"760 0 CURVE",
"868 0 LINE",
"853 27 OFFCURVE",
"849 44 OFFCURVE",
"849 89 CURVE SMOOTH",
"849 704 LINE",
"902 704 LINE SMOOTH",
"1021 704 OFFCURVE",
"1068 677 OFFCURVE",
"1107 567 CURVE",
"1114 570 LINE",
"1095 634 OFFCURVE",
"1090 690 OFFCURVE",
"1089 722 CURVE"
);
}
);
width = 1156;
}
);
leftKerningGroup = D;
leftMetricsKey = E;
rightKerningGroup = T;
rightMetricsKey = T;
},
{
glyphname = G_R.liga;
lastChange = "2020-05-19 10:49:45 +0000";
layers = (
{
layerId = "452AD06C-4D92-427C-8B35-838986F56274";
paths = (
{
closed = 1;
nodes = (
"222 270 LINE",
"234 251 OFFCURVE",
"285 183 OFFCURVE",
"295 166 CURVE",
"326 168 OFFCURVE",
"356 174 OFFCURVE",
"384 181 CURVE SMOOTH",
"521 220 OFFCURVE",
"670 347 OFFCURVE",
"821 347 CURVE SMOOTH",
"845 347 OFFCURVE",
"869 344 OFFCURVE",
"896 338 CURVE",
"893 366 LINE",
"876 370 OFFCURVE",
"856 372 OFFCURVE",
"833 372 CURVE SMOOTH",
"658 372 OFFCURVE",
"466 246 OFFCURVE",
"317 246 CURVE SMOOTH",
"280 246 OFFCURVE",
"249 255 OFFCURVE",
"226 276 CURVE"
);
},
{
closed = 1;
nodes = (
"637 305 LINE",
"637 128 LINE SMOOTH",
"637 80 OFFCURVE",
"564 13 OFFCURVE",
"429 13 CURVE SMOOTH",
"417 13 LINE SMOOTH",
"267 14 OFFCURVE",
"142 128 OFFCURVE",
"142 333 CURVE SMOOTH",
"142 538 OFFCURVE",
"248 717 OFFCURVE",
"434 717 CURVE SMOOTH",
"536 717 OFFCURVE",
"634 658 OFFCURVE",
"667 550 CURVE",
"676 551 LINE",
"664 690 LINE",
"597 719 OFFCURVE",
"523 735 OFFCURVE",
"449 735 CURVE SMOOTH",
"221 735 OFFCURVE",
"60 583 OFFCURVE",
"60 348 CURVE SMOOTH",
"60 131 OFFCURVE",
"214 -17 OFFCURVE",
"416 -17 CURVE SMOOTH",
"417 -17 LINE SMOOTH",
"555 -17 OFFCURVE",
"630 31 OFFCURVE",
"706 100 CURVE",
"706 327 LINE"
);
},
{
closed = 1;
nodes = (
"1230 356 OFFCURVE",
"1294 460 OFFCURVE",
"1294 548 CURVE SMOOTH",
"1294 642 OFFCURVE",
"1217 728 OFFCURVE",
"1099 728 CURVE SMOOTH",
"1047 728 OFFCURVE",
"987 712 OFFCURVE",
"922 671 CURVE",
"922 722 LINE",
"759 722 LINE",
"759 717 LINE",
"847 717 OFFCURVE",
"849 710 OFFCURVE",
"849 584 CURVE SMOOTH",
"849 89 LINE SMOOTH",
"849 48 OFFCURVE",
"844 24 OFFCURVE",
"827 0 CURVE",
"937 0 LINE",
"920 24 OFFCURVE",
"919 51 OFFCURVE",
"919 89 CURVE SMOOTH",
"919 332 LINE",
"1050 308 OFFCURVE",
"1081 317 OFFCURVE",
"1185 128 CURVE SMOOTH",
"1264 -16 OFFCURVE",
"1280 -90 OFFCURVE",
"1469 -147 CURVE",
"1471 -140 LINE",
"1269 -66 OFFCURVE",
"1286 298 OFFCURVE",
"1093 331 CURVE"
);
},
{
closed = 1;
nodes = (
"971 682 OFFCURVE",
"1017 694 OFFCURVE",
"1056 694 CURVE SMOOTH",
"1157 694 OFFCURVE",
"1213 612 OFFCURVE",
"1213 528 CURVE SMOOTH",
"1213 411 OFFCURVE",
"1117 345 OFFCURVE",
"1005 345 CURVE SMOOTH",
"977 345 OFFCURVE",
"949 349 OFFCURVE",
"920 358 CURVE",
"919 653 LINE"
);
}
);
width = 1369;
}
);
leftKerningGroup = O;
leftMetricsKey = G;
rightKerningGroup = K;
rightMetricsKey = R;
},
{
glyphname = K_h.liga;
lastChange = "2020-05-19 10:49:45 +0000";
layers = (
{
layerId = "452AD06C-4D92-427C-8B35-838986F56274";
paths = (
{
closed = 1;
nodes = (
"832 511 OFFCURVE",
"777 489 OFFCURVE",
"730 447 CURVE",
"730 646 LINE SMOOTH",
"730 728 OFFCURVE",
"732 752 OFFCURVE",
"745 797 CURVE",
"737 800 LINE",
"648 646 LINE",
"648 638 LINE",
"667 614 OFFCURVE",
"668 572 OFFCURVE",
"668 515 CURVE SMOOTH",
"668 45 LINE SMOOTH",
"668 23 OFFCURVE",
"667 14 OFFCURVE",
"660 0 CURVE",
"741 0 LINE",
"733 19 OFFCURVE",
"730 29 OFFCURVE",
"730 51 CURVE SMOOTH",
"730 388 LINE",
"771 447 OFFCURVE",
"824 478 OFFCURVE",
"872 478 CURVE SMOOTH",
"965 478 OFFCURVE",
"998 388 OFFCURVE",
"998 272 CURVE SMOOTH",
"998 104 OFFCURVE",
"934 -94 OFFCURVE",
"794 -94 CURVE SMOOTH",
"643 -94 OFFCURVE",
"599 10 OFFCURVE",
"519 226 CURVE SMOOTH",
"476 342 OFFCURVE",
"425 427 OFFCURVE",
"333 452 CURVE",
"383 468 OFFCURVE",
"425 506 OFFCURVE",
"453 555 CURVE SMOOTH",
"483 607 OFFCURVE",
"493 661 OFFCURVE",
"487 722 CURVE",
"473 715 OFFCURVE",
"429 732 OFFCURVE",
"383 751 CURVE",
"377 745 LINE",
"401 730 OFFCURVE",
"417 685 OFFCURVE",
"417 635 CURVE SMOOTH",
"417 558 OFFCURVE",
"379 460 OFFCURVE",
"275 460 CURVE SMOOTH",
"247 460 OFFCURVE",
"217 455 OFFCURVE",
"182 446 CURVE",
"182 722 LINE",
"30 722 LINE",
"30 717 LINE",
"122 717 OFFCURVE",
"112 696 OFFCURVE",
"112 582 CURVE SMOOTH",
"112 89 LINE SMOOTH",
"112 44 OFFCURVE",
"108 27 OFFCURVE",
"93 0 CURVE",
"198 0 LINE",
"185 27 OFFCURVE",
"182 46 OFFCURVE",
"182 89 CURVE SMOOTH",
"182 428 LINE",
"208 435 OFFCURVE",
"232 438 OFFCURVE",
"252 438 CURVE SMOOTH",
"383 438 OFFCURVE",
"414 301 OFFCURVE",
"473 138 CURVE SMOOTH",
"536 -37 OFFCURVE",
"662 -113 OFFCURVE",
"772 -113 CURVE SMOOTH",
"958 -113 OFFCURVE",
"1070 91 OFFCURVE",
"1070 290 CURVE SMOOTH",
"1070 425 OFFCURVE",
"1011 511 OFFCURVE",
"885 511 CURVE SMOOTH"
);
}
);
width = 1122;
}
);
leftKerningGroup = D;
leftMetricsKey = K;
rightKerningGroup = n;
},
{
glyphname = L_A.dlig;
lastChange = "2020-05-19 10:49:45 +0000";
layers = (
{
anchors = (
{
name = bottom;
position = "{950, 0}";
},
{
name = center;
position = "{296, 361}";
},
{
name = ogonek;
position = "{1236, 10}";
},
{
name = top;
position = "{950, 722}";
},
{
name = topright;
position = "{572, 722}";
}
);
layerId = "452AD06C-4D92-427C-8B35-838986F56274";
paths = (
{
closed = 1;
nodes = (
"543 163 LINE",
"480 49 OFFCURVE",
"431 22 OFFCURVE",
"190 20 CURVE",
"190 722 LINE",
"30 722 LINE",
"30 717 LINE",
"117 717 OFFCURVE",
"120 697 OFFCURVE",
"120 577 CURVE SMOOTH",
"120 105 LINE SMOOTH",
"120 71 OFFCURVE",
"118 28 OFFCURVE",
"106 0 CURVE",
"190 0 LINE SMOOTH",
"387 0 OFFCURVE",
"440 0 OFFCURVE",
"506 0 CURVE",
"551 159 LINE"
);
},
{
closed = 1;
nodes = (
"832 0 LINE",
"520 673 LINE SMOOTH",
"513 688 OFFCURVE",
"505 706 OFFCURVE",
"502 722 CURVE",
"294 722 LINE",
"294 717 LINE",
"438 717 OFFCURVE",
"443 688 OFFCURVE",
"499 562 CURVE",
"347 482 OFFCURVE",
"272 345 OFFCURVE",
"272 174 CURVE SMOOTH",
"272 137 OFFCURVE",
"277 101 OFFCURVE",
"286 65 CURVE",
"562 427 LINE",
"722 80 LINE SMOOTH",
"734 54 OFFCURVE",
"743 22 OFFCURVE",
"733 0 CURVE"
);
},
{
closed = 1;
nodes = (
"554 443 LINE",
"363 195 LINE",
"357 220 OFFCURVE",
"355 244 OFFCURVE",
"355 269 CURVE SMOOTH",
"355 387 OFFCURVE",
"390 474 OFFCURVE",
"507 544 CURVE"
);
}
);
width = 866;
}
);
leftKerningGroup = D;
leftMetricsKey = L;
rightKerningGroup = A;
rightMetricsKey = A;
},
{
glyphname = L_I.dlig;
lastChange = "2020-05-19 10:49:45 +0000";
layers = (
{
anchors = (
{
name = bottom;
position = "{682, 0}";
},
{
name = center;
position = "{296, 361}";
},
{
name = ogonek;
position = "{794, 10}";
},
{
name = top;
position = "{682, 722}";
},
{
name = topleft;
position = "{562, 722}";
},
{
name = topright;
position = "{572, 722}";
}
);
layerId = "452AD06C-4D92-427C-8B35-838986F56274";
paths = (
{
closed = 1;
nodes = (
"543 163 LINE",
"480 49 OFFCURVE",
"431 22 OFFCURVE",
"190 20 CURVE",
"190 722 LINE",
"30 722 LINE",
"30 717 LINE",
"117 717 OFFCURVE",
"120 697 OFFCURVE",
"120 577 CURVE SMOOTH",
"120 105 LINE SMOOTH",
"120 71 OFFCURVE",
"118 28 OFFCURVE",
"106 0 CURVE",
"190 0 LINE SMOOTH",
"387 0 OFFCURVE",
"440 0 OFFCURVE",
"506 0 CURVE",
"551 159 LINE"
);
},
{
closed = 1;
nodes = (
"412 128 LINE",
"399 155 OFFCURVE",
"396 174 OFFCURVE",
"396 217 CURVE",
"396 722 LINE",
"244 722 LINE",
"244 717 LINE",
"327 714 OFFCURVE",
"326 696 OFFCURVE",
"326 582 CURVE SMOOTH",
"326 217 LINE",
"326 172 OFFCURVE",
"322 155 OFFCURVE",
"307 128 CURVE"
);
}
);
width = 638;
}
);
leftKerningGroup = D;
leftMetricsKey = L;
rightKerningGroup = I;
rightMetricsKey = I;
},
{
glyphname = L_L.dlig;
lastChange = "2020-05-19 10:49:45 +0000";
layers = (
{
anchors = (
{
name = bottom;
position = "{838, 0}";
},
{
name = center;
position = "{838, 361}";
},
{
name = top;
position = "{838, 722}";
},
{
name = topright;
position = "{1114, 722}";
}
);
layerId = "452AD06C-4D92-427C-8B35-838986F56274";
paths = (
{
closed = 1;
nodes = (
"587 318 LINE",
"524 204 OFFCURVE",
"475 177 OFFCURVE",
"353 175 CURVE",
"353 722 LINE",
"188 722 LINE",
"188 717 LINE",
"282 717 OFFCURVE",
"283 697 OFFCURVE",
"283 577 CURVE SMOOTH",
"283 260 LINE SMOOTH",
"283 226 OFFCURVE",
"281 183 OFFCURVE",
"269 155 CURVE",
"539 155 LINE",
"478 48 OFFCURVE",
"425 22 OFFCURVE",
"190 20 CURVE",
"190 722 LINE",
"30 722 LINE",
"30 717 LINE",
"117 717 OFFCURVE",
"120 697 OFFCURVE",
"120 577 CURVE SMOOTH",
"120 105 LINE SMOOTH",
"120 71 OFFCURVE",
"118 28 OFFCURVE",
"106 0 CURVE",
"190 0 LINE",
"506 0 LINE",
"595 314 LINE"
);
}
);
width = 636;
}
);
leftKerningGroup = D;
leftMetricsKey = L;
rightKerningGroup = I;
rightMetricsKey = L;
},
{
glyphname = N_D.dlig;
lastChange = "2020-05-19 10:49:45 +0000";
layers = (
{
anchors = (
{
name = bottom;
position = "{1193, 0}";
},
{
name = center;
position = "{1193, 361}";
},
{
name = top;
position = "{1193, 722}";
}
);
layerId = "452AD06C-4D92-427C-8B35-838986F56274";
paths = (
{
closed = 1;
nodes = (
"729 58 LINE",
"729 722 LINE",
"605 722 LINE",
"605 717 LINE",
"685 717 OFFCURVE",
"705 701 OFFCURVE",
"705 590 CURVE SMOOTH",
"705 114 LINE",
"197 722 LINE",
"30 722 LINE",
"30 717 LINE",
"100 717 OFFCURVE",
"118 705 OFFCURVE",
"156 660 CURVE",
"156 110 LINE SMOOTH",
"156 54 OFFCURVE",
"145 26 OFFCURVE",
"128 0 CURVE",
"211 0 LINE",
"190 32 OFFCURVE",
"182 54 OFFCURVE",
"182 110 CURVE SMOOTH",
"182 629 LINE",
"710 0 LINE"
);
},
{
closed = 1;
nodes = (
"783 0 OFFCURVE",
"783 0 OFFCURVE",
"843 2 CURVE SMOOTH",
"1131 12 OFFCURVE",
"1274 190 OFFCURVE",
"1274 393 CURVE SMOOTH",
"1274 569 OFFCURVE",
"1140 730 OFFCURVE",
"873 726 CURVE SMOOTH",
"802 725 OFFCURVE",
"710 722 OFFCURVE",
"608 722 CURVE",
"608 717 LINE",
"705 717 OFFCURVE",
"705 686 OFFCURVE",
"705 567 CURVE SMOOTH",
"705 132 LINE",
"710 0 LINE"
);
},
{
closed = 1;
nodes = (
"804 703 OFFCURVE",
"829 706 OFFCURVE",
"854 706 CURVE SMOOTH",
"1079 706 OFFCURVE",
"1190 557 OFFCURVE",
"1190 395 CURVE SMOOTH",
"1190 205 OFFCURVE",
"1067 38 OFFCURVE",
"825 24 CURVE SMOOTH",
"791 22 OFFCURVE",
"775 31 OFFCURVE",
"775 64 CURVE SMOOTH",
"775 699 LINE"
);
}
);
width = 1331;
}
);
leftKerningGroup = D;
leftMetricsKey = N;
rightKerningGroup = O;
rightMetricsKey = D;
},
{
glyphname = N_E.dlig;
lastChange = "2020-05-19 10:49:45 +0000";
layers = (
{
anchors = (
{
name = bottom;
position = "{1084, 0}";
},
{
name = ogonek;
position = "{1320, 10}";
},
{
name = top;
position = "{1084, 722}";
},
{
name = topleft;
position = "{809, 722}";
}
);
layerId = "452AD06C-4D92-427C-8B35-838986F56274";
paths = (
{
closed = 1;
nodes = (
"729 60 LINE",
"729 722 LINE",
"605 722 LINE",
"605 717 LINE",
"685 717 OFFCURVE",
"705 701 OFFCURVE",
"705 590 CURVE SMOOTH",
"705 114 LINE",
"197 722 LINE",
"30 722 LINE",
"30 717 LINE",
"100 717 OFFCURVE",
"118 705 OFFCURVE",
"156 660 CURVE",
"156 110 LINE SMOOTH",
"156 54 OFFCURVE",
"145 26 OFFCURVE",
"128 0 CURVE",
"211 0 LINE",
"190 32 OFFCURVE",
"182 54 OFFCURVE",
"182 110 CURVE SMOOTH",
"182 629 LINE",
"705 0 LINE"
);
},
{
closed = 1;
nodes = (
"1069 46 OFFCURVE",
"974 26 OFFCURVE",
"818 26 CURVE SMOOTH",
"784 26 OFFCURVE",
"775 36 OFFCURVE",
"775 72 CURVE SMOOTH",
"775 417 LINE",
"919 417 LINE SMOOTH",
"998 417 OFFCURVE",
"1038 408 OFFCURVE",
"1071 365 CURVE",
"1071 485 LINE",
"1038 453 OFFCURVE",
"998 433 OFFCURVE",
"919 433 CURVE SMOOTH",
"775 433 LINE",
"775 704 LINE",
"878 704 LINE SMOOTH",
"986 704 OFFCURVE",
"1018 690 OFFCURVE",
"1077 587 CURVE",
"1084 590 LINE",
"1045 722 LINE",
"621 722 LINE",
"621 717 LINE",
"708 717 OFFCURVE",
"705 697 OFFCURVE",
"705 577 CURVE SMOOTH",
"705 66 LINE",
"705 0 LINE",
"1087 0 LINE",
"1136 159 LINE",
"1128 163 LINE"
);
}
);
width = 1181;
}
);
leftKerningGroup = D;
leftMetricsKey = N;
rightKerningGroup = E;
rightMetricsKey = E;
},
{
glyphname = N_H.dlig;
lastChange = "2020-05-19 10:49:45 +0000";
layers = (
{
anchors = (
{
name = bottom;
position = "{1180, 0}";
},
{
name = center;
position = "{1180, 361}";
},
{
name = top;
position = "{1180, 722}";
},
{
name = topleft;
position = "{854, 722}";
}
);
layerId = "452AD06C-4D92-427C-8B35-838986F56274";
paths = (
{
closed = 1;
nodes = (
"729 45 LINE",
"729 722 LINE",
"605 722 LINE",
"605 717 LINE",
"685 717 OFFCURVE",
"705 701 OFFCURVE",
"705 590 CURVE SMOOTH",
"705 114 LINE",
"197 722 LINE",
"30 722 LINE",
"30 717 LINE",
"100 717 OFFCURVE",
"118 705 OFFCURVE",
"156 660 CURVE",
"156 110 LINE SMOOTH",
"156 54 OFFCURVE",
"145 26 OFFCURVE",
"128 0 CURVE",
"211 0 LINE",
"190 32 OFFCURVE",
"182 54 OFFCURVE",
"182 110 CURVE SMOOTH",
"182 629 LINE",
"705 0 LINE"
);
},
{
closed = 1;
nodes = (
"791 0 LINE",
"778 27 OFFCURVE",
"775 46 OFFCURVE",
"775 89 CURVE",
"775 722 LINE",
"623 722 LINE",
"623 717 LINE",
"715 717 OFFCURVE",
"705 696 OFFCURVE",
"705 582 CURVE SMOOTH",
"705 89 LINE",
"705 0 LINE"
);
},
{
closed = 1;
nodes = (
"1257 0 LINE",
"1244 27 OFFCURVE",
"1241 46 OFFCURVE",
"1241 89 CURVE",
"1241 722 LINE",
"1090 722 LINE",
"1090 717 LINE",
"1182 717 OFFCURVE",
"1172 696 OFFCURVE",
"1172 582 CURVE SMOOTH",
"1172 89 LINE",
"1172 44 OFFCURVE",
"1168 27 OFFCURVE",
"1153 0 CURVE"
);
},
{
closed = 1;
nodes = (
"758 416 LINE",
"1185 416 LINE",
"1185 440 LINE",
"758 440 LINE"
);
}
);
width = 1344;
}
);
leftKerningGroup = D;
leftMetricsKey = N;
rightKerningGroup = I;
rightMetricsKey = H;
},
{
glyphname = N_N.liga;
lastChange = "2020-05-19 10:49:45 +0000";
layers = (
{
anchors = (
{
name = bottom;
position = "{963, 0}";
},
{
name = top;
position = "{963, 722}";
}
);
layerId = "452AD06C-4D92-427C-8B35-838986F56274";
paths = (
{
closed = 1;
nodes = (
"1152 717 LINE",
"1232 717 OFFCURVE",
"1252 701 OFFCURVE",
"1252 590 CURVE SMOOTH",
"1252 114 LINE",
"744 722 LINE",
"577 722 LINE",
"577 717 LINE",
"647 717 OFFCURVE",
"665 705 OFFCURVE",
"703 660 CURVE",
"703 116 LINE",
"197 722 LINE",
"30 722 LINE",
"30 717 LINE",
"100 717 OFFCURVE",
"118 705 OFFCURVE",
"156 660 CURVE",
"156 110 LINE SMOOTH",
"156 54 OFFCURVE",
"145 26 OFFCURVE",
"128 0 CURVE",
"211 0 LINE",
"190 32 OFFCURVE",
"182 54 OFFCURVE",
"182 110 CURVE SMOOTH",
"182 629 LINE",
"729 -26 LINE",
"729 629 LINE",
"1276 -26 LINE",
"1276 722 LINE",
"1152 722 LINE"
);
}
);
width = 1376;
}
);
leftKerningGroup = D;
leftMetricsKey = N;
rightKerningGroup = I;
rightMetricsKey = N;
},
{
glyphname = N_T.dlig;
lastChange = "2020-05-19 10:49:45 +0000";
layers = (
{
anchors = (
{
name = bottom;
position = "{1172, 0}";
},
{
name = center;
position = "{1172, 361}";
},
{
name = top;
position = "{1172, 722}";
}
);
layerId = "452AD06C-4D92-427C-8B35-838986F56274";
paths = (
{
closed = 1;
nodes = (
"729 63 LINE",
"729 722 LINE",
"605 722 LINE",
"709 714 LINE",
"705 590 LINE",
"705 114 LINE",
"197 722 LINE",
"30 722 LINE",
"30 717 LINE",
"100 717 OFFCURVE",
"118 705 OFFCURVE",
"156 660 CURVE",
"156 110 LINE SMOOTH",
"156 54 OFFCURVE",
"145 26 OFFCURVE",
"128 0 CURVE",
"211 0 LINE",
"190 32 OFFCURVE",
"182 54 OFFCURVE",
"182 110 CURVE SMOOTH",
"182 629 LINE",
"705 0 LINE"
);
},
{
closed = 1;
nodes = (
"495 722 LINE",
"494 690 OFFCURVE",
"490 634 OFFCURVE",
"469 570 CURVE",
"476 567 LINE",
"519 677 OFFCURVE",
"560 704 OFFCURVE",
"652 704 CURVE SMOOTH",
"705 704 LINE",
"705 89 LINE",
"705 0 LINE",
"794 0 LINE",
"779 27 OFFCURVE",
"775 44 OFFCURVE",
"775 89 CURVE SMOOTH",
"775 704 LINE",
"828 704 LINE SMOOTH",
"907 704 OFFCURVE",
"954 677 OFFCURVE",
"993 567 CURVE",
"1000 570 LINE",
"981 634 OFFCURVE",
"976 690 OFFCURVE",
"975 722 CURVE"
);
}
);
width = 1042;
}
);
leftKerningGroup = D;
leftMetricsKey = N;
rightKerningGroup = T;
rightMetricsKey = T;
},
{
glyphname = R_P.liga;
lastChange = "2020-05-19 10:49:45 +0000";
layers = (
{
layerId = "452AD06C-4D92-427C-8B35-838986F56274";
paths = (
{
closed = 1;
nodes = (
"1160 -3 OFFCURVE",
"1336 168 OFFCURVE",
"1336 392 CURVE SMOOTH",
"1336 594 OFFCURVE",
"1191 735 OFFCURVE",
"1018 735 CURVE SMOOTH",
"939 735 OFFCURVE",
"856 707 OFFCURVE",
"782 646 CURVE",
"783 722 LINE",
"607 722 LINE",
"607 717 LINE",
"711 713 OFFCURVE",
"712 673 OFFCURVE",
"712 546 CURVE SMOOTH",
"712 112 LINE SMOOTH",
"712 -72 OFFCURVE",
"777 -232 OFFCURVE",
"914 -346 CURVE",
"914 -354 LINE",
"693 -230 OFFCURVE",
"636 -60 OFFCURVE",
"532 135 CURVE SMOOTH",
"482 229 OFFCURVE",
"422 287 OFFCURVE",
"307 319 CURVE",
"307 324 LINE",
"474 340 OFFCURVE",
"565 460 OFFCURVE",
"565 548 CURVE SMOOTH",
"565 642 OFFCURVE",
"488 728 OFFCURVE",
"370 728 CURVE SMOOTH",
"318 728 OFFCURVE",
"258 712 OFFCURVE",
"193 671 CURVE",
"193 722 LINE",
"30 722 LINE",
"30 717 LINE",
"118 717 OFFCURVE",
"120 710 OFFCURVE",
"120 584 CURVE SMOOTH",
"120 89 LINE SMOOTH",
"120 48 OFFCURVE",
"115 24 OFFCURVE",
"98 0 CURVE",
"208 0 LINE",
"191 24 OFFCURVE",
"190 51 OFFCURVE",
"190 89 CURVE SMOOTH",
"190 331 LINE",
"275 315 OFFCURVE",
"386 265 OFFCURVE",
"472 84 CURVE SMOOTH",
"594 -173 OFFCURVE",
"748 -356 OFFCURVE",
"1189 -485 CURVE",
"1194 -477 LINE",
"893 -380 OFFCURVE",
"781 -180 OFFCURVE",
"781 29 CURVE SMOOTH",
"781 62 LINE",
"839 17 OFFCURVE",
"904 -3 OFFCURVE",
"968 -3 CURVE SMOOTH"
);
},
{
closed = 1;
nodes = (
"854 676 OFFCURVE",
"932 705 OFFCURVE",
"1004 705 CURVE SMOOTH",
"1143 705 OFFCURVE",
"1258 577 OFFCURVE",
"1258 399 CURVE SMOOTH",
"1258 196 OFFCURVE",
"1125 18 OFFCURVE",
"973 18 CURVE SMOOTH",
"879 18 OFFCURVE",
"782 78 OFFCURVE",
"782 186 CURVE SMOOTH",
"782 612 LINE"
);
},
{
closed = 1;
nodes = (
"190 653 LINE",
"242 682 OFFCURVE",
"288 694 OFFCURVE",
"327 694 CURVE SMOOTH",
"428 694 OFFCURVE",
"484 612 OFFCURVE",
"484 528 CURVE SMOOTH",
"484 411 OFFCURVE",
"387 340 OFFCURVE",
"275 340 CURVE SMOOTH",
"247 340 OFFCURVE",
"219 345 OFFCURVE",
"190 354 CURVE"
);
}
);
width = 1384;
}
);
leftKerningGroup = D;
leftMetricsKey = R;
rightKerningGroup = O;
rightMetricsKey = P;
},
{
glyphname = R_Y.liga;
lastChange = "2020-05-19 10:49:45 +0000";
layers = (
{
layerId = "452AD06C-4D92-427C-8B35-838986F56274";
paths = (
{
closed = 1;
nodes = (
"1110 715 LINE",
"1191 715 OFFCURVE",
"1192 675 OFFCURVE",
"1192 537 CURVE SMOOTH",
"1192 219 LINE SMOOTH",
"1192 85 OFFCURVE",
"1101 20 OFFCURVE",
"966 20 CURVE SMOOTH",
"802 20 OFFCURVE",
"719 159 OFFCURVE",
"719 329 CURVE SMOOTH",
"719 420 OFFCURVE",
"740 520 OFFCURVE",
"789 612 CURVE SMOOTH",
"816 663 OFFCURVE",
"846 703 OFFCURVE",
"882 720 CURVE",
"698 720 LINE",
"698 715 LINE",
"750 715 OFFCURVE",
"773 709 OFFCURVE",
"773 684 CURVE SMOOTH",
"773 657 OFFCURVE",
"761 628 OFFCURVE",
"705 531 CURVE SMOOTH",
"663 458 OFFCURVE",
"643 379 OFFCURVE",
"643 305 CURVE SMOOTH",
"643 134 OFFCURVE",
"747 -14 OFFCURVE",
"939 -14 CURVE SMOOTH",
"1030 -14 OFFCURVE",
"1126 13 OFFCURVE",
"1190 78 CURVE",
"1185 -107 OFFCURVE",
"1101 -241 OFFCURVE",
"929 -241 CURVE SMOOTH",
"721 -241 OFFCURVE",
"652 -87 OFFCURVE",
"532 135 CURVE SMOOTH",
"482 229 OFFCURVE",
"422 287 OFFCURVE",
"307 319 CURVE",
"307 324 LINE",
"474 340 OFFCURVE",
"565 460 OFFCURVE",
"565 548 CURVE SMOOTH",
"565 642 OFFCURVE",
"488 728 OFFCURVE",
"370 728 CURVE SMOOTH",
"318 728 OFFCURVE",
"258 712 OFFCURVE",
"193 671 CURVE",
"193 722 LINE",
"30 722 LINE",
"30 717 LINE",
"118 717 OFFCURVE",
"120 710 OFFCURVE",
"120 584 CURVE SMOOTH",
"120 89 LINE SMOOTH",
"120 48 OFFCURVE",
"115 24 OFFCURVE",
"98 0 CURVE",
"208 0 LINE",
"191 24 OFFCURVE",
"190 51 OFFCURVE",
"190 89 CURVE SMOOTH",
"190 331 LINE",
"275 315 OFFCURVE",
"386 265 OFFCURVE",
"472 84 CURVE SMOOTH",
"572 -125 OFFCURVE",
"726 -264 OFFCURVE",
"939 -264 CURVE SMOOTH",
"1152 -264 OFFCURVE",
"1262 -112 OFFCURVE",
"1262 119 CURVE SMOOTH",
"1262 720 LINE",
"1110 720 LINE"
);
},
{
closed = 1;
nodes = (
"190 653 LINE",
"242 682 OFFCURVE",
"288 694 OFFCURVE",
"327 694 CURVE SMOOTH",
"428 694 OFFCURVE",
"484 612 OFFCURVE",
"484 528 CURVE SMOOTH",
"484 411 OFFCURVE",
"387 340 OFFCURVE",
"275 340 CURVE SMOOTH",
"247 340 OFFCURVE",
"219 345 OFFCURVE",
"190 354 CURVE"
);
}
);
width = 1292;
}
);
leftKerningGroup = D;
leftMetricsKey = R;
rightKerningGroup = I;
rightMetricsKey = Y;
},
{
glyphname = S_S.liga;
lastChange = "2020-05-19 10:49:45 +0000";
layers = (
{
layerId = "452AD06C-4D92-427C-8B35-838986F56274";
paths = (
{
closed = 1;
nodes = (
"721 463 OFFCURVE",
"645 505 OFFCURVE",
"645 597 CURVE SMOOTH",
"645 658 OFFCURVE",
"695 705 OFFCURVE",
"784 705 CURVE SMOOTH",
"908 705 OFFCURVE",
"981 635 OFFCURVE",
"1027 467 CURVE",
"1034 469 LINE",
"1018 550 OFFCURVE",
"994 644 OFFCURVE",
"994 682 CURVE",
"830 768 OFFCURVE",
"605 736 OFFCURVE",
"605 570 CURVE SMOOTH",
"605 532 OFFCURVE",
"618 490 OFFCURVE",
"649 448 CURVE SMOOTH",
"760 298 OFFCURVE",
"1018 322 OFFCURVE",
"1018 140 CURVE SMOOTH",
"1018 55 OFFCURVE",
"953 12 OFFCURVE",
"877 12 CURVE SMOOTH",
"820 12 OFFCURVE",
"757 36 OFFCURVE",
"711 87 CURVE SMOOTH",
"645 157 OFFCURVE",
"601 270 OFFCURVE",
"562 393 CURVE SMOOTH",
"535 478 OFFCURVE",
"504 593 OFFCURVE",
"498 670 CURVE",
"440 705 OFFCURVE",
"378 725 OFFCURVE",
"312 730 CURVE SMOOTH",
"173 740 OFFCURVE",
"88 683 OFFCURVE",
"80 573 CURVE SMOOTH",
"72 465 OFFCURVE",
"130 397 OFFCURVE",
"282 335 CURVE SMOOTH",
"423 278 OFFCURVE",
"487 213 OFFCURVE",
"482 133 CURVE SMOOTH",
"477 57 OFFCURVE",
"428 18 OFFCURVE",
"341 18 CURVE SMOOTH",
"205 18 OFFCURVE",
"105 111 OFFCURVE",
"70 267 CURVE",
"63 267 LINE",
"90 53 LINE",
"150 7 OFFCURVE",
"226 -18 OFFCURVE",
"305 -17 CURVE SMOOTH",
"440 -14 OFFCURVE",
"538 64 OFFCURVE",
"545 174 CURVE SMOOTH",
"552 269 OFFCURVE",
"476 353 OFFCURVE",
"337 404 CURVE SMOOTH",
"206 452 OFFCURVE",
"129 531 OFFCURVE",
"134 613 CURVE SMOOTH",
"138 679 OFFCURVE",
"195 712 OFFCURVE",
"290 705 CURVE SMOOTH",
"423 695 OFFCURVE",
"485 587 OFFCURVE",
"543 399 CURVE SMOOTH",
"588 254 OFFCURVE",
"634 165 OFFCURVE",
"591 99 CURVE",
"647 36 OFFCURVE",
"725 -14 OFFCURVE",
"855 -14 CURVE SMOOTH",
"998 -14 OFFCURVE",
"1078 72 OFFCURVE",
"1078 190 CURVE SMOOTH",
"1078 320 OFFCURVE",
"945 367 OFFCURVE",
"807 426 CURVE SMOOTH"
);
}
);
width = 1128;
}
);
leftKerningGroup = S;
rightKerningGroup = S;
},
{
glyphname = T_T.dlig;
lastChange = "2020-05-19 10:49:45 +0000";
layers = (
{
anchors = (
{
name = bottom;
position = "{998, 0}";
},
{
name = center;
position = "{998, 361}";
},
{
name = top;
position = "{998, 722}";
}
);
layerId = "452AD06C-4D92-427C-8B35-838986F56274";
paths = (
{
closed = 1;
nodes = (
"595 722 LINE",
"584 722 OFFCURVE",
"563 722 OFFCURVE",
"552 712 CURVE",
"541 722 OFFCURVE",
"519 722 OFFCURVE",
"508 722 CURVE SMOOTH",
"68 722 LINE",
"67 690 OFFCURVE",
"63 634 OFFCURVE",
"42 570 CURVE",
"49 567 LINE",
"92 677 OFFCURVE",
"133 704 OFFCURVE",
"245 704 CURVE SMOOTH",
"278 704 LINE",
"278 89 LINE SMOOTH",
"278 44 OFFCURVE",
"274 27 OFFCURVE",
"259 0 CURVE",
"367 0 LINE",
"352 27 OFFCURVE",
"348 44 OFFCURVE",
"348 89 CURVE SMOOTH",
"348 704 LINE",
"381 704 LINE SMOOTH",
"500 704 OFFCURVE",
"527 699 OFFCURVE",
"547 565 CURVE",
"557 565 LINE",
"575 699 OFFCURVE",
"600 704 OFFCURVE",
"723 704 CURVE SMOOTH",
"756 704 LINE",
"756 89 LINE SMOOTH",
"756 44 OFFCURVE",
"752 27 OFFCURVE",
"737 0 CURVE",
"845 0 LINE",
"830 27 OFFCURVE",
"826 44 OFFCURVE",
"826 89 CURVE SMOOTH",
"826 704 LINE",
"859 704 LINE SMOOTH",
"968 704 OFFCURVE",
"1015 677 OFFCURVE",
"1054 567 CURVE",
"1061 570 LINE",
"1042 634 OFFCURVE",
"1037 690 OFFCURVE",
"1036 722 CURVE"
);
}
);
width = 1103;
}
);
leftKerningGroup = T;
leftMetricsKey = T;
rightKerningGroup = T;
rightMetricsKey = T;
},
{
glyphname = f_f.liga;
lastChange = "2020-05-19 10:49:45 +0000";
layers = (
{
layerId = "452AD06C-4D92-427C-8B35-838986F56274";
paths = (
{
closed = 1;
nodes = (
"456 500 LINE",
"463 704 OFFCURVE",
"443 753 OFFCURVE",
"533 753 CURVE SMOOTH",
"599 753 OFFCURVE",
"621 699 OFFCURVE",
"600 615 CURVE",
"607 611 LINE",
"675 739 LINE",
"636 771 OFFCURVE",
"589 789 OFFCURVE",
"549 789 CURVE SMOOTH",
"452 789 OFFCURVE",
"396 684 OFFCURVE",
"396 500 CURVE",
"185 500 LINE",
"192 704 OFFCURVE",
"172 753 OFFCURVE",
"262 753 CURVE SMOOTH",
"328 753 OFFCURVE",
"350 699 OFFCURVE",
"329 615 CURVE",
"336 611 LINE",
"404 739 LINE",
"365 771 OFFCURVE",
"318 789 OFFCURVE",
"278 789 CURVE SMOOTH",
"181 789 OFFCURVE",
"125 684 OFFCURVE",
"125 500 CURVE",
"58 500 LINE",
"41 471 LINE",
"47 468 LINE",
"65 478 OFFCURVE",
"78 480 OFFCURVE",
"106 480 CURVE SMOOTH",
"125 480 LINE",
"125 12 LINE SMOOTH",
"125 -51 OFFCURVE",
"86 -133 OFFCURVE",
"57 -196 CURVE",
"65 -200 LINE",
"114 -110 OFFCURVE",
"139 -54 OFFCURVE",
"185 0 CURVE",
"185 480 LINE",
"396 480 LINE",
"396 12 LINE SMOOTH",
"396 -51 OFFCURVE",
"357 -133 OFFCURVE",
"328 -196 CURVE",
"336 -200 LINE",
"385 -110 OFFCURVE",
"410 -54 OFFCURVE",
"456 0 CURVE",
"456 480 LINE",
"505 480 LINE SMOOTH",
"549 480 OFFCURVE",
"595 477 OFFCURVE",
"618 471 CURVE",
"624 472 LINE",
"650 516 LINE",
"644 519 LINE",
"634 500 OFFCURVE",
"625 500 OFFCURVE",
"597 500 CURVE SMOOTH"
);
}
);
width = 716;
}
);
leftKerningGroup = f;
note = f_f;
rightKerningGroup = f;
},
{
glyphname = f_f_i.liga;
lastChange = "2020-05-19 10:49:45 +0000";
layers = (
{
layerId = "452AD06C-4D92-427C-8B35-838986F56274";
paths = (
{
closed = 1;
nodes = (
"697 486 OFFCURVE",
"702 497 OFFCURVE",
"723 525 CURVE",
"717 530 LINE",
"693 503 OFFCURVE",
"643 500 OFFCURVE",
"615 500 CURVE SMOOTH",
"432 500 LINE",
"439 704 OFFCURVE",
"419 753 OFFCURVE",
"509 753 CURVE SMOOTH",
"575 753 OFFCURVE",
"558 696 OFFCURVE",
"555 603 CURVE",
"563 601 LINE",
"568 674 OFFCURVE",
"601 710 OFFCURVE",
"642 717 CURVE",
"607 776 OFFCURVE",
"565 789 OFFCURVE",
"525 789 CURVE SMOOTH",
"428 789 OFFCURVE",
"372 684 OFFCURVE",
"372 500 CURVE",
"161 500 LINE",
"168 704 OFFCURVE",
"148 753 OFFCURVE",
"238 753 CURVE SMOOTH",
"304 753 OFFCURVE",
"326 699 OFFCURVE",
"305 615 CURVE",
"312 611 LINE",
"334 666 OFFCURVE",
"355 710 OFFCURVE",
"380 739 CURVE",
"341 771 OFFCURVE",
"294 789 OFFCURVE",
"254 789 CURVE SMOOTH",
"157 789 OFFCURVE",
"101 684 OFFCURVE",
"101 500 CURVE",
"34 500 LINE",
"17 471 LINE",
"23 468 LINE",
"41 478 OFFCURVE",
"54 480 OFFCURVE",
"82 480 CURVE SMOOTH",
"101 480 LINE",
"101 12 LINE SMOOTH",
"101 -51 OFFCURVE",
"62 -133 OFFCURVE",
"33 -196 CURVE",
"41 -200 LINE",
"90 -110 OFFCURVE",
"115 -54 OFFCURVE",
"161 0 CURVE",
"161 480 LINE",
"372 480 LINE",
"372 12 LINE SMOOTH",
"372 -51 OFFCURVE",
"333 -133 OFFCURVE",
"304 -196 CURVE",
"312 -200 LINE",
"361 -110 OFFCURVE",
"386 -54 OFFCURVE",
"432 0 CURVE",
"432 480 LINE",
"504 480 LINE SMOOTH",
"616 480 OFFCURVE",
"632 486 OFFCURVE",
"632 395 CURVE SMOOTH",
"632 60 LINE SMOOTH",
"632 31 OFFCURVE",
"624 15 OFFCURVE",
"616 0 CURVE",
"712 0 LINE",
"700 17 OFFCURVE",
"697 38 OFFCURVE",
"697 60 CURVE SMOOTH",
"697 427 LINE SMOOTH"
);
},
{
closed = 1;
nodes = (
"611 579 OFFCURVE",
"630 560 OFFCURVE",
"654 560 CURVE SMOOTH",
"677 560 OFFCURVE",
"696 578 OFFCURVE",
"696 603 CURVE SMOOTH",
"696 626 OFFCURVE",
"677 645 OFFCURVE",
"654 645 CURVE SMOOTH",
"630 645 OFFCURVE",
"611 626 OFFCURVE",
"611 603 CURVE SMOOTH"
);
}
);
width = 763;
}
);
leftKerningGroup = f;
note = f_f_i;
rightKerningGroup = i;
},
